<?xml version="1.0" encoding="utf-8"?>
<!-- Generator: Adobe Illustrator 16.0.0, SVG Export Plug-In . SVG Version: 6.00 Build 0)  -->
<!DOCTYPE svg PUBLIC "-//W3C//DTD SVG 1.1//EN" "http://www.w3.org/Graphics/SVG/1.1/DTD/svg11.dtd">
<svg version="1.1" xmlns="http://www.w3.org/2000/svg" xmlns:xlink="http://www.w3.org/1999/xlink" x="0px" y="0px" width="200px"
	 height="200px" viewBox="0 0 200 200" enable-background="new 0 0 200 200" xml:space="preserve">
<g id="regional" display="none">
	<g display="inline">
		<g>
			<path fill="#70C29F" d="M8.578,99.841c0,50.397,41,91.399,91.399,91.399c50.396,0,91.399-41.002,91.399-91.399
				c0-50.397-41.003-91.396-91.399-91.396C49.578,8.446,8.578,49.444,8.578,99.841z M185.092,99.841
				c0,46.934-38.181,85.115-85.114,85.115s-85.119-38.181-85.119-85.115c0-46.935,38.185-85.12,85.119-85.12
				S185.092,52.906,185.092,99.841z"/>
		</g>
		<path fill="#D2C0AA" d="M112.83,23.159c-0.732,1.576-0.06,3.44,1.512,4.173c6.423,2.996,14.215,11.342,20.586,23.27
			c-9.702-3.554-20.439-5.808-31.817-6.165V25.01c0-1.731-1.401-3.138-3.137-3.138c-1.733,0-3.138,1.407-3.138,3.138v19.372
			c-10.261,0.298-20.219,2.043-29.376,4.787c6.285-9.913,13.921-17.554,21.527-21.965c1.006-0.577,1.567-1.63,1.567-2.716
			c0-0.536-0.135-1.072-0.421-1.572c-0.868-1.502-2.788-2.01-4.292-1.14C75.89,27.534,65.895,38.299,58.474,52.27
			c-18.062,7.105-31.832,17.976-36.698,28.41c-0.73,1.576-0.055,3.44,1.518,4.173c1.569,0.733,3.436,0.05,4.171-1.516
			c3.293-7.063,13.055-15.79,26.958-22.455c-4.445,10.71-7.311,22.858-7.718,35.822H25.147c-1.736,0-3.142,1.406-3.142,3.138
			c0,1.731,1.406,3.137,3.142,3.137h21.502c0.362,12.487,2.867,24.521,6.706,35.212c-13.328-6.596-22.679-15.048-25.89-21.933
			c-0.735-1.571-2.602-2.249-4.171-1.516c-1.571,0.732-2.251,2.602-1.518,4.173c4.713,10.105,17.787,20.618,35.01,27.719
			c7.031,15.433,16.774,27.021,26.161,31.405c1.571,0.728,3.44,0.05,4.175-1.521c0.731-1.566,0.053-3.44-1.518-4.175
			c-6.294-2.936-13.909-11.008-20.21-22.564c9.72,3.111,20.398,5.112,31.442,5.434v19.454c0,1.732,1.407,3.139,3.142,3.139
			c1.731,0,3.138-1.406,3.138-3.139v-19.509c10.994-0.35,21.391-2.46,30.837-5.812c-5.579,9.412-12.653,17.05-20.741,21.73
			c-1.503,0.869-2.012,2.785-1.146,4.287c0.869,1.508,2.79,2.017,4.288,1.146c11.121-6.436,20.397-17.417,26.884-30.942
			c16.078-7.568,28.466-18.593,34.804-29.545c0.289-0.496,0.432-1.037,0.432-1.573c0-1.08-0.564-2.139-1.571-2.716
			c-1.503-0.875-3.417-0.357-4.289,1.14c-4.933,8.524-13.942,17.072-25.646,23.729c3.757-10.375,5.961-21.819,6.298-33.623h21.544
			c1.731,0,3.138-1.406,3.138-3.137c0-1.737-1.406-3.138-3.138-3.138h-21.506c-0.344-11.869-2.63-23.32-6.152-33.604
			c11.612,6.638,20.553,15.14,25.463,23.623c0.872,1.498,2.786,2.011,4.289,1.141c1.007-0.582,1.571-1.635,1.571-2.721
			c0-0.531-0.143-1.072-0.432-1.571c-6.274-10.848-18.497-21.75-34.342-29.312c-7.072-16.033-17.067-28.117-26.7-32.61
			C115.428,20.906,113.562,21.593,112.83,23.159z M62.906,57.286c9.973-3.71,21.489-6.252,33.93-6.624v46.041H52.984
			C53.47,82.072,57.267,68.605,62.906,57.286z M61.511,141.772c-4.748-11.011-8.146-24.273-8.58-38.794h43.904v45.955
			C83.808,148.548,71.797,145.772,61.511,141.772z M138.327,140.926c-10.403,4.548-22.36,7.53-35.217,7.952v-45.899h43.87
			C146.56,116.451,143.448,129.584,138.327,140.926z M147.021,96.703h-43.906v-45.99c13.077,0.435,25.23,3.508,35.742,8.185
			C143.393,69.713,146.6,82.618,147.021,96.703z"/>
		<path fill="#FFFFFF" d="M103.113,96.703c4.291,0,37.096-31.36,40.791-12.35c2.739,14.072,10.555,12.121,9.775,1.173
			c-1.003-14.013,26.578,3.128,27.361,27.364c0.747,23.151-22.588,36.162-32.835,46.124c-9.753,9.487-18.717,23.468-47.328,23.468
			c-19.229,0-81.195-20.394-83.231-71.029c-1.138-28.318,29.537-38.121,28.146-25.144c-1.172,10.944,6.253,15.246,8.99,5.08
			C58.917,76.044,97.741,96.703,103.113,96.703z"/>
		<g>
			<path fill="#DD6344" d="M61.476,70.737c-7.293,0-13.227-5.934-13.227-13.227c0-7.293,5.934-13.227,13.227-13.227
				c7.293,0,13.226,5.934,13.226,13.227C74.702,64.803,68.769,70.737,61.476,70.737z"/>
			<path fill="#FFFFFF" d="M61.476,45.783c6.477,0,11.726,5.254,11.726,11.727c0,6.477-5.249,11.727-11.726,11.727
				c-6.478,0-11.727-5.25-11.727-11.727C49.749,51.038,54.998,45.783,61.476,45.783 M61.476,42.783
				c-8.121,0-14.727,6.606-14.727,14.727c0,8.12,6.606,14.727,14.727,14.727c8.12,0,14.726-6.606,14.726-14.727
				C76.202,49.39,69.596,42.783,61.476,42.783L61.476,42.783z"/>
		</g>
		<g>
			<path fill="#DD6344" d="M141.215,70.737c-7.293,0-13.226-5.934-13.226-13.227c0-7.293,5.933-13.227,13.226-13.227
				c7.294,0,13.228,5.934,13.228,13.227C154.442,64.803,148.509,70.737,141.215,70.737z"/>
			<path fill="#FFFFFF" d="M141.215,45.783c6.479,0,11.728,5.254,11.728,11.727c0,6.477-5.249,11.727-11.728,11.727
				c-6.476,0-11.726-5.25-11.726-11.727C129.489,51.038,134.739,45.783,141.215,45.783 M141.215,42.783
				c-8.12,0-14.726,6.606-14.726,14.727c0,8.12,6.605,14.727,14.726,14.727c8.121,0,14.728-6.606,14.728-14.727
				C155.942,49.39,149.336,42.783,141.215,42.783L141.215,42.783z"/>
		</g>
		<g>
			<path fill="#DD6344" d="M101.345,59.01c-7.292,0-13.225-5.934-13.225-13.227c0-7.293,5.933-13.227,13.225-13.227
				c7.293,0,13.227,5.934,13.227,13.227C114.571,53.077,108.638,59.01,101.345,59.01z"/>
			<path fill="#FFFFFF" d="M101.345,34.057c6.479,0,11.727,5.254,11.727,11.727c0,6.478-5.248,11.727-11.727,11.727
				c-6.476,0-11.725-5.25-11.725-11.727C89.62,39.311,94.869,34.057,101.345,34.057 M101.345,31.057
				c-8.119,0-14.725,6.606-14.725,14.727c0,8.121,6.605,14.727,14.725,14.727c8.12,0,14.727-6.606,14.727-14.727
				C116.071,37.663,109.465,31.057,101.345,31.057L101.345,31.057z"/>
		</g>
		<g>
			<path fill="#DD6344" d="M101.345,112.953c-7.292,0-13.225-5.934-13.225-13.227c0-7.293,5.933-13.226,13.225-13.226
				c7.293,0,13.227,5.933,13.227,13.226C114.571,107.02,108.638,112.953,101.345,112.953z"/>
			<path fill="#FFFFFF" d="M101.345,88c6.479,0,11.727,5.253,11.727,11.726c0,6.476-5.248,11.727-11.727,11.727
				c-6.476,0-11.725-5.251-11.725-11.727C89.62,93.253,94.869,88,101.345,88 M101.345,85c-8.119,0-14.725,6.606-14.725,14.726
				c0,8.121,6.605,14.727,14.725,14.727c8.12,0,14.727-6.606,14.727-14.727C116.071,91.606,109.465,85,101.345,85L101.345,85z"/>
		</g>
	</g>
</g>
<g id="global">
	<g>
		<path fill="#70C29F" d="M8.576,99.844c0,50.399,41,91.396,91.4,91.396c50.397,0,91.4-40.997,91.4-91.396
			c0-50.396-41.003-91.398-91.4-91.398C49.576,8.446,8.576,49.448,8.576,99.844z M185.093,99.844
			c0,46.935-38.182,85.116-85.116,85.116s-85.12-38.186-85.12-85.116c0-46.938,38.186-85.123,85.12-85.123
			S185.093,52.907,185.093,99.844z"/>
	</g>
	<path fill="#D2C0AA" d="M112.83,23.164c-0.733,1.571-0.06,3.44,1.513,4.168c6.421,2.996,14.213,11.342,20.585,23.275
		c-9.702-3.56-20.438-5.813-31.818-6.17V25.015c0-1.736-1.401-3.143-3.138-3.143c-1.733,0-3.138,1.406-3.138,3.143v19.372
		c-10.261,0.293-20.22,2.039-29.377,4.782c6.286-9.913,13.922-17.553,21.528-21.965c1.005-0.577,1.566-1.63,1.566-2.716
		c0-0.536-0.135-1.072-0.422-1.571c-0.868-1.498-2.787-2.011-4.292-1.141c-9.948,5.758-19.944,16.528-27.366,30.499
		C40.41,59.375,26.641,70.25,21.773,80.68c-0.73,1.575-0.055,3.439,1.519,4.172c1.569,0.733,3.436,0.055,4.171-1.517
		c3.294-7.062,13.056-15.788,26.958-22.454c-4.445,10.71-7.311,22.857-7.719,35.821H25.145c-1.736,0-3.142,1.407-3.142,3.142
		c0,1.732,1.405,3.138,3.142,3.138h21.503c0.361,12.488,2.867,24.521,6.706,35.208c-13.328-6.592-22.68-15.048-25.891-21.928
		c-0.735-1.572-2.602-2.25-4.171-1.517c-1.571,0.733-2.252,2.603-1.519,4.174c4.714,10.104,17.788,20.613,35.011,27.718
		c7.032,15.433,16.774,27.018,26.161,31.4c1.571,0.733,3.44,0.056,4.176-1.516c0.73-1.57,0.052-3.44-1.519-4.173
		c-6.294-2.936-13.91-11.008-20.211-22.565c9.721,3.11,20.398,5.112,31.442,5.434v19.454c0,1.731,1.406,3.139,3.143,3.139
		c1.731,0,3.139-1.407,3.139-3.139v-19.51c10.993-0.348,21.392-2.46,30.837-5.817c-5.579,9.418-12.651,17.054-20.742,21.735
		c-1.502,0.871-2.011,2.786-1.146,4.288c0.871,1.503,2.79,2.016,4.289,1.146c11.121-6.437,20.397-17.421,26.884-30.943
		c16.079-7.567,28.465-18.594,34.805-29.551c0.288-0.494,0.431-1.031,0.431-1.566c0-1.086-0.563-2.139-1.571-2.717
		c-1.502-0.875-3.417-0.357-4.288,1.142c-4.933,8.524-13.943,17.071-25.646,23.728c3.755-10.375,5.959-21.817,6.299-33.623h21.543
		c1.731,0,3.137-1.406,3.137-3.138c0-1.735-1.405-3.142-3.137-3.142h-21.507c-0.344-11.869-2.629-23.315-6.152-33.604
		c11.612,6.637,20.555,15.139,25.464,23.622c0.871,1.499,2.786,2.011,4.288,1.146c1.008-0.586,1.571-1.64,1.571-2.721
		c0-0.536-0.143-1.076-0.431-1.571c-6.275-10.847-18.497-21.753-34.342-29.316c-7.072-16.033-17.067-28.117-26.701-32.611
		C115.427,20.91,113.563,21.593,112.83,23.164z M62.904,57.286c9.972-3.706,21.488-6.253,33.93-6.624v46.04H52.982
		C53.468,82.076,57.265,68.61,62.904,57.286z M61.511,141.777c-4.75-11.012-8.148-24.273-8.582-38.795h43.905v45.955
		C83.806,148.547,71.796,145.776,61.511,141.777z M138.326,140.93c-10.401,4.549-22.357,7.526-35.217,7.953v-45.9h43.87
		C146.559,116.455,143.447,129.584,138.326,140.93z M147.021,96.703h-43.906V50.717c13.077,0.431,25.23,3.504,35.743,8.182
		C143.393,69.714,146.6,82.617,147.021,96.703z"/>
</g>
<g id="local" display="none">
	<g display="inline">
		<path fill="#D2C0AA" d="M114.736,10.173c-0.845,1.814-0.067,3.97,1.745,4.814c7.417,3.457,16.412,13.094,23.768,26.868
			c-11.202-4.106-23.597-6.709-36.734-7.121V12.309c0-2.003-1.618-3.626-3.622-3.626c-2.002,0-3.623,1.623-3.623,3.626v22.366
			c-11.846,0.341-23.345,2.355-33.916,5.524c7.255-11.444,16.072-20.266,24.854-25.36c1.162-0.667,1.808-1.882,1.808-3.135
			c0-0.619-0.156-1.238-0.486-1.815c-1.003-1.732-3.218-2.323-4.956-1.317c-11.485,6.647-23.026,19.077-31.595,35.21
			C31.127,51.98,15.23,64.534,9.61,76.577c-0.844,1.819-0.064,3.974,1.753,4.819c1.812,0.846,3.967,0.061,4.817-1.75
			C19.98,71.49,31.251,61.416,47.303,53.72c-5.133,12.365-8.441,26.389-8.912,41.357H13.502c-2.004,0-3.627,1.625-3.627,3.625
			s1.623,3.625,3.627,3.625h24.823c0.418,14.414,3.312,28.309,7.744,40.649c-15.387-7.612-26.184-17.374-29.89-25.318
			c-0.85-1.815-3.005-2.599-4.817-1.752c-1.813,0.846-2.6,3.006-1.753,4.819c5.442,11.663,20.537,23.799,40.421,32.001
			c8.118,17.818,19.366,31.195,30.202,36.255c1.815,0.843,3.973,0.062,4.82-1.751c0.846-1.811,0.062-3.974-1.75-4.82
			c-7.268-3.388-16.06-12.708-23.334-26.05c11.223,3.591,23.55,5.9,36.301,6.271v22.461c0,2,1.623,3.624,3.627,3.624
			c2,0,3.623-1.624,3.623-3.624v-22.524c12.693-0.4,24.699-2.839,35.603-6.714c-6.44,10.872-14.606,19.688-23.946,25.091
			c-1.733,1.007-2.32,3.218-1.322,4.953c1.007,1.735,3.22,2.324,4.952,1.32c12.84-7.429,23.549-20.11,31.037-35.726
			c18.563-8.733,32.863-21.465,40.184-34.113c0.333-0.57,0.498-1.19,0.498-1.812c0-1.249-0.651-2.47-1.815-3.135
			c-1.736-1.011-3.945-0.412-4.949,1.317c-5.695,9.842-16.101,19.71-29.611,27.394c4.336-11.978,6.88-25.19,7.272-38.816h24.872
			c1.997,0,3.623-1.625,3.623-3.625c0-2.004-1.626-3.625-3.623-3.625h-24.83c-0.397-13.702-3.036-26.92-7.104-38.798
			c13.406,7.665,23.731,17.479,29.4,27.273c1.004,1.73,3.213,2.322,4.949,1.32c1.164-0.674,1.815-1.891,1.815-3.141
			c0-0.617-0.165-1.24-0.498-1.814c-7.246-12.525-21.355-25.115-39.649-33.844c-8.165-18.51-19.703-32.462-30.826-37.651
			C117.735,7.569,115.583,8.361,114.736,10.173z M57.097,49.57c11.513-4.283,24.81-7.221,39.173-7.648v53.155H45.642
			C46.202,78.189,50.587,62.64,57.097,49.57z M55.487,147.115c-5.482-12.715-9.407-28.026-9.905-44.788H96.27v53.054
			C81.229,154.934,67.363,151.73,55.487,147.115z M144.174,146.138c-12.01,5.25-25.814,8.693-40.659,9.181v-52.991h50.649
			C153.678,117.879,150.086,133.039,144.174,146.138z M154.213,95.077H103.52V41.982c15.1,0.5,29.129,4.048,41.269,9.448
			C150.022,63.917,153.724,78.816,154.213,95.077z"/>
		<path fill="#FFFFFF" d="M103.52,95.077c4.953,0,42.827-36.203,47.095-14.256c3.161,16.248,12.187,13.996,11.284,1.354
			c-1.156-16.177,30.688,3.609,31.59,31.593c0.861,26.732-26.08,41.745-37.91,53.254c-11.259,10.952-21.606,27.094-54.64,27.094
			c-22.199,0-93.743-23.547-96.093-82.007C3.531,79.412,38.947,68.097,37.341,83.082c-1.354,12.632,7.219,17.601,10.377,5.864
			C52.494,71.23,97.316,95.077,103.52,95.077z"/>
		<g>
			<path fill="#DD6344" d="M55.446,64.868c-8.292,0-15.038-6.746-15.038-15.039s6.746-15.039,15.038-15.039
				c8.292,0,15.039,6.746,15.039,15.039S63.739,64.868,55.446,64.868z"/>
			<path fill="#FFFFFF" d="M55.446,36.291c7.478,0,13.539,6.065,13.539,13.539c0,7.48-6.061,13.539-13.539,13.539
				c-7.477,0-13.538-6.058-13.538-13.539C41.908,42.356,47.969,36.291,55.446,36.291 M55.446,33.291
				c-9.119,0-16.538,7.419-16.538,16.539s7.419,16.539,16.538,16.539s16.539-7.419,16.539-16.539S64.565,33.291,55.446,33.291
				L55.446,33.291z"/>
		</g>
		<g>
			<path fill="#DD6344" d="M147.511,64.868c-8.293,0-15.039-6.746-15.039-15.039s6.746-15.039,15.039-15.039
				s15.039,6.746,15.039,15.039S155.804,64.868,147.511,64.868z"/>
			<path fill="#FFFFFF" d="M147.511,36.291c7.477,0,13.539,6.065,13.539,13.539c0,7.48-6.062,13.539-13.539,13.539
				c-7.478,0-13.539-6.058-13.539-13.539C133.972,42.356,140.033,36.291,147.511,36.291 M147.511,33.291
				c-9.12,0-16.539,7.419-16.539,16.539s7.419,16.539,16.539,16.539s16.539-7.419,16.539-16.539S156.631,33.291,147.511,33.291
				L147.511,33.291z"/>
		</g>
		<g>
			<path fill="#DD6344" d="M101.479,51.33c-8.292,0-15.038-6.746-15.038-15.039c0-8.292,6.746-15.038,15.038-15.038
				c8.293,0,15.039,6.746,15.039,15.038C116.518,44.583,109.771,51.33,101.479,51.33z"/>
			<path fill="#FFFFFF" d="M101.479,22.753c7.479,0,13.539,6.065,13.539,13.538c0,7.479-6.061,13.539-13.539,13.539
				s-13.538-6.06-13.538-13.539C87.941,28.818,94,22.753,101.479,22.753 M101.479,19.753c-9.119,0-16.538,7.419-16.538,16.538
				S92.36,52.83,101.479,52.83c9.12,0,16.539-7.419,16.539-16.539S110.599,19.753,101.479,19.753L101.479,19.753z"/>
		</g>
		<g>
			<path fill="#DD6344" d="M101.479,113.609c-8.292,0-15.038-6.746-15.038-15.038c0-8.292,6.746-15.039,15.038-15.039
				c8.293,0,15.039,6.747,15.039,15.039C116.518,106.863,109.771,113.609,101.479,113.609z"/>
			<path fill="#FFFFFF" d="M101.479,85.032c7.479,0,13.539,6.064,13.539,13.539c0,7.477-6.061,13.538-13.539,13.538
				s-13.538-6.062-13.538-13.538C87.941,91.097,94,85.032,101.479,85.032 M101.479,82.032c-9.119,0-16.538,7.419-16.538,16.539
				c0,9.119,7.419,16.538,16.538,16.538c9.12,0,16.539-7.419,16.539-16.538C118.018,89.452,110.599,82.032,101.479,82.032
				L101.479,82.032z"/>
		</g>
	</g>
</g>
</svg>
