<?xml version="1.0" encoding="utf-8"?>
<!-- Generator: Adobe Illustrator 16.0.0, SVG Export Plug-In . SVG Version: 6.00 Build 0)  -->
<!DOCTYPE svg PUBLIC "-//W3C//DTD SVG 1.1//EN" "http://www.w3.org/Graphics/SVG/1.1/DTD/svg11.dtd">
<svg version="1.1" xmlns="http://www.w3.org/2000/svg" xmlns:xlink="http://www.w3.org/1999/xlink" x="0px" y="0px" width="200px"
	 height="200px" viewBox="0 0 200 200" enable-background="new 0 0 200 200" xml:space="preserve">
<g id="global" display="none">
	<g display="inline">
		<path fill="#70C29F" d="M8.576,99.844c0,50.399,41,91.396,91.4,91.396c50.397,0,91.4-40.997,91.4-91.396
			c0-50.396-41.003-91.398-91.4-91.398C49.576,8.446,8.576,49.448,8.576,99.844z M185.093,99.844
			c0,46.935-38.182,85.116-85.116,85.116s-85.12-38.186-85.12-85.116c0-46.938,38.186-85.123,85.12-85.123
			S185.093,52.907,185.093,99.844z"/>
	</g>
	<path display="inline" fill="#D2C0AA" d="M112.83,23.164c-0.733,1.571-0.06,3.44,1.513,4.168
		c6.421,2.996,14.213,11.342,20.585,23.275c-9.702-3.56-20.438-5.813-31.818-6.17V25.015c0-1.736-1.401-3.143-3.138-3.143
		c-1.733,0-3.138,1.406-3.138,3.143v19.372c-10.261,0.293-20.22,2.039-29.377,4.782c6.286-9.913,13.922-17.553,21.528-21.965
		c1.005-0.577,1.566-1.63,1.566-2.716c0-0.536-0.135-1.072-0.422-1.571c-0.868-1.498-2.787-2.011-4.292-1.141
		c-9.948,5.758-19.944,16.528-27.366,30.499C40.41,59.375,26.641,70.25,21.773,80.68c-0.73,1.575-0.055,3.439,1.519,4.172
		c1.569,0.733,3.436,0.055,4.171-1.517c3.294-7.062,13.056-15.788,26.958-22.454c-4.445,10.71-7.311,22.857-7.719,35.821H25.145
		c-1.736,0-3.142,1.407-3.142,3.142c0,1.732,1.405,3.138,3.142,3.138h21.503c0.361,12.488,2.867,24.521,6.706,35.208
		c-13.328-6.592-22.68-15.048-25.891-21.928c-0.735-1.572-2.602-2.25-4.171-1.517c-1.571,0.733-2.252,2.603-1.519,4.174
		c4.714,10.104,17.788,20.613,35.011,27.718c7.032,15.433,16.774,27.018,26.161,31.4c1.571,0.733,3.44,0.056,4.176-1.516
		c0.73-1.57,0.052-3.44-1.519-4.173c-6.294-2.936-13.91-11.008-20.211-22.565c9.721,3.11,20.398,5.112,31.442,5.434v19.454
		c0,1.731,1.406,3.139,3.143,3.139c1.731,0,3.139-1.407,3.139-3.139v-19.51c10.993-0.348,21.392-2.46,30.837-5.817
		c-5.579,9.418-12.651,17.054-20.742,21.735c-1.502,0.871-2.011,2.786-1.146,4.288c0.871,1.503,2.79,2.016,4.289,1.146
		c11.121-6.437,20.397-17.421,26.884-30.943c16.079-7.567,28.465-18.594,34.805-29.551c0.288-0.494,0.431-1.031,0.431-1.566
		c0-1.086-0.563-2.139-1.571-2.717c-1.502-0.875-3.417-0.357-4.288,1.142c-4.933,8.524-13.943,17.071-25.646,23.728
		c3.755-10.375,5.959-21.817,6.299-33.623h21.543c1.731,0,3.137-1.406,3.137-3.138c0-1.735-1.405-3.142-3.137-3.142h-21.507
		c-0.344-11.869-2.629-23.315-6.152-33.604c11.612,6.637,20.555,15.139,25.464,23.622c0.871,1.499,2.786,2.011,4.288,1.146
		c1.008-0.586,1.571-1.64,1.571-2.721c0-0.536-0.143-1.076-0.431-1.571c-6.275-10.847-18.497-21.753-34.342-29.316
		c-7.072-16.033-17.067-28.117-26.701-32.611C115.427,20.91,113.563,21.593,112.83,23.164z M62.904,57.286
		c9.972-3.706,21.488-6.253,33.93-6.624v46.04H52.982C53.468,82.076,57.265,68.61,62.904,57.286z M61.511,141.777
		c-4.75-11.012-8.148-24.273-8.582-38.795h43.905v45.955C83.806,148.547,71.796,145.776,61.511,141.777z M138.326,140.93
		c-10.401,4.549-22.357,7.526-35.217,7.953v-45.9h43.87C146.559,116.455,143.447,129.584,138.326,140.93z M147.021,96.703h-43.906
		V50.717c13.077,0.431,25.23,3.504,35.743,8.182C143.393,69.714,146.6,82.617,147.021,96.703z"/>
</g>
<g id="regional" display="none">
	<g display="inline">
		<path fill="#D2C0AA" d="M178.041,83.57c-4.318-7.466-11.455-14.958-20.651-21.369c-0.579,2.074-1.549,3.982-2.827,5.647
			c8.013,5.72,14.245,12.3,18.05,18.873c0.872,1.498,2.786,2.011,4.289,1.141c1.007-0.582,1.571-1.635,1.571-2.721
			C178.473,84.61,178.33,84.069,178.041,83.57z"/>
		<path fill="#D2C0AA" d="M101.345,86.45c-1.586,0-3.1,0.292-4.509,0.803v7.579c2.996,1.114,5.25,1.872,6.278,1.872
			c0.001,0,0.001,0,0.001,0V86.581C102.534,86.504,101.946,86.45,101.345,86.45z"/>
		<path fill="#D2C0AA" d="M101.345,62.399c-1.564,0-3.073-0.232-4.509-0.637V83.69c1.437-0.405,2.945-0.637,4.509-0.637
			c0.598,0,1.188,0.035,1.77,0.097l0.001-20.848C102.533,62.364,101.943,62.399,101.345,62.399z"/>
		<path fill="#D2C0AA" d="M84.674,45.726c0-0.104,0.014-0.206,0.016-0.309c-3.513,0.489-6.965,1.129-10.33,1.916
			c1.346,1.681,2.369,3.626,2.986,5.746c2.734-0.596,5.542-1.091,8.417-1.48C85.07,49.768,84.674,47.795,84.674,45.726z"/>
		<path fill="#D2C0AA" d="M127.648,48.246c-3.128-0.886-6.353-1.621-9.646-2.216c-0.039,2.163-0.482,4.228-1.273,6.116
			c2.858,0.507,5.652,1.137,8.375,1.875C125.583,51.917,126.455,49.964,127.648,48.246z"/>
		<path fill="#D2C0AA" d="M143.699,54.258c-1.491-3.38-3.118-6.572-4.839-9.567c-2.154,0.408-4.121,1.337-5.771,2.651
			c0.622,1.058,1.238,2.138,1.838,3.261c-1.259-0.461-2.537-0.898-3.83-1.314c-1.331,1.615-2.284,3.552-2.734,5.673
			c3.648,1.129,7.154,2.451,10.494,3.937c1.574,3.754,2.98,7.767,4.173,11.986c2.153-0.273,4.147-1.056,5.851-2.233
			c-0.539-1.882-1.11-3.739-1.731-5.552c1.593,0.91,3.13,1.859,4.618,2.834c1.296-1.644,2.212-3.596,2.614-5.734
			C151.046,58.061,147.479,56.062,143.699,54.258z"/>
		<path fill="#D2C0AA" d="M70.652,48.266c-1.074,0.289-2.14,0.587-3.193,0.903c0.496-0.782,1.002-1.544,1.514-2.297
			c-1.724-1.214-3.748-2.024-5.941-2.303c-1.602,2.44-3.129,5.009-4.558,7.701c-3.647,1.435-7.108,3.029-10.367,4.736
			c-0.013,0.24-0.037,0.478-0.037,0.721c0,2.063,0.484,4.009,1.324,5.751c1.608-0.893,3.285-1.761,5.027-2.596
			c-0.852,2.054-1.63,4.173-2.359,6.328c1.521,1.49,3.398,2.615,5.494,3.238c1.491-4.64,3.297-9.043,5.349-13.161
			c3.525-1.312,7.251-2.467,11.135-3.442C73.387,51.704,72.207,49.796,70.652,48.266z"/>
		<path fill="#D2C0AA" d="M101.345,32.45c-1.586,0-3.1,0.292-4.509,0.803v11.129c-2.939,0.085-5.85,0.302-8.728,0.614
			c-0.013,0.243-0.037,0.483-0.037,0.73c0,1.947,0.429,3.791,1.182,5.457c2.488-0.253,5.01-0.444,7.583-0.521V58.2
			c1.41,0.51,2.923,0.803,4.509,0.803c0.602,0,1.189-0.054,1.771-0.131v-8.159c3.444,0.114,6.823,0.417,10.127,0.878
			c0.874-1.771,1.379-3.757,1.379-5.865c0-0.086-0.012-0.17-0.013-0.256c-3.748-0.548-7.582-0.91-11.498-1.033V32.581
			C102.531,32.503,101.945,32.45,101.345,32.45z"/>
		<path fill="#D2C0AA" d="M44.731,58.863c-11.168,6.43-19.419,14.235-22.956,21.817c-0.73,1.576-0.055,3.44,1.518,4.173
			c1.569,0.733,3.436,0.05,4.171-1.516c2.622-5.622,9.351-12.294,18.994-18.146C45.489,63.263,44.885,61.126,44.731,58.863z"/>
		<path fill="#D2C0AA" d="M50.942,70.734c-2.216,7.419-3.687,15.348-4.137,23.644c1.503,3.127,4.199,3.805,6.243,0.965
			c0.36-7.587,1.611-14.846,3.534-21.646C54.503,73.076,52.596,72.059,50.942,70.734z"/>
		<path fill="#D2C0AA" d="M114.342,27.333c5.25,2.449,11.415,8.476,16.971,17.109c1.687-1.277,3.618-2.237,5.717-2.801
			c-6.062-9.658-13.136-16.777-20.03-19.993c-1.571-0.742-3.437-0.055-4.169,1.511C112.098,24.735,112.771,26.599,114.342,27.333z"
			/>
		<path fill="#D2C0AA" d="M143.907,74.182c1.405,5.662,2.411,11.668,2.872,17.942c2.284,3.252,4.98,2.743,6.239-0.571
			c-0.512-6.716-1.633-13.253-3.214-19.485C148.022,73.124,146.032,73.852,143.907,74.182z"/>
		<path fill="#D2C0AA" d="M70.932,44.108c5.527-7.462,11.8-13.277,18.054-16.904c1.006-0.577,1.567-1.63,1.567-2.716
			c0-0.536-0.135-1.072-0.421-1.572c-0.868-1.502-2.788-2.01-4.292-1.14c-7.209,4.173-14.438,10.985-20.699,19.73
			C67.253,42.001,69.211,42.894,70.932,44.108z"/>
		<path fill="#D2C0AA" d="M101.345,29.054c0.597,0,1.185,0.035,1.766,0.096v-4.14c0-1.731-1.401-3.138-3.137-3.138
			c-1.733,0-3.138,1.407-3.138,3.138v4.681C98.272,29.286,99.78,29.054,101.345,29.054z"/>
	</g>
	<g display="inline">
		<g>
			<path fill="#70C29F" d="M299.578,99.841c0,50.397,41,91.399,91.399,91.399c50.396,0,91.399-41.002,91.399-91.399
				c0-50.397-41.003-91.396-91.399-91.396C340.578,8.446,299.578,49.444,299.578,99.841z M476.092,99.841
				c0,46.934-38.181,85.115-85.114,85.115s-85.118-38.181-85.118-85.115c0-46.935,38.185-85.12,85.118-85.12
				S476.092,52.906,476.092,99.841z"/>
		</g>
		<path fill="#D2C0AA" d="M403.83,23.159c-0.732,1.576-0.06,3.44,1.512,4.173c6.423,2.996,14.215,11.342,20.586,23.27
			c-9.702-3.554-20.439-5.808-31.817-6.165V25.01c0-1.731-1.401-3.138-3.138-3.138c-1.732,0-3.137,1.407-3.137,3.138v19.372
			c-10.262,0.298-20.22,2.043-29.377,4.787c6.285-9.913,13.922-17.554,21.527-21.965c1.006-0.577,1.566-1.63,1.566-2.716
			c0-0.536-0.135-1.072-0.421-1.572c-0.868-1.502-2.788-2.01-4.292-1.14c-9.949,5.758-19.945,16.523-27.365,30.494
			c-18.062,7.105-31.832,17.976-36.699,28.41c-0.73,1.576-0.055,3.44,1.519,4.173c1.569,0.733,3.436,0.05,4.171-1.516
			c3.293-7.063,13.055-15.79,26.957-22.455c-4.445,10.71-7.311,22.858-7.718,35.822h-21.558c-1.735,0-3.142,1.406-3.142,3.138
			c0,1.731,1.406,3.137,3.142,3.137h21.502c0.362,12.487,2.867,24.521,6.707,35.212c-13.328-6.596-22.68-15.048-25.891-21.933
			c-0.735-1.571-2.602-2.249-4.171-1.516c-1.571,0.732-2.251,2.602-1.519,4.173c4.714,10.105,17.787,20.618,35.011,27.719
			c7.031,15.433,16.774,27.021,26.161,31.405c1.57,0.728,3.439,0.05,4.174-1.521c0.732-1.566,0.054-3.44-1.518-4.175
			c-6.294-2.936-13.909-11.008-20.211-22.564c9.721,3.111,20.398,5.112,31.443,5.434v19.454c0,1.732,1.406,3.139,3.142,3.139
			c1.731,0,3.138-1.406,3.138-3.139v-19.509c10.994-0.35,21.391-2.46,30.837-5.812c-5.579,9.412-12.653,17.05-20.741,21.73
			c-1.503,0.869-2.012,2.785-1.146,4.287c0.869,1.508,2.79,2.017,4.288,1.146c11.121-6.436,20.397-17.417,26.884-30.942
			c16.078-7.568,28.466-18.593,34.804-29.545c0.289-0.496,0.432-1.037,0.432-1.573c0-1.08-0.564-2.139-1.571-2.716
			c-1.503-0.875-3.417-0.357-4.289,1.14c-4.933,8.524-13.942,17.072-25.646,23.729c3.757-10.375,5.961-21.819,6.298-33.623h21.544
			c1.731,0,3.138-1.406,3.138-3.137c0-1.737-1.406-3.138-3.138-3.138h-21.506c-0.344-11.869-2.63-23.32-6.152-33.604
			c11.612,6.638,20.553,15.14,25.463,23.623c0.872,1.498,2.786,2.011,4.289,1.141c1.007-0.582,1.571-1.635,1.571-2.721
			c0-0.531-0.143-1.072-0.432-1.571c-6.274-10.848-18.497-21.75-34.342-29.312c-7.072-16.033-17.067-28.117-26.7-32.61
			C406.428,20.906,404.562,21.593,403.83,23.159z M353.906,57.286c9.973-3.71,21.488-6.252,33.93-6.624v46.041h-43.852
			C344.47,82.072,348.267,68.605,353.906,57.286z M352.511,141.772c-4.747-11.011-8.146-24.273-8.579-38.794h43.904v45.955
			C374.809,148.548,362.797,145.772,352.511,141.772z M429.327,140.926c-10.403,4.548-22.36,7.53-35.217,7.952v-45.899h43.87
			C437.56,116.451,434.448,129.584,429.327,140.926z M438.021,96.703h-43.906v-45.99c13.077,0.435,25.23,3.508,35.742,8.185
			C434.393,69.713,437.6,82.618,438.021,96.703z"/>
		<path fill="#FFFFFF" d="M394.113,96.703c4.291,0,37.096-31.36,40.791-12.35c2.739,14.072,10.555,12.121,9.775,1.173
			c-1.003-14.013,26.578,3.128,27.361,27.364c0.747,23.151-22.588,36.162-32.835,46.124c-9.753,9.487-18.717,23.468-47.327,23.468
			c-19.229,0-81.195-20.394-83.232-71.029c-1.138-28.318,29.537-38.121,28.146-25.144c-1.172,10.944,6.254,15.246,8.99,5.08
			C349.918,76.044,388.741,96.703,394.113,96.703z"/>
		<g>
			<path fill="#DD6344" d="M352.477,70.737c-7.294,0-13.228-5.934-13.228-13.227c0-7.293,5.934-13.227,13.228-13.227
				c7.293,0,13.226,5.934,13.226,13.227C365.702,64.803,359.77,70.737,352.477,70.737z"/>
			<path fill="#FFFFFF" d="M352.477,45.783c6.477,0,11.726,5.254,11.726,11.727c0,6.477-5.249,11.727-11.726,11.727
				c-6.479,0-11.728-5.25-11.728-11.727C340.749,51.038,345.998,45.783,352.477,45.783 M352.477,42.783
				c-8.121,0-14.728,6.606-14.728,14.727c0,8.12,6.606,14.727,14.728,14.727c8.12,0,14.726-6.606,14.726-14.727
				C367.202,49.39,360.597,42.783,352.477,42.783L352.477,42.783z"/>
		</g>
		<g>
			<path fill="#DD6344" d="M432.215,70.737c-7.293,0-13.226-5.934-13.226-13.227c0-7.293,5.933-13.227,13.226-13.227
				c7.294,0,13.228,5.934,13.228,13.227C445.442,64.803,439.509,70.737,432.215,70.737z"/>
			<path fill="#FFFFFF" d="M432.215,45.783c6.479,0,11.728,5.254,11.728,11.727c0,6.477-5.249,11.727-11.728,11.727
				c-6.476,0-11.726-5.25-11.726-11.727C420.489,51.038,425.739,45.783,432.215,45.783 M432.215,42.783
				c-8.12,0-14.726,6.606-14.726,14.727c0,8.12,6.605,14.727,14.726,14.727c8.121,0,14.728-6.606,14.728-14.727
				C446.942,49.39,440.336,42.783,432.215,42.783L432.215,42.783z"/>
		</g>
		<g>
			<path fill="#DD6344" d="M392.345,59.01c-7.292,0-13.225-5.934-13.225-13.227c0-7.293,5.933-13.227,13.225-13.227
				c7.293,0,13.227,5.934,13.227,13.227C405.571,53.077,399.638,59.01,392.345,59.01z"/>
			<path fill="#FFFFFF" d="M392.345,34.057c6.479,0,11.727,5.254,11.727,11.727c0,6.478-5.248,11.727-11.727,11.727
				c-6.476,0-11.725-5.25-11.725-11.727C380.62,39.311,385.869,34.057,392.345,34.057 M392.345,31.057
				c-8.119,0-14.725,6.606-14.725,14.727c0,8.121,6.605,14.727,14.725,14.727c8.12,0,14.727-6.606,14.727-14.727
				C407.071,37.663,400.465,31.057,392.345,31.057L392.345,31.057z"/>
		</g>
		<g>
			<path fill="#DD6344" d="M392.345,112.953c-7.292,0-13.225-5.934-13.225-13.227c0-7.293,5.933-13.226,13.225-13.226
				c7.293,0,13.227,5.933,13.227,13.226C405.571,107.02,399.638,112.953,392.345,112.953z"/>
			<path fill="#FFFFFF" d="M392.345,88c6.479,0,11.727,5.253,11.727,11.726c0,6.476-5.248,11.727-11.727,11.727
				c-6.476,0-11.725-5.251-11.725-11.727C380.62,93.253,385.869,88,392.345,88 M392.345,85c-8.119,0-14.725,6.606-14.725,14.726
				c0,8.121,6.605,14.727,14.725,14.727c8.12,0,14.727-6.606,14.727-14.727C407.071,91.606,400.465,85,392.345,85L392.345,85z"/>
		</g>
	</g>
	<g display="inline">
		<g>
			<path fill="#70C29F" d="M8.578,99.841c0,50.397,41,91.399,91.399,91.399c50.396,0,91.399-41.002,91.399-91.399
				c0-50.397-41.003-91.396-91.399-91.396C49.578,8.446,8.578,49.444,8.578,99.841z M185.092,99.841
				c0,46.934-38.181,85.115-85.114,85.115s-85.119-38.181-85.119-85.115c0-46.935,38.185-85.12,85.119-85.12
				S185.092,52.906,185.092,99.841z"/>
		</g>
	</g>
	<g display="inline">
		<path fill="#DD6344" d="M101.345,112.953c-7.292,0-13.225-5.934-13.225-13.227c0-7.293,5.933-13.226,13.225-13.226
			c7.293,0,13.227,5.933,13.227,13.226C114.571,107.02,108.638,112.953,101.345,112.953z"/>
	</g>
	<g display="inline">
		<path fill="#DD6344" d="M61.345,70.953c-7.292,0-13.225-5.934-13.225-13.227c0-7.293,5.933-13.226,13.225-13.226
			c7.293,0,13.227,5.933,13.227,13.226C74.571,65.02,68.638,70.953,61.345,70.953z"/>
	</g>
	<g display="inline">
		<path fill="#DD6344" d="M101.345,58.953c-7.292,0-13.225-5.934-13.225-13.227c0-7.293,5.933-13.226,13.225-13.226
			c7.293,0,13.227,5.933,13.227,13.226C114.571,53.02,108.638,58.953,101.345,58.953z"/>
	</g>
	<g display="inline">
		<path fill="#DD6344" d="M141.345,70.953c-7.292,0-13.225-5.934-13.225-13.227c0-7.293,5.933-13.226,13.225-13.226
			c7.293,0,13.227,5.933,13.227,13.226C154.571,65.02,148.638,70.953,141.345,70.953z"/>
	</g>
	<path display="inline" fill="#D2C0AA" d="M-230.706,84.853c1.569,0.733,3.436,0.05,4.171-1.516
		c3.293-7.063,13.055-15.79,26.958-22.455c-4.178,10.067-6.96,21.406-7.617,33.497c1.503,3.127,4.199,3.805,6.243,0.965
		c0.669-14.104,4.394-27.09,9.857-38.057c9.973-3.71,21.489-6.252,33.93-6.624v44.169c2.996,1.114,5.25,1.872,6.278,1.872
		c0.001,0,0.001,0,0.001,0l0.001-45.99c13.077,0.435,25.23,3.508,35.742,8.185c4.039,9.631,7.019,20.922,7.922,33.226
		c2.284,3.252,4.98,2.743,6.239-0.571c-0.764-10.024-2.859-19.667-5.869-28.455c11.612,6.638,20.553,15.14,25.463,23.623
		c0.872,1.498,2.786,2.011,4.289,1.141c1.007-0.582,1.571-1.635,1.571-2.721c0-0.531-0.143-1.072-0.432-1.571
		c-6.274-10.848-18.497-21.75-34.342-29.312c-7.072-16.033-17.067-28.117-26.7-32.61c-1.571-0.742-3.437-0.055-4.169,1.511
		c-0.732,1.576-0.06,3.44,1.512,4.173c6.423,2.996,14.215,11.342,20.586,23.27c-9.702-3.554-20.439-5.808-31.817-6.165V25.01
		c0-1.731-1.401-3.138-3.137-3.138c-1.733,0-3.138,1.407-3.138,3.138v19.372c-10.261,0.298-20.219,2.043-29.376,4.787
		c6.285-9.913,13.921-17.554,21.527-21.965c1.006-0.577,1.567-1.63,1.567-2.716c0-0.536-0.135-1.072-0.421-1.572
		c-0.868-1.502-2.788-2.01-4.292-1.14c-9.949,5.758-19.945,16.523-27.365,30.494c-18.062,7.105-31.832,17.976-36.698,28.41
		C-232.955,82.255-232.279,84.12-230.706,84.853z"/>
	<g display="inline">
		<g>
			<path fill="#70C29F" d="M-245.422,99.841c0,50.397,41,91.399,91.399,91.399c50.396,0,91.399-41.002,91.399-91.399
				c0-50.397-41.003-91.396-91.399-91.396C-204.422,8.446-245.422,49.444-245.422,99.841z M-68.908,99.841
				c0,46.934-38.181,85.115-85.114,85.115s-85.119-38.181-85.119-85.115c0-46.935,38.185-85.12,85.119-85.12
				S-68.908,52.906-68.908,99.841z"/>
		</g>
	</g>
	<g display="inline">
		<path fill="#DD6344" d="M-152.655,112.953c-7.292,0-13.225-5.934-13.225-13.227c0-7.293,5.933-13.226,13.225-13.226
			c7.293,0,13.227,5.933,13.227,13.226C-139.429,107.02-145.362,112.953-152.655,112.953z"/>
	</g>
	<g display="inline">
		<path fill="#DD6344" d="M-192.655,70.953c-7.292,0-13.225-5.934-13.225-13.227c0-7.293,5.933-13.226,13.225-13.226
			c7.293,0,13.227,5.933,13.227,13.226C-179.429,65.02-185.362,70.953-192.655,70.953z"/>
	</g>
	<g display="inline">
		<path fill="#DD6344" d="M-152.655,58.953c-7.292,0-13.225-5.934-13.225-13.227c0-7.293,5.933-13.226,13.225-13.226
			c7.293,0,13.227,5.933,13.227,13.226C-139.429,53.02-145.362,58.953-152.655,58.953z"/>
	</g>
	<g display="inline">
		<path fill="#DD6344" d="M-112.655,70.953c-7.292,0-13.225-5.934-13.225-13.227c0-7.293,5.933-13.226,13.225-13.226
			c7.293,0,13.227,5.933,13.227,13.226C-99.429,65.02-105.362,70.953-112.655,70.953z"/>
	</g>
	<g display="inline">
		<path fill="#FFFFFF" d="M-152.655,86.45c7.334,0,13.276,5.948,13.276,13.276c0,7.332-5.942,13.277-13.276,13.277
			c-7.332,0-13.274-5.945-13.274-13.277C-165.929,92.397-159.987,86.45-152.655,86.45 M-152.655,83.054
			c-9.192,0-16.671,7.479-16.671,16.672c0,9.194,7.479,16.673,16.671,16.673c9.193,0,16.673-7.479,16.673-16.673
			C-135.982,90.533-143.462,83.054-152.655,83.054L-152.655,83.054z"/>
		<path fill="#FFFFFF" d="M-192.655,44.45c7.334,0,13.276,5.948,13.276,13.276c0,7.332-5.942,13.277-13.276,13.277
			c-7.332,0-13.274-5.945-13.274-13.277C-205.929,50.397-199.987,44.45-192.655,44.45 M-192.655,41.054
			c-9.192,0-16.671,7.479-16.671,16.672c0,9.194,7.479,16.673,16.671,16.673c9.193,0,16.673-7.479,16.673-16.673
			C-175.982,48.533-183.462,41.054-192.655,41.054L-192.655,41.054z"/>
		<path fill="#FFFFFF" d="M-152.655,32.45c7.334,0,13.276,5.948,13.276,13.276c0,7.332-5.942,13.277-13.276,13.277
			c-7.332,0-13.274-5.945-13.274-13.277C-165.929,38.397-159.987,32.45-152.655,32.45 M-152.655,29.054
			c-9.192,0-16.671,7.479-16.671,16.672c0,9.194,7.479,16.673,16.671,16.673c9.193,0,16.673-7.479,16.673-16.673
			C-135.982,36.533-143.462,29.054-152.655,29.054L-152.655,29.054z"/>
		<path fill="#FFFFFF" d="M-112.655,44.45c7.334,0,13.276,5.948,13.276,13.276c0,7.332-5.942,13.277-13.276,13.277
			c-7.332,0-13.274-5.945-13.274-13.277C-125.93,50.397-119.987,44.45-112.655,44.45 M-112.655,41.054
			c-9.192,0-16.671,7.479-16.671,16.672c0,9.194,7.479,16.673,16.671,16.673c9.193,0,16.673-7.479,16.673-16.673
			C-95.982,48.533-103.462,41.054-112.655,41.054L-112.655,41.054z"/>
	</g>
</g>
<g id="local">
	<g>
		<g>
			<path fill="#DD6344" d="M100.344,122.992c-12.244,0-22.205-9.964-22.205-22.209c0-12.246,9.961-22.208,22.205-22.208
				c12.246,0,22.209,9.963,22.209,22.208C122.553,113.028,112.59,122.992,100.344,122.992z"/>
		</g>
		<path fill="#D2C0AA" d="M161.11,50.037c0.03-0.75-0.222-1.471-0.746-1.745l-14.743-9.66c-1.04-0.549-2.225,0-2.225,0l-14.788,9.67
			c-0.519,0.286-0.728,1.007-0.692,1.749c-0.001,0.018,0.084,0.034,0.084,0.052v18.514c0,1.112,0.692,1.383,1.807,1.383h29.448
			c1.114,0,1.745-0.271,1.745-1.383V50.103C161,50.08,161.111,50.06,161.11,50.037z"/>
		<path fill="#FFFFFF" d="M109.959,97.854c0.018-0.422-0.176-0.828-0.471-0.982l-8.326-5.438c-0.585-0.31-1.266,0-1.266,0
			l-8.331,5.443c-0.292,0.161-0.521,0.566-0.501,0.984c0,0.01-0.064,0.02-0.064,0.029v10.423c0,0.626,0.606,0.687,1.233,0.687
			h16.578c0.628,0,1.188-0.061,1.188-0.687V97.891C110,97.878,109.96,97.867,109.959,97.854z"/>
		<path fill="#D2C0AA" d="M161.11,141.037c0.03-0.75-0.222-1.471-0.746-1.745l-14.743-9.659c-1.04-0.55-2.225,0-2.225,0
			l-14.788,9.67c-0.519,0.285-0.728,1.006-0.692,1.748c-0.001,0.018,0.084,0.035,0.084,0.053v18.514
			c0,1.111,0.692,1.383,1.807,1.383h29.448c1.114,0,1.745-0.271,1.745-1.383v-18.514C161,141.08,161.111,141.06,161.11,141.037z"/>
		<path fill="#D2C0AA" d="M72.11,141.037c0.03-0.75-0.222-1.471-0.746-1.745l-14.743-9.659c-1.04-0.55-2.225,0-2.225,0l-14.788,9.67
			c-0.519,0.285-0.728,1.006-0.692,1.748c-0.001,0.018,0.084,0.035,0.084,0.053v18.514c0,1.111,0.692,1.383,1.807,1.383h29.448
			c1.114,0,1.745-0.271,1.745-1.383v-18.514C72,141.08,72.111,141.06,72.11,141.037z"/>
		<path fill="#D2C0AA" d="M62.11,40.037c0.03-0.75-0.222-1.471-0.746-1.745l-14.743-9.659c-1.04-0.55-2.225,0-2.225,0l-14.788,9.67
			c-0.519,0.285-0.728,1.006-0.692,1.748C28.915,40.068,29,40.086,29,40.104v18.514C29,59.729,29.692,60,30.807,60h29.448
			C61.369,60,62,59.729,62,58.617V40.104C62,40.08,62.111,40.06,62.11,40.037z"/>
		
			<line fill="none" stroke="#D2C0AA" stroke-width="7" stroke-linecap="round" stroke-linejoin="round" stroke-miterlimit="10" x1="126.75" y1="86.5" x2="141.25" y2="77"/>
		
			<line fill="none" stroke="#D2C0AA" stroke-width="7" stroke-linecap="round" stroke-linejoin="round" stroke-miterlimit="10" x1="74.25" y1="86.5" x2="47.513" y2="68"/>
		
			<line fill="none" stroke="#D2C0AA" stroke-width="7" stroke-linecap="round" stroke-linejoin="round" stroke-miterlimit="10" x1="77.75" y1="122.75" x2="70" y2="128.389"/>
		
			<line fill="none" stroke="#D2C0AA" stroke-width="7" stroke-linecap="round" stroke-linejoin="round" stroke-miterlimit="10" x1="119.773" y1="122.75" x2="129.25" y2="129.389"/>
	</g>
</g>
<g id="guides">
</g>
</svg>
