<?xml version="1.0" encoding="utf-8"?>
<!-- Generator: Adobe Illustrator 16.0.0, SVG Export Plug-In . SVG Version: 6.00 Build 0)  -->
<!DOCTYPE svg PUBLIC "-//W3C//DTD SVG 1.1//EN" "http://www.w3.org/Graphics/SVG/1.1/DTD/svg11.dtd">
<svg version="1.1" xmlns="http://www.w3.org/2000/svg" xmlns:xlink="http://www.w3.org/1999/xlink" x="0px" y="0px" width="200px"
	 height="200px" viewBox="0 0 200 200" enable-background="new 0 0 200 200" xml:space="preserve">
<g id="global" display="none">
	<g display="inline">
		<path fill="#70C29F" d="M8.576,99.844c0,50.399,41,91.396,91.4,91.396c50.397,0,91.4-40.997,91.4-91.396
			c0-50.396-41.003-91.398-91.4-91.398C49.576,8.446,8.576,49.448,8.576,99.844z M185.093,99.844
			c0,46.935-38.182,85.116-85.116,85.116s-85.12-38.186-85.12-85.116c0-46.938,38.186-85.123,85.12-85.123
			S185.093,52.907,185.093,99.844z"/>
	</g>
	<path display="inline" fill="#DD6344" d="M112.83,23.164c-0.733,1.571-0.06,3.44,1.513,4.168
		c6.421,2.996,14.213,11.342,20.585,23.275c-9.702-3.56-20.438-5.813-31.818-6.17V25.015c0-1.736-1.401-3.143-3.138-3.143
		c-1.733,0-3.138,1.406-3.138,3.143v19.372c-10.261,0.293-20.22,2.039-29.377,4.782c6.286-9.913,13.922-17.553,21.528-21.965
		c1.005-0.577,1.566-1.63,1.566-2.716c0-0.536-0.135-1.072-0.422-1.571c-0.868-1.498-2.787-2.011-4.292-1.141
		c-9.948,5.758-19.944,16.528-27.366,30.499C40.41,59.375,26.641,70.25,21.773,80.68c-0.73,1.575-0.055,3.439,1.519,4.172
		c1.569,0.733,3.436,0.055,4.171-1.517c3.294-7.062,13.056-15.788,26.958-22.454c-4.445,10.71-7.311,22.857-7.719,35.821H25.145
		c-1.736,0-3.142,1.407-3.142,3.142c0,1.732,1.405,3.138,3.142,3.138h21.503c0.361,12.488,2.867,24.521,6.706,35.208
		c-13.328-6.592-22.68-15.048-25.891-21.928c-0.735-1.572-2.602-2.25-4.171-1.517c-1.571,0.733-2.252,2.603-1.519,4.174
		c4.714,10.104,17.788,20.613,35.011,27.718c7.032,15.433,16.774,27.018,26.161,31.4c1.571,0.733,3.44,0.056,4.176-1.516
		c0.73-1.57,0.052-3.44-1.519-4.173c-6.294-2.936-13.91-11.008-20.211-22.565c9.721,3.11,20.398,5.112,31.442,5.434v19.454
		c0,1.731,1.406,3.139,3.143,3.139c1.731,0,3.139-1.407,3.139-3.139v-19.51c10.993-0.348,21.392-2.46,30.837-5.817
		c-5.579,9.418-12.651,17.054-20.742,21.735c-1.502,0.871-2.011,2.786-1.146,4.288c0.871,1.503,2.79,2.016,4.289,1.146
		c11.121-6.437,20.397-17.421,26.884-30.943c16.079-7.567,28.465-18.594,34.805-29.551c0.288-0.494,0.431-1.031,0.431-1.566
		c0-1.086-0.563-2.139-1.571-2.717c-1.502-0.875-3.417-0.357-4.288,1.142c-4.933,8.524-13.943,17.071-25.646,23.728
		c3.755-10.375,5.959-21.817,6.299-33.623h21.543c1.731,0,3.137-1.406,3.137-3.138c0-1.735-1.405-3.142-3.137-3.142h-21.507
		c-0.344-11.869-2.629-23.315-6.152-33.604c11.612,6.637,20.555,15.139,25.464,23.622c0.871,1.499,2.786,2.011,4.288,1.146
		c1.008-0.586,1.571-1.64,1.571-2.721c0-0.536-0.143-1.076-0.431-1.571c-6.275-10.847-18.497-21.753-34.342-29.316
		c-7.072-16.033-17.067-28.117-26.701-32.611C115.427,20.91,113.563,21.593,112.83,23.164z M62.904,57.286
		c9.972-3.706,21.488-6.253,33.93-6.624v46.04H52.982C53.468,82.076,57.265,68.61,62.904,57.286z M61.511,141.777
		c-4.75-11.012-8.148-24.273-8.582-38.795h43.905v45.955C83.806,148.547,71.796,145.776,61.511,141.777z M138.326,140.93
		c-10.401,4.549-22.357,7.526-35.217,7.953v-45.9h43.87C146.559,116.455,143.447,129.584,138.326,140.93z M147.021,96.703h-43.906
		V50.717c13.077,0.431,25.23,3.504,35.743,8.182C143.393,69.714,146.6,82.617,147.021,96.703z"/>
</g>
<g id="regional" display="none">
	<g display="inline">
		<path fill="#D2C0AA" d="M178.041,83.57c-4.318-7.466-11.455-14.958-20.651-21.369c-0.579,2.074-1.549,3.982-2.827,5.647
			c8.013,5.72,14.245,12.3,18.05,18.873c0.872,1.498,2.786,2.011,4.289,1.141c1.007-0.582,1.571-1.635,1.571-2.721
			C178.473,84.61,178.33,84.069,178.041,83.57z"/>
		<path fill="#D2C0AA" d="M101.345,86.45c-1.586,0-3.1,0.292-4.509,0.803v7.579c2.996,1.114,5.25,1.872,6.278,1.872
			c0.001,0,0.001,0,0.001,0V86.581C102.534,86.504,101.946,86.45,101.345,86.45z"/>
		<path fill="#D2C0AA" d="M101.345,62.399c-1.564,0-3.073-0.232-4.509-0.637V83.69c1.437-0.405,2.945-0.637,4.509-0.637
			c0.598,0,1.188,0.035,1.77,0.097l0.001-20.848C102.533,62.364,101.943,62.399,101.345,62.399z"/>
		<path fill="#D2C0AA" d="M84.674,45.726c0-0.104,0.014-0.206,0.016-0.309c-3.513,0.489-6.965,1.129-10.33,1.916
			c1.346,1.681,2.369,3.626,2.986,5.746c2.734-0.596,5.542-1.091,8.417-1.48C85.07,49.768,84.674,47.795,84.674,45.726z"/>
		<path fill="#D2C0AA" d="M127.648,48.246c-3.128-0.886-6.353-1.621-9.646-2.216c-0.039,2.163-0.482,4.228-1.273,6.116
			c2.858,0.507,5.652,1.137,8.375,1.875C125.583,51.917,126.455,49.964,127.648,48.246z"/>
		<path fill="#D2C0AA" d="M143.699,54.258c-1.491-3.38-3.118-6.572-4.839-9.567c-2.154,0.408-4.121,1.337-5.771,2.651
			c0.622,1.058,1.238,2.138,1.838,3.261c-1.259-0.461-2.537-0.898-3.83-1.314c-1.331,1.615-2.284,3.552-2.734,5.673
			c3.648,1.129,7.154,2.451,10.494,3.937c1.574,3.754,2.98,7.767,4.173,11.986c2.153-0.273,4.147-1.056,5.851-2.233
			c-0.539-1.882-1.11-3.739-1.731-5.552c1.593,0.91,3.13,1.859,4.618,2.834c1.296-1.644,2.212-3.596,2.614-5.734
			C151.046,58.061,147.479,56.062,143.699,54.258z"/>
		<path fill="#D2C0AA" d="M70.652,48.266c-1.074,0.289-2.14,0.587-3.193,0.903c0.496-0.782,1.002-1.544,1.514-2.297
			c-1.724-1.214-3.748-2.024-5.941-2.303c-1.602,2.44-3.129,5.009-4.558,7.701c-3.647,1.435-7.108,3.029-10.367,4.736
			c-0.013,0.24-0.037,0.478-0.037,0.721c0,2.063,0.484,4.009,1.324,5.751c1.608-0.893,3.285-1.761,5.027-2.596
			c-0.852,2.054-1.63,4.173-2.359,6.328c1.521,1.49,3.398,2.615,5.494,3.238c1.491-4.64,3.297-9.043,5.349-13.161
			c3.525-1.312,7.251-2.467,11.135-3.442C73.387,51.704,72.207,49.796,70.652,48.266z"/>
		<path fill="#D2C0AA" d="M101.345,32.45c-1.586,0-3.1,0.292-4.509,0.803v11.129c-2.939,0.085-5.85,0.302-8.728,0.614
			c-0.013,0.243-0.037,0.483-0.037,0.73c0,1.947,0.429,3.791,1.182,5.457c2.488-0.253,5.01-0.444,7.583-0.521V58.2
			c1.41,0.51,2.923,0.803,4.509,0.803c0.602,0,1.189-0.054,1.771-0.131v-8.159c3.444,0.114,6.823,0.417,10.127,0.878
			c0.874-1.771,1.379-3.757,1.379-5.865c0-0.086-0.012-0.17-0.013-0.256c-3.748-0.548-7.582-0.91-11.498-1.033V32.581
			C102.531,32.503,101.945,32.45,101.345,32.45z"/>
		<path fill="#D2C0AA" d="M44.731,58.863c-11.168,6.43-19.419,14.235-22.956,21.817c-0.73,1.576-0.055,3.44,1.518,4.173
			c1.569,0.733,3.436,0.05,4.171-1.516c2.622-5.622,9.351-12.294,18.994-18.146C45.489,63.263,44.885,61.126,44.731,58.863z"/>
		<path fill="#D2C0AA" d="M50.942,70.734c-2.216,7.419-3.687,15.348-4.137,23.644c1.503,3.127,4.199,3.805,6.243,0.965
			c0.36-7.587,1.611-14.846,3.534-21.646C54.503,73.076,52.596,72.059,50.942,70.734z"/>
		<path fill="#D2C0AA" d="M114.342,27.333c5.25,2.449,11.415,8.476,16.971,17.109c1.687-1.277,3.618-2.237,5.717-2.801
			c-6.062-9.658-13.136-16.777-20.03-19.993c-1.571-0.742-3.437-0.055-4.169,1.511C112.098,24.735,112.771,26.599,114.342,27.333z"
			/>
		<path fill="#D2C0AA" d="M143.907,74.182c1.405,5.662,2.411,11.668,2.872,17.942c2.284,3.252,4.98,2.743,6.239-0.571
			c-0.512-6.716-1.633-13.253-3.214-19.485C148.022,73.124,146.032,73.852,143.907,74.182z"/>
		<path fill="#D2C0AA" d="M70.932,44.108c5.527-7.462,11.8-13.277,18.054-16.904c1.006-0.577,1.567-1.63,1.567-2.716
			c0-0.536-0.135-1.072-0.421-1.572c-0.868-1.502-2.788-2.01-4.292-1.14c-7.209,4.173-14.438,10.985-20.699,19.73
			C67.253,42.001,69.211,42.894,70.932,44.108z"/>
		<path fill="#D2C0AA" d="M101.345,29.054c0.597,0,1.185,0.035,1.766,0.096v-4.14c0-1.731-1.401-3.138-3.137-3.138
			c-1.733,0-3.138,1.407-3.138,3.138v4.681C98.272,29.286,99.78,29.054,101.345,29.054z"/>
	</g>
	<g display="inline">
		<g>
			<path fill="#70C29F" d="M8.578,99.841c0,50.397,41,91.399,91.399,91.399c50.396,0,91.399-41.002,91.399-91.399
				c0-50.397-41.003-91.396-91.399-91.396C49.578,8.446,8.578,49.444,8.578,99.841z M185.092,99.841
				c0,46.934-38.181,85.115-85.114,85.115s-85.119-38.181-85.119-85.115c0-46.935,38.185-85.12,85.119-85.12
				S185.092,52.906,185.092,99.841z"/>
		</g>
	</g>
	<g display="inline">
		<path fill="#DD6344" d="M101.345,112.953c-7.292,0-13.225-5.934-13.225-13.227c0-7.293,5.933-13.226,13.225-13.226
			c7.293,0,13.227,5.933,13.227,13.226C114.571,107.02,108.638,112.953,101.345,112.953z"/>
	</g>
	<g display="inline">
		<path fill="#DD6344" d="M61.345,70.953c-7.292,0-13.225-5.934-13.225-13.227c0-7.293,5.933-13.226,13.225-13.226
			c7.293,0,13.227,5.933,13.227,13.226C74.571,65.02,68.638,70.953,61.345,70.953z"/>
	</g>
	<g display="inline">
		<path fill="#DD6344" d="M101.345,58.953c-7.292,0-13.225-5.934-13.225-13.227c0-7.293,5.933-13.226,13.225-13.226
			c7.293,0,13.227,5.933,13.227,13.226C114.571,53.02,108.638,58.953,101.345,58.953z"/>
	</g>
	<g display="inline">
		<path fill="#DD6344" d="M141.345,70.953c-7.292,0-13.225-5.934-13.225-13.227c0-7.293,5.933-13.226,13.225-13.226
			c7.293,0,13.227,5.933,13.227,13.226C154.571,65.02,148.638,70.953,141.345,70.953z"/>
	</g>
</g>
<g id="local" display="none">
	<g display="inline">
		<g>
			<path fill="#D2C0AA" d="M100.344,122.992c-12.244,0-22.205-9.964-22.205-22.209c0-12.246,9.961-22.208,22.205-22.208
				c12.246,0,22.209,9.963,22.209,22.208C122.553,113.028,112.59,122.992,100.344,122.992z"/>
		</g>
		<path fill="#FFFFFF" d="M91,108.313c0,0.626,0.606,0.687,1.233,0.687h16.578c0.628,0,1.188-0.061,1.188-0.687v-10.46
			c0.018-0.422-0.217-0.828-0.512-0.982l-8.326-5.438c-0.585-0.31-1.266,0-1.266,0l-8.331,5.443
			c-0.292,0.161-0.585,0.566-0.565,0.984V108.313z"/>
		<path fill="#DD6344" d="M78,50.037c0.03-0.75-0.111-1.471-0.636-1.745l-14.743-9.659c-1.04-0.55-2.225,0-2.225,0l-14.746,9.67
			C45.132,48.588,45,49.309,45,50.051c0,0.018,0,18.566,0,18.566C45,69.729,45.692,70,46.807,70h29.448
			C77.369,70,78,69.729,78,68.617C78,68.617,78.001,50.06,78,50.037z"/>
		
			<line fill="none" stroke="#D2C0AA" stroke-width="7" stroke-linecap="round" stroke-linejoin="round" stroke-miterlimit="10" x1="126.75" y1="86.5" x2="137.25" y2="77"/>
		
			<line fill="none" stroke="#D2C0AA" stroke-width="7" stroke-linecap="round" stroke-linejoin="round" stroke-miterlimit="10" x1="74.25" y1="86.5" x2="63.513" y2="78"/>
		
			<line fill="none" stroke="#D2C0AA" stroke-width="7" stroke-linecap="round" stroke-linejoin="round" stroke-miterlimit="10" x1="77.75" y1="122.75" x2="75" y2="124.389"/>
		
			<line fill="none" stroke="#D2C0AA" stroke-width="7" stroke-linecap="round" stroke-linejoin="round" stroke-miterlimit="10" x1="119.773" y1="122.75" x2="121.25" y2="124.389"/>
	</g>
	<g display="inline">
		<g>
			<path fill="#70C29F" d="M8.578,99.841c0,50.397,41,91.399,91.399,91.399c50.396,0,91.399-41.002,91.399-91.399
				c0-50.397-41.003-91.396-91.399-91.396C49.578,8.446,8.578,49.444,8.578,99.841z M185.092,99.841
				c0,46.934-38.181,85.115-85.114,85.115s-85.119-38.181-85.119-85.115c0-46.935,38.185-85.12,85.119-85.12
				S185.092,52.906,185.092,99.841z"/>
		</g>
	</g>
	<path display="inline" fill="#DD6344" d="M158,50.037c0.03-0.75-0.111-1.471-0.636-1.745l-14.743-9.659c-1.04-0.55-2.225,0-2.225,0
		l-14.746,9.67c-0.519,0.285-0.65,1.006-0.65,1.748c0,0.018,0,18.566,0,18.566c0,1.111,0.692,1.383,1.807,1.383h29.448
		c1.114,0,1.745-0.271,1.745-1.383C158,68.617,158.001,50.06,158,50.037z"/>
	<path display="inline" fill="#DD6344" d="M153,136.037c0.03-0.75-0.111-1.471-0.636-1.745l-14.743-9.659
		c-1.04-0.55-2.225,0-2.225,0l-14.746,9.67c-0.519,0.285-0.65,1.006-0.65,1.748c0,0.018,0,18.566,0,18.566
		c0,1.111,0.692,1.383,1.807,1.383h29.448c1.114,0,1.745-0.271,1.745-1.383C153,154.617,153.001,136.06,153,136.037z"/>
	<path display="inline" fill="#DD6344" d="M77,135.655c0-0.661-0.098-1.296-0.561-1.538l-12.994-8.514c-0.917-0.484-1.96,0-1.96,0
		l-12.955,8.523c-0.457,0.251-0.531,0.887-0.531,1.54c0,0.016,0,16.364,0,16.364c0,0.979,0.525,0.969,1.507,0.969h25.955
		c0.982,0,1.538,0.011,1.538-0.969C77,152.031,77,135.675,77,135.655z"/>
</g>
<g id="Diagnose_Problems" display="none">
	<g display="inline">
		<g>
			<path fill="#70C29F" d="M8.578,99.841c0,50.397,41,91.399,91.399,91.399c50.396,0,91.399-41.002,91.399-91.399
				c0-50.397-41.003-91.396-91.399-91.396C49.578,8.446,8.578,49.444,8.578,99.841z M185.092,99.841
				c0,46.934-38.181,85.115-85.114,85.115s-85.119-38.181-85.119-85.115c0-46.935,38.185-85.12,85.119-85.12
				S185.092,52.906,185.092,99.841z"/>
		</g>
	</g>
	<g display="inline">
		<path fill="#D2C0AA" d="M39.175,133.128c-2.993,0-5.418-2.425-5.418-5.419v-22.754c0-2.991,2.426-5.419,5.418-5.419
			s5.418,2.428,5.418,5.419v22.754C44.594,130.703,42.168,133.128,39.175,133.128z"/>
		<path fill="#D2C0AA" d="M53.625,133.128c-2.993,0-5.418-2.425-5.418-5.419V95.202c0-2.994,2.426-5.418,5.418-5.418
			s5.418,2.424,5.418,5.418v32.507C59.043,130.703,56.617,133.128,53.625,133.128z"/>
		<path fill="#D2C0AA" d="M111.6,133.128c-2.993,0-5.419-2.425-5.419-5.419v-10.836c0-2.991,2.426-5.419,5.419-5.419
			c2.992,0,5.418,2.428,5.418,5.419v10.836C117.018,130.703,114.592,133.128,111.6,133.128z"/>
		<path fill="#D2C0AA" d="M68.071,133.128c-2.991,0-5.418-2.425-5.418-5.419v-54.18c0-2.994,2.427-5.418,5.418-5.418
			c2.994,0,5.418,2.424,5.418,5.418v54.18C73.489,130.703,71.065,133.128,68.071,133.128z"/>
		<path fill="#D2C0AA" d="M82.522,133.128c-2.994,0-5.418-2.425-5.418-5.419V95.202c0-2.994,2.424-5.418,5.418-5.418
			c2.991,0,5.418,2.424,5.418,5.418v32.507C87.94,130.703,85.513,133.128,82.522,133.128z"/>
		<path fill="#D2C0AA" d="M96.97,133.128c-2.991,0-5.418-2.425-5.418-5.419V84.366c0-2.994,2.427-5.418,5.418-5.418
			c2.994,0,5.418,2.424,5.418,5.418v43.343C102.388,130.703,99.964,133.128,96.97,133.128z"/>
		<g id="Your_Icon_5_">
			<g>
				<path fill="#DD6344" d="M114.441,71.709c-4.669,3.838-7.563,9.26-8.149,15.276c-0.589,6.014,1.199,11.896,5.036,16.564
					c3.836,4.671,9.262,7.562,15.277,8.147c3.557,0.349,7.062-0.152,10.305-1.405l16.625,20.23
					c2.509,3.045,7.008,3.483,10.058,0.981c1.521-1.252,2.394-3.007,2.571-4.826s-0.34-3.704-1.586-5.231l-16.629-20.224
					c1.854-2.942,3.025-6.282,3.374-9.84c0.586-6.013-1.203-11.896-5.041-16.566c-3.836-4.67-9.261-7.562-15.277-8.148
					C124.992,66.079,119.106,67.871,114.441,71.709z M141.845,90.457c-0.342,3.48-2.021,6.621-4.724,8.846
					c-2.702,2.222-6.107,3.256-9.589,2.913c-3.482-0.333-6.621-2.013-8.843-4.714c-2.222-2.705-3.256-6.11-2.916-9.59
					c0.339-3.484,2.013-6.625,4.715-8.846c2.705-2.222,6.11-3.256,9.593-2.917c3.483,0.339,6.621,2.016,8.846,4.714
					C141.145,83.568,142.182,86.974,141.845,90.457z"/>
			</g>
		</g>
	</g>
</g>
<g id="Motivate_Collaboration">
	<g>
		<g>
			<path fill="#70C29F" d="M8.578,99.841c0,50.397,41,91.399,91.399,91.399c50.396,0,91.399-41.002,91.399-91.399
				c0-50.397-41.003-91.396-91.399-91.396C49.578,8.446,8.578,49.444,8.578,99.841z M185.092,99.841
				c0,46.934-38.181,85.115-85.114,85.115s-85.119-38.181-85.119-85.115c0-46.935,38.185-85.12,85.119-85.12
				S185.092,52.906,185.092,99.841z"/>
		</g>
	</g>
	<g>
		<g>
			<g>
				<path fill="#D2C0AA" d="M69.637,118.021c4.188,0,7.585,3.396,7.585,7.584c0,4.195-3.397,7.588-7.585,7.588
					c-4.189,0-7.587-3.393-7.587-7.588C62.05,121.418,65.447,118.021,69.637,118.021z"/>
				<path fill="#D2C0AA" d="M69.637,135.723c-6.984,0-12.643,5.658-12.643,12.643v5.059h25.283v-5.059
					C82.277,141.381,76.619,135.723,69.637,135.723z"/>
			</g>
			<g>
				<path fill="#D2C0AA" d="M130.318,118.021c4.189,0,7.588,3.396,7.588,7.584c0,4.195-3.398,7.588-7.588,7.588
					c-4.188,0-7.584-3.393-7.584-7.588C122.734,121.418,126.131,118.021,130.318,118.021z"/>
				<path fill="#D2C0AA" d="M130.318,135.723c-6.982,0-12.641,5.658-12.641,12.643v5.059h25.283v-5.059
					C142.961,141.381,137.303,135.723,130.318,135.723z"/>
			</g>
			<g>
				<path fill="#D2C0AA" d="M99.978,118.021c4.188,0,7.585,3.396,7.585,7.584c0,4.195-3.396,7.588-7.585,7.588
					c-4.189,0-7.586-3.393-7.586-7.588C92.392,121.418,95.788,118.021,99.978,118.021z"/>
				<path fill="#D2C0AA" d="M99.978,135.723c-6.983,0-12.642,5.658-12.642,12.643v5.059h25.283v-5.059
					C112.619,141.381,106.961,135.723,99.978,135.723z"/>
			</g>
		</g>
		<g>
			<g>
				<path fill="#D2C0AA" d="M127.789,112.967c0.775,0,1.523-0.355,2.01-0.992c0.658-0.859,0.693-2.041,0.094-2.938
					c-0.039-0.064-3.553-5.395-4.432-11.242h4.857c4.182,0,7.586-3.402,7.586-7.584V53.85c0-4.185-3.404-7.587-7.586-7.587H69.637
					c-4.182,0-7.587,3.402-7.587,7.587V90.21c0,4.182,3.405,7.584,7.587,7.584h4.855c-0.883,5.828-4.395,11.184-4.434,11.244
					c-0.597,0.896-0.558,2.078,0.101,2.936c0.488,0.637,1.236,0.992,2.006,0.992c0.268,0,0.536-0.043,0.8-0.131
					c0.638-0.215,14.561-4.979,16.633-15.041h3.5l4.481,13.441c0.344,1.033,1.309,1.73,2.397,1.73c1.09,0,2.055-0.697,2.398-1.73
					l4.48-13.441h3.49c2.066,10.068,16.004,14.83,16.645,15.041C127.254,112.924,127.523,112.967,127.789,112.967z M115.146,95.267
					c0-1.398-1.133-2.528-2.527-2.528h-7.588c-1.088,0-2.051,0.696-2.396,1.729l-2.657,7.973l-2.656-7.973
					c-0.354-1.06-1.341-1.721-2.399-1.718v-0.011h-7.586c-1.396,0-2.529,1.129-2.529,2.528c0,4.046-3.467,7.37-7.056,9.657
					c1.085-2.811,2-6.21,2-9.657c0-1.398-1.133-2.528-2.528-2.528h-7.586c-1.394,0-2.527-1.132-2.527-2.528V53.85
					c0-1.396,1.135-2.531,2.527-2.531h60.684c1.393,0,2.529,1.135,2.529,2.531V90.21c0,1.396-1.137,2.528-2.529,2.528h-7.586
					c-1.395,0-2.529,1.129-2.529,2.528c0,3.436,0.914,6.823,1.992,9.636C118.729,102.721,115.146,99.452,115.146,95.267z"/>
			</g>
			<g>
				
					<path fill="#DD6344" stroke="#DD6344" stroke-width="2" stroke-linecap="round" stroke-linejoin="round" stroke-miterlimit="10" d="
					M108.204,69.316c0,3.183-1.26,5.238-3.779,6.167l5.03,7.104h-5.457l-4.404-6.337h-3.069v6.337h-4.433V62.724h7.53
					c3.087,0,5.29,0.521,6.607,1.562C107.546,65.329,108.204,67.005,108.204,69.316z M102.861,71.675
					c0.55-0.493,0.824-1.274,0.824-2.345c0-1.07-0.283-1.804-0.852-2.202s-1.563-0.597-2.984-0.597h-3.325v5.882h3.239
					C101.28,72.414,102.312,72.168,102.861,71.675z"/>
			</g>
		</g>
	</g>
</g>
<g id="Develop_Solutions" display="none">
	<g display="inline">
		<g>
			<path fill="#70C29F" d="M8.578,99.841c0,50.397,41,91.399,91.399,91.399c50.396,0,91.399-41.002,91.399-91.399
				c0-50.397-41.003-91.396-91.399-91.396C49.578,8.446,8.578,49.444,8.578,99.841z M185.092,99.841
				c0,46.934-38.181,85.115-85.114,85.115s-85.119-38.181-85.119-85.115c0-46.935,38.185-85.12,85.119-85.12
				S185.092,52.906,185.092,99.841z"/>
		</g>
	</g>
</g>
<g id="Learn__x26__Share" display="none">
	<g display="inline">
		<g>
			<path fill="#70C29F" d="M8.578,99.841c0,50.397,41,91.399,91.399,91.399c50.396,0,91.399-41.002,91.399-91.399
				c0-50.397-41.003-91.396-91.399-91.396C49.578,8.446,8.578,49.444,8.578,99.841z M185.092,99.841
				c0,46.934-38.181,85.115-85.114,85.115s-85.119-38.181-85.119-85.115c0-46.935,38.185-85.12,85.119-85.12
				S185.092,52.906,185.092,99.841z"/>
		</g>
	</g>
</g>
<g id="guides">
</g>
</svg>
