<?xml version="1.0" encoding="utf-8"?>
<!-- Generator: Adobe Illustrator 16.0.0, SVG Export Plug-In . SVG Version: 6.00 Build 0)  -->
<!DOCTYPE svg PUBLIC "-//W3C//DTD SVG 1.1//EN" "http://www.w3.org/Graphics/SVG/1.1/DTD/svg11.dtd">
<svg version="1.1" id="Layer_1" xmlns="http://www.w3.org/2000/svg" xmlns:xlink="http://www.w3.org/1999/xlink" x="0px" y="0px"
	 width="113.494px" height="133.367px" viewBox="0 0 113.494 133.367" enable-background="new 0 0 113.494 133.367"
	 xml:space="preserve">
<g>
	<path fill="#DD6344" d="M5,128.867c-0.276,0-0.5-0.224-0.5-0.5v-26.719c0-0.276,0.224-0.5,0.5-0.5h103.494
		c0.276,0,0.5,0.224,0.5,0.5v26.719c0,0.276-0.224,0.5-0.5,0.5H5z"/>
	<g>
		<path fill="#DD6344" d="M108.494,101.648v26.719H5v-26.719H108.494 M108.494,100.648H5c-0.552,0-1,0.447-1,1v26.719
			c0,0.553,0.448,1,1,1h103.494c0.553,0,1-0.447,1-1v-26.719C109.494,101.095,109.047,100.648,108.494,100.648L108.494,100.648z"/>
	</g>
</g>
<g>
	<path fill="#FFFFFF" d="M43.943,118.445c0.24,0,0.456-0.021,0.648-0.062c0.192-0.042,0.376-0.102,0.552-0.178l0.168-1.428h-0.744
		c-0.112,0-0.198-0.025-0.258-0.078c-0.06-0.052-0.09-0.122-0.09-0.21l0.132-1.128h2.916l-0.456,3.654
		c-0.224,0.164-0.456,0.305-0.696,0.423c-0.24,0.118-0.491,0.215-0.753,0.291c-0.262,0.076-0.538,0.132-0.828,0.168
		s-0.599,0.054-0.927,0.054c-0.54,0-1.033-0.099-1.479-0.297c-0.446-0.198-0.828-0.471-1.146-0.818
		c-0.318-0.349-0.564-0.761-0.738-1.236c-0.174-0.477-0.261-0.992-0.261-1.548c0-0.484,0.055-0.945,0.165-1.383
		c0.11-0.438,0.267-0.844,0.471-1.216s0.449-0.708,0.735-1.008s0.604-0.556,0.954-0.768s0.727-0.375,1.131-0.489
		c0.404-0.114,0.828-0.171,1.272-0.171c0.372,0,0.709,0.034,1.011,0.102c0.302,0.068,0.573,0.159,0.813,0.273
		c0.24,0.114,0.454,0.246,0.642,0.396c0.188,0.15,0.354,0.306,0.498,0.466l-0.636,0.785c-0.144,0.177-0.306,0.265-0.486,0.265
		c-0.108,0-0.218-0.036-0.33-0.108c-0.144-0.092-0.278-0.173-0.402-0.243c-0.124-0.069-0.249-0.128-0.375-0.174
		s-0.26-0.081-0.402-0.104c-0.142-0.024-0.301-0.036-0.477-0.036c-0.38,0-0.728,0.081-1.044,0.243
		c-0.316,0.161-0.588,0.39-0.816,0.684s-0.405,0.647-0.531,1.059c-0.126,0.412-0.189,0.866-0.189,1.362
		c0,0.384,0.047,0.729,0.141,1.035c0.094,0.306,0.227,0.563,0.399,0.774c0.172,0.21,0.378,0.371,0.618,0.482
		C43.386,118.39,43.651,118.445,43.943,118.445z"/>
	<path fill="#FFFFFF" d="M47.958,119.855l1.092-8.982h1.836l-1.092,8.982H47.958z"/>
	<path fill="#FFFFFF" d="M53.658,119.951c-0.348,0-0.673-0.058-0.975-0.174c-0.302-0.116-0.564-0.285-0.786-0.507
		s-0.396-0.496-0.522-0.822s-0.189-0.701-0.189-1.125c0-0.552,0.091-1.059,0.273-1.521s0.427-0.861,0.735-1.197
		s0.665-0.598,1.071-0.786c0.406-0.188,0.833-0.282,1.281-0.282c0.348,0,0.672,0.059,0.972,0.175c0.3,0.115,0.561,0.284,0.783,0.507
		c0.222,0.222,0.397,0.496,0.525,0.821c0.128,0.326,0.192,0.701,0.192,1.125c0,0.545-0.091,1.048-0.273,1.51
		c-0.182,0.462-0.427,0.861-0.735,1.199c-0.308,0.339-0.665,0.603-1.071,0.792C54.533,119.856,54.105,119.951,53.658,119.951z
		 M53.826,118.571c0.208,0,0.394-0.062,0.558-0.188s0.303-0.298,0.417-0.517c0.114-0.218,0.202-0.472,0.264-0.762
		s0.093-0.599,0.093-0.927c0-0.452-0.061-0.775-0.183-0.97c-0.122-0.193-0.321-0.291-0.597-0.291c-0.208,0-0.394,0.063-0.558,0.189
		s-0.303,0.297-0.417,0.513c-0.114,0.217-0.202,0.471-0.264,0.763s-0.093,0.602-0.093,0.93c0,0.444,0.061,0.765,0.183,0.963
		S53.549,118.571,53.826,118.571z"/>
	<path fill="#FFFFFF" d="M57.642,119.855l1.092-8.982h1.824l-0.462,3.738c0.276-0.336,0.577-0.599,0.903-0.789
		c0.326-0.189,0.671-0.285,1.035-0.285c0.256,0,0.49,0.045,0.702,0.136c0.212,0.09,0.395,0.23,0.549,0.423
		c0.154,0.191,0.274,0.437,0.36,0.734c0.086,0.299,0.129,0.653,0.129,1.065c0,0.544-0.083,1.061-0.249,1.551
		s-0.389,0.921-0.669,1.293c-0.28,0.372-0.603,0.667-0.969,0.885c-0.366,0.219-0.749,0.327-1.149,0.327
		c-0.308,0-0.579-0.059-0.813-0.177s-0.433-0.272-0.597-0.465l-0.018,0.06c-0.056,0.168-0.128,0.291-0.216,0.369
		s-0.232,0.117-0.432,0.117H57.642z M61.29,114.947c-0.132,0-0.269,0.05-0.411,0.15c-0.142,0.1-0.279,0.236-0.411,0.411
		c-0.132,0.174-0.255,0.378-0.369,0.611c-0.114,0.234-0.209,0.483-0.285,0.747l-0.18,1.452c0.116,0.096,0.246,0.164,0.39,0.204
		s0.282,0.06,0.414,0.06c0.216,0,0.415-0.071,0.597-0.216c0.182-0.144,0.339-0.333,0.471-0.566c0.132-0.234,0.235-0.501,0.309-0.802
		c0.074-0.3,0.111-0.605,0.111-0.918c0-0.396-0.058-0.684-0.174-0.863C61.636,115.037,61.482,114.947,61.29,114.947z"/>
	<path fill="#FFFFFF" d="M69.546,119.855H68.55c-0.116,0-0.213-0.015-0.291-0.045c-0.078-0.03-0.14-0.071-0.186-0.123
		c-0.046-0.052-0.078-0.114-0.096-0.186c-0.018-0.072-0.027-0.15-0.027-0.234v-0.444c-0.256,0.353-0.54,0.628-0.852,0.828
		s-0.656,0.3-1.032,0.3c-0.224,0-0.44-0.045-0.648-0.135s-0.392-0.226-0.552-0.408c-0.16-0.182-0.288-0.414-0.384-0.695
		c-0.096-0.282-0.144-0.615-0.144-0.999c0-0.564,0.103-1.1,0.309-1.605s0.494-0.949,0.864-1.329c0.37-0.38,0.809-0.682,1.317-0.906
		c0.508-0.224,1.066-0.336,1.674-0.336c0.296,0,0.596,0.021,0.9,0.061c0.304,0.04,0.604,0.112,0.9,0.216L69.546,119.855z
		 M66.81,118.481c0.136,0,0.268-0.051,0.396-0.153c0.128-0.102,0.249-0.24,0.363-0.417c0.114-0.176,0.219-0.382,0.315-0.617
		c0.096-0.236,0.178-0.488,0.246-0.757l0.216-1.722h-0.108c-0.304,0-0.581,0.068-0.831,0.204s-0.465,0.321-0.645,0.555
		c-0.18,0.234-0.319,0.506-0.417,0.816c-0.098,0.31-0.147,0.641-0.147,0.993c0,0.2,0.016,0.37,0.048,0.51
		c0.032,0.14,0.075,0.253,0.129,0.339c0.054,0.086,0.118,0.149,0.192,0.189C66.641,118.462,66.722,118.481,66.81,118.481z"/>
	<path fill="#FFFFFF" d="M70.949,119.855l1.092-8.982h1.836l-1.092,8.982H70.949z"/>
</g>
<g>
	<path fill="#70C29F" d="M14.998,43.97c0,21.488,17.481,38.969,38.971,38.969c21.488,0,38.971-17.48,38.971-38.969
		C92.939,22.482,75.457,5,53.969,5C32.479,5,14.998,22.482,14.998,43.97z M90.26,43.97c0,20.013-16.279,36.292-36.291,36.292
		S17.676,63.98,17.676,43.97c0-20.013,16.281-36.294,36.293-36.294S90.26,23.957,90.26,43.97z"/>
</g>
<path fill="#D2C0AA" d="M59.449,11.275c-0.312,0.67-0.025,1.467,0.645,1.777c2.738,1.277,6.061,4.836,8.777,9.924
	c-4.137-1.518-8.715-2.479-13.566-2.631v-8.281c0-0.74-0.598-1.34-1.338-1.34c-0.739,0-1.338,0.6-1.338,1.34v8.26
	c-4.375,0.125-8.621,0.869-12.525,2.039c2.68-4.227,5.936-7.484,9.179-9.365c0.429-0.246,0.668-0.695,0.668-1.158
	c0-0.229-0.058-0.457-0.18-0.67c-0.37-0.639-1.188-0.857-1.83-0.486c-4.242,2.455-8.504,7.047-11.668,13.004
	c-7.701,3.027-13.572,7.664-15.647,12.111c-0.312,0.672-0.023,1.467,0.647,1.779c0.669,0.312,1.465,0.023,1.778-0.646
	c1.404-3.012,5.566-6.732,11.494-9.574c-1.896,4.566-3.117,9.746-3.291,15.273h-9.191c-0.74,0-1.34,0.6-1.34,1.339
	s0.6,1.339,1.34,1.339h9.168c0.154,5.324,1.223,10.454,2.859,15.012c-5.683-2.811-9.67-6.416-11.039-9.35
	c-0.313-0.67-1.109-0.96-1.778-0.646c-0.67,0.312-0.96,1.109-0.647,1.779c2.01,4.309,7.584,8.789,14.928,11.818
	c2.998,6.58,7.152,11.519,11.154,13.388c0.67,0.312,1.467,0.023,1.78-0.646c0.312-0.67,0.022-1.467-0.647-1.779
	c-2.684-1.252-5.931-4.693-8.617-9.622c4.145,1.326,8.697,2.18,13.406,2.317v8.295c0,0.738,0.6,1.338,1.34,1.338
	c0.738,0,1.338-0.6,1.338-1.338v-8.318c4.688-0.148,9.121-1.049,13.148-2.48c-2.379,4.015-5.395,7.271-8.844,9.267
	c-0.641,0.371-0.857,1.188-0.488,1.828c0.371,0.641,1.189,0.859,1.828,0.488c4.742-2.744,8.697-7.428,11.463-13.194
	c6.855-3.226,12.137-7.928,14.84-12.599c0.123-0.211,0.184-0.44,0.184-0.668c0-0.463-0.24-0.912-0.67-1.159
	c-0.641-0.372-1.457-0.152-1.828,0.487c-2.104,3.635-5.945,7.278-10.936,10.117c1.602-4.424,2.541-9.303,2.686-14.336h9.186
	c0.738,0,1.338-0.6,1.338-1.339s-0.6-1.339-1.338-1.339h-9.17c-0.146-5.061-1.121-9.941-2.623-14.328
	c4.951,2.83,8.764,6.455,10.857,10.072c0.371,0.639,1.188,0.857,1.828,0.488c0.43-0.25,0.67-0.699,0.67-1.16
	c0-0.229-0.061-0.459-0.184-0.67c-2.676-4.625-7.887-9.275-14.643-12.5c-3.016-6.836-7.277-11.988-11.385-13.904
	C60.557,10.314,59.762,10.605,59.449,11.275z M38.162,25.824c4.252-1.58,9.162-2.666,14.467-2.824v19.631H33.932
	C34.139,36.395,35.758,30.652,38.162,25.824z M37.567,61.85c-2.024-4.695-3.474-10.35-3.658-16.542h18.72v19.595
	C47.074,64.736,41.953,63.554,37.567,61.85z M70.32,61.488c-4.436,1.938-9.533,3.209-15.016,3.391V45.308H74.01
	C73.83,51.053,72.504,56.65,70.32,61.488z M74.027,42.631H55.307V23.023c5.576,0.184,10.758,1.494,15.24,3.488
	C72.48,31.123,73.848,36.625,74.027,42.631z"/>
</svg>
