<?xml version="1.0" encoding="utf-8"?>
<!-- Generator: Adobe Illustrator 16.0.0, SVG Export Plug-In . SVG Version: 6.00 Build 0)  -->
<!DOCTYPE svg PUBLIC "-//W3C//DTD SVG 1.1//EN" "http://www.w3.org/Graphics/SVG/1.1/DTD/svg11.dtd">
<svg version="1.1" id="grand_challenge" xmlns="http://www.w3.org/2000/svg" xmlns:xlink="http://www.w3.org/1999/xlink" x="0px"
	 y="0px" width="200px" height="200px" viewBox="0 0 200 200" enable-background="new 0 0 200 200" xml:space="preserve">
<g>
	<g>
		<g>
			<g>
				<path fill="#70C29F" d="M8.578,99.841c0,50.397,41,91.399,91.399,91.399c50.396,0,91.399-41.002,91.399-91.399
					c0-50.397-41.003-91.396-91.399-91.396C49.578,8.446,8.578,49.444,8.578,99.841z M185.092,99.841
					c0,46.934-38.181,85.115-85.114,85.115s-85.119-38.181-85.119-85.115c0-46.935,38.185-85.12,85.119-85.12
					S185.092,52.906,185.092,99.841z"/>
			</g>
		</g>
	</g>
	<polygon fill="#D2C0AA" points="35.06,123.652 25.711,114.304 59.366,114.304 59.366,133.001 25.711,133.001 	"/>
	<polygon fill="#D2C0AA" points="165.939,123.652 175.288,114.304 141.634,114.304 141.634,133.001 175.288,133.001 	"/>
	<g>
		<rect x="63.106" y="104.955" fill="#DD6344" width="74.789" height="55.712"/>
		<g>
			<path fill="#FFFFFF" d="M88.291,125.205h1.884v2.977c-0.832,0.928-1.984,1.393-3.456,1.393c-1.232,0-2.266-0.408-3.102-1.225
				c-0.836-0.816-1.254-1.846-1.254-3.09s0.426-2.281,1.278-3.113s1.88-1.248,3.084-1.248s2.25,0.396,3.138,1.188l-0.972,1.404
				c-0.376-0.328-0.722-0.555-1.038-0.678c-0.316-0.125-0.658-0.186-1.026-0.186c-0.712,0-1.312,0.24-1.8,0.725
				c-0.488,0.484-0.732,1.123-0.732,1.914c0,0.793,0.234,1.426,0.702,1.902c0.468,0.477,1.026,0.715,1.674,0.715
				s1.188-0.125,1.62-0.373V125.205z"/>
			<path fill="#FFFFFF" d="M95.239,124.605c-0.536,0-0.936,0.191-1.2,0.57c-0.264,0.381-0.396,0.883-0.396,1.506v2.797h-1.8v-6.457
				h1.8v0.854c0.232-0.266,0.522-0.488,0.87-0.674c0.348-0.184,0.702-0.279,1.062-0.287l0.012,1.691H95.239z"/>
			<path fill="#FFFFFF" d="M102.379,129.479h-1.692v-0.781c-0.464,0.584-1.038,0.877-1.722,0.877s-1.258-0.197-1.722-0.594
				c-0.464-0.396-0.696-0.924-0.696-1.584s0.24-1.154,0.72-1.482s1.136-0.492,1.968-0.492h1.344v-0.035
				c0-0.689-0.364-1.033-1.092-1.033c-0.312,0-0.642,0.062-0.99,0.186c-0.348,0.125-0.642,0.279-0.882,0.463l-0.804-1.164
				c0.848-0.615,1.816-0.924,2.904-0.924c0.784,0,1.424,0.195,1.92,0.588s0.744,1.012,0.744,1.859V129.479z M100.566,127.018v-0.312
				h-1.128c-0.72,0-1.08,0.225-1.08,0.674c0,0.23,0.086,0.41,0.258,0.533c0.172,0.125,0.417,0.186,0.738,0.186
				c0.32,0,0.602-0.098,0.846-0.293C100.444,127.607,100.566,127.346,100.566,127.018z"/>
			<path fill="#FFFFFF" d="M106.002,125.879v3.6h-1.799v-6.457h1.799v0.721c0.545-0.553,1.156-0.828,1.836-0.828
				c0.681,0,1.25,0.24,1.711,0.721c0.459,0.479,0.689,1.119,0.689,1.92v3.924h-1.8v-3.648c0-0.992-0.364-1.488-1.092-1.488
				c-0.36,0-0.675,0.131-0.942,0.391S106.002,125.375,106.002,125.879z"/>
			<path fill="#FFFFFF" d="M114.637,129.574c-0.764,0-1.445-0.324-2.046-0.973s-0.899-1.451-0.899-2.412
				c0-0.959,0.291-1.746,0.875-2.357s1.268-0.918,2.053-0.918c0.783,0,1.424,0.275,1.92,0.828v-3.168h1.8v8.904h-1.8v-0.852
				C116.035,129.258,115.4,129.574,114.637,129.574z M113.503,126.262c0,0.52,0.155,0.947,0.468,1.277
				c0.312,0.334,0.676,0.498,1.092,0.498s0.77-0.164,1.062-0.498c0.291-0.33,0.438-0.76,0.438-1.283s-0.146-0.959-0.438-1.309
				c-0.293-0.348-0.65-0.521-1.074-0.521s-0.788,0.176-1.092,0.527C113.654,125.307,113.503,125.742,113.503,126.262z"/>
			<path fill="#FFFFFF" d="M74.119,142.822c0.92,0,1.672-0.363,2.256-1.092l1.2,1.236c-0.952,1.072-2.074,1.607-3.366,1.607
				s-2.356-0.408-3.192-1.225c-0.836-0.816-1.254-1.846-1.254-3.09s0.426-2.281,1.278-3.113s1.894-1.248,3.126-1.248
				c1.376,0,2.528,0.523,3.456,1.572l-1.164,1.318c-0.592-0.734-1.328-1.104-2.208-1.104c-0.704,0-1.306,0.23-1.806,0.691
				c-0.5,0.459-0.75,1.078-0.75,1.859c0,0.779,0.236,1.406,0.708,1.877C72.875,142.586,73.447,142.822,74.119,142.822z"/>
			<path fill="#FFFFFF" d="M80.851,140.998v3.48h-1.8v-8.904h1.8v3.168c0.544-0.553,1.154-0.828,1.83-0.828
				c0.676,0,1.246,0.24,1.71,0.721c0.464,0.479,0.696,1.119,0.696,1.92v3.924h-1.8v-3.529c0-0.99-0.364-1.486-1.092-1.486
				c-0.36,0-0.674,0.129-0.942,0.389C80.985,140.111,80.851,140.494,80.851,140.998z"/>
			<path fill="#FFFFFF" d="M92.383,144.479h-1.692v-0.781c-0.464,0.584-1.038,0.877-1.722,0.877s-1.258-0.197-1.722-0.594
				c-0.464-0.396-0.696-0.924-0.696-1.584s0.24-1.154,0.72-1.482s1.136-0.492,1.968-0.492h1.344v-0.035
				c0-0.689-0.364-1.033-1.092-1.033c-0.312,0-0.642,0.062-0.99,0.186c-0.348,0.125-0.642,0.279-0.882,0.463l-0.804-1.164
				c0.848-0.615,1.816-0.924,2.904-0.924c0.784,0,1.424,0.195,1.92,0.588s0.744,1.012,0.744,1.859V144.479z M90.571,142.018v-0.312
				h-1.128c-0.72,0-1.08,0.225-1.08,0.674c0,0.23,0.086,0.41,0.258,0.533c0.172,0.125,0.417,0.186,0.738,0.186
				c0.32,0,0.602-0.098,0.846-0.293C90.449,142.607,90.571,142.346,90.571,142.018z"/>
			<path fill="#FFFFFF" d="M96.007,144.479h-1.8v-8.904h1.8V144.479z"/>
			<path fill="#FFFFFF" d="M99.691,144.479h-1.8v-8.904h1.8V144.479z"/>
			<path fill="#FFFFFF" d="M107.166,143.543c-0.728,0.688-1.582,1.031-2.562,1.031s-1.79-0.303-2.43-0.906s-0.96-1.414-0.96-2.43
				s0.326-1.824,0.979-2.424c0.651-0.6,1.422-0.9,2.309-0.9c0.889,0,1.643,0.268,2.263,0.805c0.62,0.535,0.931,1.271,0.931,2.207
				v0.961h-4.705c0.057,0.352,0.24,0.639,0.553,0.863c0.312,0.225,0.664,0.336,1.056,0.336c0.632,0,1.151-0.211,1.56-0.637
				L107.166,143.543z M105.438,139.715c-0.248-0.209-0.55-0.312-0.905-0.312c-0.356,0-0.683,0.107-0.979,0.324
				c-0.296,0.215-0.469,0.508-0.516,0.875h2.832C105.83,140.219,105.687,139.922,105.438,139.715z"/>
			<path fill="#FFFFFF" d="M110.971,140.879v3.6h-1.8v-6.457h1.8v0.721c0.544-0.553,1.156-0.828,1.836-0.828s1.25,0.24,1.711,0.721
				c0.459,0.479,0.689,1.119,0.689,1.92v3.924h-1.801v-3.648c0-0.992-0.363-1.488-1.092-1.488c-0.359,0-0.674,0.131-0.941,0.391
				C111.104,139.992,110.971,140.375,110.971,140.879z"/>
			<path fill="#FFFFFF" d="M121.795,143.387c-0.568,0.631-1.274,0.947-2.119,0.947c-0.844,0-1.555-0.285-2.135-0.857
				s-0.871-1.336-0.871-2.293c0-0.955,0.299-1.74,0.895-2.352s1.277-0.918,2.046-0.918s1.404,0.316,1.908,0.947v-0.852h1.8v5.629
				c0,0.576-0.1,1.088-0.3,1.535s-0.468,0.801-0.804,1.057c-0.664,0.527-1.448,0.791-2.353,0.791c-0.479,0-0.97-0.078-1.47-0.234
				c-0.5-0.154-0.938-0.377-1.314-0.666l0.696-1.355c0.592,0.449,1.218,0.672,1.878,0.672s1.182-0.164,1.566-0.492
				C121.603,144.617,121.795,144.098,121.795,143.387z M121.543,141.111c0-0.516-0.145-0.922-0.433-1.217
				c-0.288-0.297-0.644-0.445-1.067-0.445c-0.425,0-0.791,0.148-1.099,0.445c-0.308,0.295-0.462,0.699-0.462,1.211
				s0.15,0.926,0.45,1.242s0.666,0.475,1.098,0.475c0.433,0,0.792-0.156,1.08-0.469
				C121.398,142.043,121.543,141.629,121.543,141.111z"/>
			<path fill="#FFFFFF" d="M130.795,143.543c-0.729,0.688-1.582,1.031-2.562,1.031s-1.79-0.303-2.43-0.906
				c-0.641-0.604-0.96-1.414-0.96-2.43s0.325-1.824,0.978-2.424s1.422-0.9,2.311-0.9c0.888,0,1.642,0.268,2.262,0.805
				c0.62,0.535,0.93,1.271,0.93,2.207v0.961h-4.703c0.055,0.352,0.239,0.639,0.551,0.863c0.312,0.225,0.664,0.336,1.057,0.336
				c0.632,0,1.152-0.211,1.561-0.637L130.795,143.543z M129.066,139.715c-0.248-0.209-0.55-0.312-0.906-0.312
				c-0.355,0-0.682,0.107-0.978,0.324c-0.296,0.215-0.468,0.508-0.517,0.875h2.832C129.459,140.219,129.314,139.922,129.066,139.715
				z"/>
		</g>
	</g>
	<g>
		<path fill="#D2C0AA" d="M100.5,54.636c2.822,0,5.12-2.296,5.12-5.12s-2.298-5.12-5.12-5.12s-5.12,2.296-5.12,5.12
			S97.678,54.636,100.5,54.636z M99.896,45.903c0-0.333,0.27-0.603,0.604-0.603c0.333,0,0.603,0.269,0.603,0.603v2.16l1.38-1.38
			c0.109-0.109,0.259-0.178,0.427-0.178c0.333,0,0.602,0.27,0.602,0.603c0,0.167-0.067,0.317-0.177,0.427l-2.408,2.407
			c-0.109,0.109-0.26,0.177-0.426,0.177c-0.334,0-0.604-0.269-0.604-0.602V45.903z"/>
		<path fill="#D2C0AA" d="M132.095,63.822l2.06-1.764l-2.23-1.538l1.862-1.972l-2.381-1.296l1.647-2.153l-2.502-1.042l1.414-2.313
			l-2.602-0.774l1.165-2.448l-2.668-0.499l0.903-2.558l-2.702-0.215l0.628-2.639l-2.712,0.067l0.353-2.688l-2.687,0.351l0.064-2.711
			l-2.635,0.63l-0.22-2.704l-2.555,0.904l-0.498-2.666l-2.45,1.165l-0.774-2.6l-2.312,1.417l-1.043-2.505l-2.152,1.647l-1.3-2.381
			l-1.969,1.866l-1.537-2.235l-1.764,2.06l-1.764-2.06l-1.541,2.231l-1.968-1.866l-1.296,2.383l-2.155-1.647l-1.041,2.503
			l-2.315-1.415l-0.774,2.602l-2.45-1.168l-0.497,2.667l-2.556-0.904l-0.219,2.704l-2.637-0.63l0.07,2.713l-2.69-0.353l0.353,2.689
			l-2.713-0.069l0.63,2.637l-2.704,0.219l0.902,2.556l-2.666,0.497l1.165,2.45l-2.6,0.774l1.415,2.315l-2.503,1.041l1.647,2.155
			l-2.381,1.296l1.866,1.968l-2.231,1.541l2.06,1.764l-2.06,1.764l2.231,1.538l-1.866,1.972l2.385,1.296l-1.649,2.153l2.503,1.042
			L69.035,75.9l2.602,0.774l-1.168,2.448l2.666,0.499l-0.902,2.558l2.704,0.215l-0.63,2.639l2.713-0.068l-0.353,2.688l2.69-0.351
			l-0.07,2.711l2.637-0.63l0.219,2.704l2.556-0.904l0.497,2.666l2.45-1.165l0.774,2.6l2.315-1.417l1.041,2.505l2.155-1.647
			l1.296,2.381l1.968-1.866l1.541,2.235l1.764-2.06l1.764,2.06l1.537-2.231l1.969,1.866l1.3-2.383l2.152,1.647l1.043-2.503
			l2.312,1.415l0.774-2.602l2.45,1.168l0.498-2.667l2.555,0.904l0.22-2.704l2.635,0.63l-0.064-2.713l2.687,0.353l-0.353-2.69
			l2.712,0.07l-0.628-2.637l2.702-0.219l-0.903-2.556l2.668-0.497l-1.165-2.451l2.602-0.774l-1.414-2.315l2.502-1.041l-1.647-2.155
			l2.381-1.296l-1.862-1.968l2.23-1.541L132.095,63.822z M110.138,57.648c1.497,0,2.71,1.213,2.71,2.71
			c0,1.497-1.213,2.71-2.71,2.71s-2.711-1.214-2.711-2.71C107.427,58.861,108.641,57.648,110.138,57.648z M100.5,43.192
			c3.487,0,6.324,2.837,6.324,6.324s-2.837,6.325-6.324,6.325s-6.324-2.837-6.324-6.324C94.176,46.03,97.013,43.192,100.5,43.192z
			 M102.307,67.586c0-0.333,0.27-0.603,0.603-0.603c0.267,0,0.484,0.174,0.564,0.414l0.007-0.002l1.067,3.202h3.181
			c0.333,0,0.602,0.269,0.602,0.603c0,0.333-0.27,0.602-0.603,0.602h-4.048l-1.343-4.025l0.008-0.002
			C102.324,67.715,102.307,67.653,102.307,67.586z M98.662,67.777l-1.342,4.025h-4.049c-0.333,0-0.603-0.269-0.603-0.602
			c0-0.333,0.27-0.603,0.603-0.603h3.181l1.066-3.202l0.008,0.002c0.08-0.239,0.298-0.414,0.563-0.414
			c0.334,0,0.604,0.269,0.604,0.603c0,0.066-0.018,0.128-0.039,0.188L98.662,67.777z M90.862,57.648c1.498,0,2.711,1.213,2.711,2.71
			c0,1.497-1.213,2.71-2.711,2.71c-1.496,0-2.71-1.214-2.71-2.71C88.152,58.861,89.366,57.648,90.862,57.648z M88.453,69.394
			c-0.471,0-0.875-0.273-1.073-0.668l-0.004,0.002l-1.85-2.856c-2.033,1.737-2.801,4.539-3.02,7.137h5.344
			c0.998,0,1.808,0.809,1.808,1.807v7.83c0,0.998-0.809,1.807-1.807,1.807s-1.808-0.809-1.808-1.807v-6.023h-5.421
			c-0.998,0-1.807-0.809-1.807-1.807c0-6.353,2.279-10.991,6.42-13.061l0.003,0.006c0.243-0.122,0.515-0.197,0.805-0.197
			c0.81,0,1.486,0.536,1.716,1.268l0.009-0.003l1.52,4.157h5.188c0.665,0,1.205,0.54,1.205,1.205c0,0.666-0.539,1.205-1.205,1.205
			H88.453z M108.331,76.621h-2.41H95.079h-2.41v-3.614h15.662V76.621z M120.377,76.621h-5.422v6.022
			c0,0.999-0.808,1.808-1.807,1.808c-0.998,0-1.807-0.809-1.807-1.808v-7.83c0-0.998,0.809-1.807,1.807-1.807h5.346
			c-0.22-2.598-0.986-5.399-3.02-7.137l-1.85,2.857l-0.005-0.002c-0.198,0.395-0.603,0.668-1.074,0.668h-6.022
			c-0.665,0-1.205-0.54-1.205-1.205c0-0.665,0.54-1.204,1.205-1.204h5.188l1.52-4.157l0.009,0.003
			c0.229-0.733,0.907-1.268,1.715-1.268c0.291,0,0.562,0.076,0.806,0.197l0.003-0.006c4.141,2.07,6.42,6.708,6.42,13.061
			C122.184,75.812,121.375,76.621,120.377,76.621z"/>
		<circle fill="#FFFFFF" cx="90.862" cy="60.358" r="2.71"/>
		<circle fill="#FFFFFF" cx="110.138" cy="60.358" r="2.71"/>
		<g>
			<path fill="#D2C0AA" d="M100.5,44.397c-2.822,0-5.12,2.296-5.12,5.12s2.298,5.12,5.12,5.12s5.12-2.296,5.12-5.12
				S103.322,44.397,100.5,44.397z M103.334,47.534l-2.408,2.407c-0.109,0.109-0.26,0.177-0.426,0.177
				c-0.334,0-0.604-0.269-0.604-0.602v-3.614c0-0.333,0.27-0.603,0.604-0.603c0.333,0,0.603,0.269,0.603,0.603v2.16l1.807-1.558
				c0.333,0,0.602,0.27,0.602,0.603C103.511,47.274,103.443,47.425,103.334,47.534z"/>
		</g>
	</g>
</g>
</svg>
