<?xml version="1.0" encoding="utf-8"?>
<!-- Generator: Adobe Illustrator 16.0.0, SVG Export Plug-In . SVG Version: 6.00 Build 0)  -->
<!DOCTYPE svg PUBLIC "-//W3C//DTD SVG 1.1//EN" "http://www.w3.org/Graphics/SVG/1.1/DTD/svg11.dtd">
<svg version="1.1" id="Layer_1" xmlns="http://www.w3.org/2000/svg" xmlns:xlink="http://www.w3.org/1999/xlink" x="0px" y="0px"
	 width="200px" height="200px" viewBox="0 0 200 200" enable-background="new 0 0 200 200" xml:space="preserve">
<g id="global" display="none">
	<g display="inline">
		<path fill="#70C29F" d="M8.576,99.844c0,50.399,41,91.396,91.4,91.396c50.397,0,91.4-40.997,91.4-91.396
			c0-50.396-41.003-91.398-91.4-91.398C49.576,8.446,8.576,49.448,8.576,99.844z M185.093,99.844
			c0,46.936-38.182,85.116-85.116,85.116s-85.12-38.187-85.12-85.116c0-46.938,38.186-85.123,85.12-85.123
			S185.093,52.907,185.093,99.844z"/>
	</g>
	<path display="inline" fill="#DD6344" d="M112.83,23.164c-0.732,1.571-0.061,3.44,1.513,4.168
		c6.421,2.996,14.214,11.342,20.585,23.275c-9.701-3.56-20.438-5.813-31.818-6.17V25.015c0-1.736-1.4-3.143-3.137-3.143
		c-1.733,0-3.138,1.406-3.138,3.143v19.372c-10.261,0.293-20.22,2.039-29.377,4.782c6.286-9.913,13.922-17.553,21.528-21.965
		c1.005-0.577,1.566-1.63,1.566-2.716c0-0.536-0.135-1.072-0.422-1.571c-0.868-1.498-2.787-2.011-4.292-1.141
		c-9.948,5.758-19.944,16.528-27.366,30.499c-18.061,7.1-31.83,17.975-36.698,28.405c-0.73,1.575-0.055,3.439,1.519,4.172
		c1.569,0.733,3.436,0.055,4.171-1.517c3.294-7.062,13.056-15.788,26.958-22.454c-4.445,10.71-7.311,22.857-7.719,35.821H25.145
		c-1.736,0-3.142,1.407-3.142,3.142c0,1.732,1.405,3.139,3.142,3.139h21.503c0.361,12.487,2.867,24.521,6.706,35.207
		c-13.328-6.592-22.68-15.047-25.891-21.928c-0.735-1.572-2.602-2.25-4.171-1.517c-1.571,0.733-2.252,2.603-1.519,4.174
		c4.714,10.104,17.788,20.613,35.011,27.718c7.032,15.434,16.774,27.019,26.161,31.4c1.571,0.732,3.44,0.056,4.176-1.516
		c0.73-1.57,0.052-3.44-1.519-4.174c-6.294-2.936-13.91-11.008-20.211-22.564c9.721,3.109,20.398,5.111,31.442,5.434v19.454
		c0,1.731,1.406,3.14,3.143,3.14c1.731,0,3.139-1.408,3.139-3.14v-19.51c10.992-0.349,21.392-2.46,30.837-5.817
		c-5.579,9.418-12.651,17.055-20.742,21.735c-1.502,0.871-2.011,2.786-1.146,4.288c0.871,1.503,2.789,2.016,4.289,1.146
		c11.121-6.438,20.396-17.422,26.883-30.943c16.08-7.567,28.466-18.594,34.806-29.551c0.288-0.494,0.431-1.031,0.431-1.566
		c0-1.086-0.562-2.139-1.57-2.717c-1.502-0.875-3.418-0.357-4.289,1.142c-4.932,8.524-13.942,17.071-25.646,23.728
		c3.755-10.375,5.959-21.816,6.3-33.623h21.543c1.73,0,3.137-1.405,3.137-3.138c0-1.735-1.405-3.142-3.137-3.142h-21.508
		c-0.344-11.869-2.629-23.315-6.152-33.604c11.613,6.637,20.556,15.139,25.465,23.622c0.871,1.499,2.785,2.011,4.287,1.146
		c1.009-0.586,1.572-1.64,1.572-2.721c0-0.536-0.144-1.076-0.432-1.571c-6.275-10.847-18.497-21.753-34.342-29.316
		C136.629,38.226,126.634,26.142,117,21.648C115.427,20.91,113.562,21.593,112.83,23.164z M62.904,57.286
		c9.972-3.706,21.488-6.253,33.93-6.624v46.04H52.982C53.468,82.076,57.265,68.61,62.904,57.286z M61.511,141.777
		c-4.75-11.012-8.148-24.273-8.582-38.795h43.905v45.955C83.806,148.547,71.796,145.775,61.511,141.777z M138.326,140.93
		c-10.401,4.549-22.357,7.526-35.217,7.953v-45.9h43.869C146.559,116.455,143.447,129.584,138.326,140.93z M147.021,96.703h-43.906
		V50.717c13.076,0.431,25.23,3.504,35.742,8.182C143.393,69.714,146.6,82.617,147.021,96.703z"/>
</g>
<g id="regional" display="none">
	<g display="inline">
		<path fill="#D2C0AA" d="M178.041,83.57c-4.318-7.466-11.455-14.958-20.65-21.369c-0.58,2.074-1.55,3.982-2.828,5.647
			c8.014,5.72,14.246,12.3,18.051,18.873c0.871,1.498,2.785,2.011,4.289,1.141c1.007-0.582,1.57-1.635,1.57-2.721
			C178.473,84.61,178.33,84.069,178.041,83.57z"/>
		<path fill="#D2C0AA" d="M101.346,86.45c-1.587,0-3.101,0.292-4.51,0.803v7.579c2.996,1.114,5.25,1.872,6.277,1.872
			c0.002,0,0.002,0,0.002,0V86.581C102.534,86.504,101.945,86.45,101.346,86.45z"/>
		<path fill="#D2C0AA" d="M101.346,62.399c-1.564,0-3.074-0.232-4.51-0.637V83.69c1.437-0.405,2.945-0.637,4.51-0.637
			c0.598,0,1.188,0.035,1.77,0.097l0.001-20.848C102.533,62.364,101.943,62.399,101.346,62.399z"/>
		<path fill="#D2C0AA" d="M84.674,45.726c0-0.104,0.014-0.206,0.016-0.309c-3.513,0.489-6.965,1.129-10.33,1.916
			c1.346,1.681,2.369,3.626,2.986,5.746c2.734-0.596,5.542-1.091,8.417-1.48C85.07,49.768,84.674,47.795,84.674,45.726z"/>
		<path fill="#D2C0AA" d="M127.648,48.246c-3.129-0.886-6.354-1.621-9.646-2.216c-0.039,2.163-0.482,4.228-1.273,6.116
			c2.858,0.507,5.652,1.137,8.375,1.875C125.583,51.917,126.455,49.964,127.648,48.246z"/>
		<path fill="#D2C0AA" d="M143.699,54.258c-1.491-3.38-3.118-6.572-4.84-9.567c-2.153,0.408-4.121,1.337-5.771,2.651
			c0.622,1.058,1.238,2.138,1.838,3.261c-1.259-0.461-2.536-0.898-3.829-1.314c-1.332,1.615-2.285,3.552-2.734,5.673
			c3.648,1.129,7.154,2.451,10.494,3.937c1.574,3.754,2.979,7.767,4.172,11.986c2.154-0.273,4.148-1.056,5.852-2.233
			c-0.539-1.882-1.109-3.739-1.73-5.552c1.593,0.91,3.129,1.859,4.617,2.834c1.297-1.644,2.213-3.596,2.614-5.734
			C151.046,58.061,147.479,56.062,143.699,54.258z"/>
		<path fill="#D2C0AA" d="M70.652,48.266c-1.074,0.289-2.14,0.587-3.193,0.903c0.496-0.782,1.002-1.544,1.514-2.297
			c-1.724-1.214-3.748-2.024-5.941-2.303c-1.602,2.44-3.129,5.009-4.558,7.701c-3.647,1.435-7.108,3.029-10.367,4.736
			c-0.013,0.24-0.037,0.478-0.037,0.721c0,2.063,0.484,4.009,1.324,5.751c1.608-0.893,3.285-1.761,5.027-2.596
			c-0.852,2.054-1.63,4.173-2.359,6.328c1.521,1.49,3.398,2.615,5.494,3.238c1.491-4.64,3.297-9.043,5.349-13.161
			c3.525-1.312,7.251-2.467,11.135-3.442C73.387,51.704,72.207,49.796,70.652,48.266z"/>
		<path fill="#D2C0AA" d="M101.346,32.45c-1.587,0-3.101,0.292-4.51,0.803v11.129c-2.939,0.085-5.85,0.302-8.728,0.614
			c-0.013,0.243-0.037,0.483-0.037,0.73c0,1.947,0.429,3.791,1.182,5.457c2.488-0.253,5.01-0.444,7.583-0.521V58.2
			c1.41,0.51,2.923,0.803,4.51,0.803c0.602,0,1.188-0.054,1.771-0.131v-8.159c3.444,0.114,6.823,0.417,10.127,0.878
			c0.874-1.771,1.379-3.757,1.379-5.865c0-0.086-0.013-0.17-0.013-0.256c-3.748-0.548-7.582-0.91-11.498-1.033V32.581
			C102.531,32.503,101.945,32.45,101.346,32.45z"/>
		<path fill="#D2C0AA" d="M44.731,58.863c-11.168,6.43-19.419,14.235-22.956,21.817c-0.73,1.576-0.055,3.44,1.518,4.173
			c1.569,0.733,3.436,0.05,4.171-1.516c2.622-5.622,9.351-12.294,18.994-18.146C45.489,63.263,44.885,61.126,44.731,58.863z"/>
		<path fill="#D2C0AA" d="M50.942,70.734c-2.216,7.419-3.687,15.348-4.137,23.644c1.503,3.127,4.199,3.805,6.243,0.965
			c0.36-7.587,1.611-14.846,3.534-21.646C54.503,73.076,52.596,72.059,50.942,70.734z"/>
		<path fill="#D2C0AA" d="M114.342,27.333c5.25,2.449,11.415,8.476,16.971,17.109c1.688-1.277,3.619-2.237,5.717-2.801
			c-6.062-9.658-13.135-16.777-20.029-19.993c-1.57-0.742-3.438-0.055-4.169,1.511C112.098,24.735,112.771,26.599,114.342,27.333z"
			/>
		<path fill="#D2C0AA" d="M143.907,74.182c1.405,5.662,2.411,11.668,2.872,17.942c2.283,3.252,4.979,2.743,6.238-0.571
			c-0.512-6.716-1.633-13.253-3.213-19.485C148.021,73.124,146.032,73.852,143.907,74.182z"/>
		<path fill="#D2C0AA" d="M70.932,44.108c5.527-7.462,11.8-13.277,18.054-16.904c1.006-0.577,1.567-1.63,1.567-2.716
			c0-0.536-0.135-1.072-0.421-1.572c-0.868-1.502-2.788-2.01-4.292-1.14c-7.209,4.173-14.438,10.985-20.699,19.73
			C67.253,42.001,69.211,42.894,70.932,44.108z"/>
		<path fill="#D2C0AA" d="M101.346,29.054c0.596,0,1.184,0.035,1.766,0.096v-4.14c0-1.731-1.401-3.138-3.137-3.138
			c-1.733,0-3.138,1.407-3.138,3.138v4.681C98.272,29.286,99.78,29.054,101.346,29.054z"/>
	</g>
	<g display="inline">
		<g>
			<path fill="#70C29F" d="M8.578,99.841c0,50.397,41,91.399,91.399,91.399c50.396,0,91.399-41.002,91.399-91.399
				c0-50.397-41.003-91.396-91.399-91.396C49.578,8.446,8.578,49.444,8.578,99.841z M185.092,99.841
				c0,46.935-38.181,85.115-85.114,85.115s-85.119-38.181-85.119-85.115s38.185-85.12,85.119-85.12S185.092,52.906,185.092,99.841z"
				/>
		</g>
	</g>
	<g display="inline">
		<path fill="#DD6344" d="M101.346,112.953c-7.292,0-13.226-5.934-13.226-13.227c0-7.293,5.933-13.226,13.226-13.226
			c7.293,0,13.227,5.933,13.227,13.226C114.57,107.02,108.639,112.953,101.346,112.953z"/>
	</g>
	<g display="inline">
		<path fill="#DD6344" d="M61.345,70.953c-7.292,0-13.225-5.934-13.225-13.227S54.053,44.5,61.345,44.5
			c7.293,0,13.227,5.933,13.227,13.226C74.571,65.02,68.638,70.953,61.345,70.953z"/>
	</g>
	<g display="inline">
		<path fill="#DD6344" d="M101.346,58.953c-7.292,0-13.226-5.934-13.226-13.227S94.053,32.5,101.346,32.5
			c7.293,0,13.227,5.933,13.227,13.226C114.57,53.02,108.639,58.953,101.346,58.953z"/>
	</g>
	<g display="inline">
		<path fill="#DD6344" d="M141.346,70.953c-7.293,0-13.226-5.934-13.226-13.227S134.053,44.5,141.346,44.5
			s13.227,5.933,13.227,13.226C154.57,65.02,148.639,70.953,141.346,70.953z"/>
	</g>
</g>
<g id="local">
	<g>
		<g>
			<path fill="#D2C0AA" d="M100.344,78.575c-12.244,0-22.205,9.962-22.205,22.208c0,12.244,9.961,22.209,22.205,22.209
				c12.246,0,22.209-9.965,22.209-22.209C122.553,88.538,112.59,78.575,100.344,78.575z M109.999,108.312
				c0,0.627-0.56,0.688-1.188,0.688H92.233c-0.627,0-1.233-0.061-1.233-0.688h-0.001V97.86c-0.02-0.418,0.273-0.823,0.565-0.984
				l8.331-5.443c0,0,0.681-0.31,1.266,0l8.325,5.438c0.296,0.154,0.531,0.56,0.513,0.982V108.312z"/>
		</g>
		<path fill="#DD6344" d="M78,50.037c0.03-0.75-0.111-1.471-0.636-1.745l-14.743-9.659c-1.04-0.55-2.225,0-2.225,0l-14.746,9.67
			C45.132,48.588,45,49.309,45,50.051c0,0.018,0,18.566,0,18.566C45,69.729,45.692,70,46.807,70h29.448
			C77.369,70,78,69.729,78,68.617C78,68.617,78.001,50.06,78,50.037z"/>
		
			<line fill="none" stroke="#D2C0AA" stroke-width="7" stroke-linecap="round" stroke-linejoin="round" stroke-miterlimit="10" x1="126.75" y1="86.5" x2="137.25" y2="77"/>
		
			<line fill="none" stroke="#D2C0AA" stroke-width="7" stroke-linecap="round" stroke-linejoin="round" stroke-miterlimit="10" x1="74.25" y1="86.5" x2="63.513" y2="78"/>
		
			<line fill="none" stroke="#D2C0AA" stroke-width="7" stroke-linecap="round" stroke-linejoin="round" stroke-miterlimit="10" x1="77.75" y1="122.75" x2="75" y2="124.389"/>
		
			<line fill="none" stroke="#D2C0AA" stroke-width="7" stroke-linecap="round" stroke-linejoin="round" stroke-miterlimit="10" x1="119.773" y1="122.75" x2="121.25" y2="124.389"/>
	</g>
	<g>
		<g>
			<path fill="#70C29F" d="M8.578,99.841c0,50.397,41,91.399,91.399,91.399c50.396,0,91.399-41.002,91.399-91.399
				c0-50.397-41.003-91.396-91.399-91.396C49.578,8.446,8.578,49.444,8.578,99.841z M185.092,99.841
				c0,46.935-38.181,85.115-85.114,85.115s-85.119-38.181-85.119-85.115s38.185-85.12,85.119-85.12S185.092,52.906,185.092,99.841z"
				/>
		</g>
	</g>
	<path fill="#DD6344" d="M158,50.037c0.029-0.75-0.111-1.471-0.637-1.745l-14.742-9.659c-1.04-0.55-2.225,0-2.225,0l-14.746,9.67
		c-0.52,0.285-0.65,1.006-0.65,1.748c0,0.018,0,18.566,0,18.566c0,1.111,0.691,1.383,1.807,1.383h29.448
		c1.114,0,1.745-0.271,1.745-1.383C158,68.617,158.001,50.06,158,50.037z"/>
	<path fill="#DD6344" d="M153,136.037c0.029-0.75-0.111-1.471-0.637-1.745l-14.742-9.659c-1.04-0.55-2.225,0-2.225,0l-14.746,9.67
		c-0.52,0.285-0.65,1.006-0.65,1.748c0,0.018,0,18.566,0,18.566c0,1.111,0.691,1.383,1.807,1.383h29.448
		c1.114,0,1.745-0.271,1.745-1.383C153,154.617,153.001,136.061,153,136.037z"/>
	<path fill="#DD6344" d="M77,135.655c0-0.661-0.098-1.296-0.561-1.538l-12.994-8.514c-0.917-0.484-1.96,0-1.96,0l-12.955,8.522
		c-0.457,0.251-0.531,0.888-0.531,1.54c0,0.016,0,16.364,0,16.364c0,0.979,0.525,0.969,1.507,0.969h25.955
		c0.982,0,1.538,0.011,1.538-0.969C77,152.031,77,135.675,77,135.655z"/>
</g>
<g id="guides">
</g>
</svg>
