<?xml version="1.0" encoding="utf-8"?>
<!-- Generator: Adobe Illustrator 16.0.0, SVG Export Plug-In . SVG Version: 6.00 Build 0)  -->
<!DOCTYPE svg PUBLIC "-//W3C//DTD SVG 1.1//EN" "http://www.w3.org/Graphics/SVG/1.1/DTD/svg11.dtd">
<svg version="1.1" id="Layer_1" xmlns="http://www.w3.org/2000/svg" xmlns:xlink="http://www.w3.org/1999/xlink" x="0px" y="0px"
	 width="200px" height="200px" viewBox="0 0 200 200" enable-background="new 0 0 200 200" xml:space="preserve">
<g>
	<g>
		<path fill="#70C29F" d="M8.578,99.841c0,50.397,41,91.399,91.399,91.399c50.396,0,91.399-41.002,91.399-91.399
			c0-50.397-41.003-91.396-91.399-91.396C49.578,8.446,8.578,49.444,8.578,99.841z M185.092,99.841
			c0,46.934-38.181,85.115-85.114,85.115s-85.119-38.181-85.119-85.115c0-46.935,38.185-85.12,85.119-85.12
			S185.092,52.906,185.092,99.841z"/>
	</g>
	<path fill="#D2C0AA" d="M112.83,23.159c-0.732,1.576-0.06,3.44,1.512,4.173c6.423,2.996,14.215,11.342,20.586,23.27
		c-9.702-3.554-20.439-5.808-31.817-6.165V25.01c0-1.731-1.401-3.138-3.137-3.138c-1.733,0-3.138,1.407-3.138,3.138v19.372
		c-10.261,0.298-20.219,2.043-29.376,4.787c6.285-9.913,13.921-17.554,21.527-21.965c1.006-0.577,1.567-1.63,1.567-2.716
		c0-0.536-0.135-1.072-0.421-1.572c-0.868-1.502-2.788-2.01-4.292-1.14C75.89,27.534,65.895,38.299,58.474,52.27
		c-18.062,7.105-31.832,17.976-36.698,28.41c-0.73,1.576-0.055,3.44,1.518,4.173c1.569,0.733,3.436,0.05,4.171-1.516
		c3.293-7.063,13.055-15.79,26.958-22.455c-4.445,10.71-7.311,22.858-7.718,35.822H25.147c-1.736,0-3.142,1.406-3.142,3.138
		c0,1.731,1.406,3.137,3.142,3.137h21.502c0.362,12.487,2.867,24.521,6.706,35.212c-13.328-6.596-22.679-15.048-25.89-21.933
		c-0.735-1.571-2.602-2.249-4.171-1.516c-1.571,0.732-2.251,2.602-1.518,4.173c4.713,10.105,17.787,20.618,35.01,27.719
		c7.031,15.433,16.774,27.021,26.161,31.405c1.571,0.728,3.44,0.05,4.175-1.521c0.731-1.566,0.053-3.44-1.518-4.175
		c-6.294-2.936-13.909-11.008-20.21-22.564c9.72,3.111,20.398,5.112,31.442,5.434v19.454c0,1.732,1.407,3.139,3.142,3.139
		c1.731,0,3.138-1.406,3.138-3.139v-19.509c10.994-0.35,21.391-2.46,30.837-5.812c-5.579,9.412-12.653,17.05-20.741,21.73
		c-1.503,0.869-2.012,2.785-1.146,4.287c0.869,1.508,2.79,2.017,4.288,1.146c11.121-6.436,20.397-17.417,26.884-30.942
		c16.078-7.568,28.466-18.593,34.804-29.545c0.289-0.496,0.432-1.037,0.432-1.573c0-1.08-0.564-2.139-1.571-2.716
		c-1.503-0.875-3.417-0.357-4.289,1.14c-4.933,8.524-13.942,17.072-25.646,23.729c3.757-10.375,5.961-21.819,6.298-33.623h21.544
		c1.731,0,3.138-1.406,3.138-3.137c0-1.737-1.406-3.138-3.138-3.138h-21.506c-0.344-11.869-2.63-23.32-6.152-33.604
		c11.612,6.638,20.553,15.14,25.463,23.623c0.872,1.498,2.786,2.011,4.289,1.141c1.007-0.582,1.571-1.635,1.571-2.721
		c0-0.531-0.143-1.072-0.432-1.571c-6.274-10.848-18.497-21.75-34.342-29.312c-7.072-16.033-17.067-28.117-26.7-32.61
		C115.428,20.906,113.562,21.593,112.83,23.159z M62.906,57.286c9.973-3.71,21.489-6.252,33.93-6.624v46.041H52.984
		C53.47,82.072,57.267,68.605,62.906,57.286z M61.511,141.772c-4.748-11.011-8.146-24.273-8.58-38.794h43.904v45.955
		C83.808,148.548,71.797,145.772,61.511,141.772z M138.327,140.926c-10.403,4.548-22.36,7.53-35.217,7.952v-45.899h43.87
		C146.56,116.451,143.448,129.584,138.327,140.926z M147.021,96.703h-43.906v-45.99c13.077,0.435,25.23,3.508,35.742,8.185
		C143.393,69.713,146.6,82.618,147.021,96.703z"/>
	<path fill="#FFFFFF" d="M103.113,96.703c4.291,0,37.096-31.36,40.791-12.35c2.739,14.072,10.555,12.121,9.775,1.173
		c-1.003-14.013,26.578,3.128,27.361,27.364c0.747,23.151-22.588,36.162-32.835,46.124c-9.753,9.487-18.717,23.468-47.328,23.468
		c-19.229,0-81.195-20.394-83.231-71.029c-1.138-28.318,29.537-38.121,28.146-25.144c-1.172,10.944,6.253,15.246,8.99,5.08
		C58.917,76.044,97.741,96.703,103.113,96.703z"/>
	<g>
		<path fill="#DD6344" d="M61.476,69.737c-6.742,0-12.227-5.485-12.227-12.227c0-6.742,5.485-12.227,12.227-12.227
			c6.742,0,12.226,5.485,12.226,12.227C73.702,64.252,68.218,69.737,61.476,69.737z"/>
		<path fill="#FFFFFF" d="M61.476,45.783c6.477,0,11.726,5.254,11.726,11.727c0,6.477-5.249,11.727-11.726,11.727
			c-6.478,0-11.727-5.25-11.727-11.727C49.749,51.038,54.998,45.783,61.476,45.783 M61.476,44.783
			c-7.018,0-12.727,5.709-12.727,12.727s5.709,12.727,12.727,12.727c7.017,0,12.726-5.709,12.726-12.727
			S68.493,44.783,61.476,44.783L61.476,44.783z"/>
	</g>
	<g>
		<path fill="#DD6344" d="M141.215,69.737c-6.741,0-12.226-5.485-12.226-12.227c0-6.742,5.484-12.227,12.226-12.227
			c6.742,0,12.228,5.485,12.228,12.227C153.442,64.252,147.957,69.737,141.215,69.737z"/>
		<path fill="#FFFFFF" d="M141.215,45.783c6.479,0,11.728,5.254,11.728,11.727c0,6.477-5.249,11.727-11.728,11.727
			c-6.476,0-11.726-5.25-11.726-11.727C129.489,51.038,134.739,45.783,141.215,45.783 M141.215,44.783
			c-7.017,0-12.726,5.709-12.726,12.727s5.709,12.727,12.726,12.727c7.018,0,12.728-5.709,12.728-12.727
			S148.232,44.783,141.215,44.783L141.215,44.783z"/>
	</g>
	<g>
		<path fill="#DD6344" d="M101.345,58.01c-6.741,0-12.225-5.485-12.225-12.227c0-6.742,5.484-12.227,12.225-12.227
			c6.742,0,12.227,5.485,12.227,12.227C113.571,52.525,108.087,58.01,101.345,58.01z"/>
		<path fill="#FFFFFF" d="M101.345,34.057c6.479,0,11.727,5.254,11.727,11.727c0,6.478-5.248,11.727-11.727,11.727
			c-6.476,0-11.725-5.25-11.725-11.727C89.62,39.311,94.869,34.057,101.345,34.057 M101.345,33.057
			c-7.017,0-12.725,5.709-12.725,12.727s5.708,12.727,12.725,12.727c7.018,0,12.727-5.709,12.727-12.727
			S108.362,33.057,101.345,33.057L101.345,33.057z"/>
	</g>
	<g>
		<path fill="#DD6344" d="M101.345,111.953c-6.741,0-12.225-5.485-12.225-12.227S94.604,87.5,101.345,87.5
			c6.742,0,12.227,5.484,12.227,12.226S108.087,111.953,101.345,111.953z"/>
		<path fill="#FFFFFF" d="M101.345,88c6.479,0,11.727,5.253,11.727,11.726c0,6.476-5.248,11.727-11.727,11.727
			c-6.476,0-11.725-5.251-11.725-11.727C89.62,93.253,94.869,88,101.345,88 M101.345,87c-7.017,0-12.725,5.709-12.725,12.726
			c0,7.018,5.708,12.727,12.725,12.727c7.018,0,12.727-5.709,12.727-12.727C114.071,92.709,108.362,87,101.345,87L101.345,87z"/>
	</g>
</g>
</svg>
