<?xml version="1.0" encoding="utf-8"?>
<!-- Generator: Adobe Illustrator 16.0.0, SVG Export Plug-In . SVG Version: 6.00 Build 0)  -->
<!DOCTYPE svg PUBLIC "-//W3C//DTD SVG 1.1//EN" "http://www.w3.org/Graphics/SVG/1.1/DTD/svg11.dtd">
<svg version="1.1" xmlns="http://www.w3.org/2000/svg" xmlns:xlink="http://www.w3.org/1999/xlink" x="0px" y="0px" width="170px"
	 height="200px" viewBox="0 0 170 200" enable-background="new 0 0 170 200" xml:space="preserve">
<g id="global" display="none">
	<g display="inline">
		<path fill="#DD6344" d="M33,162.183c-0.276,0-0.5-0.224-0.5-0.5v-26.719c0-0.276,0.224-0.5,0.5-0.5h103.494
			c0.276,0,0.5,0.224,0.5,0.5v26.719c0,0.276-0.224,0.5-0.5,0.5H33z"/>
		<g>
			<path fill="#DD6344" d="M136.494,134.964v26.719H33v-26.719H136.494 M136.494,133.964H33c-0.552,0-1,0.447-1,1v26.719
				c0,0.553,0.448,1,1,1h103.494c0.553,0,1-0.447,1-1v-26.719C137.494,134.412,137.047,133.964,136.494,133.964L136.494,133.964z"/>
		</g>
	</g>
	<g display="inline">
		<path fill="#FFFFFF" d="M71.943,151.762c0.24,0,0.456-0.021,0.648-0.062c0.192-0.042,0.376-0.102,0.552-0.178l0.168-1.428h-0.744
			c-0.112,0-0.198-0.025-0.258-0.078c-0.06-0.052-0.09-0.122-0.09-0.21l0.132-1.128h2.916l-0.456,3.654
			c-0.224,0.164-0.456,0.305-0.696,0.423c-0.24,0.118-0.491,0.215-0.753,0.291c-0.262,0.076-0.538,0.132-0.828,0.168
			s-0.599,0.054-0.927,0.054c-0.54,0-1.033-0.099-1.479-0.297c-0.446-0.198-0.828-0.471-1.146-0.818
			c-0.318-0.349-0.564-0.761-0.738-1.236c-0.174-0.477-0.261-0.992-0.261-1.548c0-0.484,0.055-0.945,0.165-1.383
			c0.11-0.438,0.267-0.844,0.471-1.216s0.449-0.708,0.735-1.008s0.604-0.556,0.954-0.768s0.727-0.375,1.131-0.489
			c0.404-0.114,0.828-0.171,1.272-0.171c0.372,0,0.709,0.034,1.011,0.102c0.302,0.068,0.573,0.159,0.813,0.273
			c0.24,0.114,0.454,0.246,0.642,0.396c0.188,0.15,0.354,0.306,0.498,0.466l-0.636,0.785c-0.144,0.177-0.306,0.265-0.486,0.265
			c-0.108,0-0.218-0.036-0.33-0.108c-0.144-0.092-0.278-0.173-0.402-0.243c-0.124-0.069-0.249-0.128-0.375-0.174
			s-0.26-0.081-0.402-0.104c-0.142-0.024-0.301-0.036-0.477-0.036c-0.38,0-0.728,0.081-1.044,0.243
			c-0.316,0.161-0.588,0.39-0.816,0.684s-0.405,0.647-0.531,1.059c-0.126,0.412-0.189,0.866-0.189,1.362
			c0,0.384,0.047,0.729,0.141,1.035c0.094,0.306,0.227,0.563,0.399,0.774c0.172,0.21,0.378,0.371,0.618,0.482
			C71.386,151.706,71.651,151.762,71.943,151.762z"/>
		<path fill="#FFFFFF" d="M75.958,153.172l1.092-8.982h1.836l-1.092,8.982H75.958z"/>
		<path fill="#FFFFFF" d="M81.658,153.268c-0.348,0-0.673-0.058-0.975-0.174c-0.302-0.116-0.564-0.285-0.786-0.507
			s-0.396-0.496-0.522-0.822s-0.189-0.701-0.189-1.125c0-0.552,0.091-1.059,0.273-1.521s0.427-0.861,0.735-1.197
			s0.665-0.598,1.071-0.786c0.406-0.188,0.833-0.282,1.281-0.282c0.348,0,0.672,0.059,0.972,0.175
			c0.3,0.115,0.561,0.284,0.783,0.507c0.222,0.222,0.397,0.496,0.525,0.821c0.128,0.326,0.192,0.701,0.192,1.125
			c0,0.545-0.091,1.048-0.273,1.51c-0.182,0.462-0.427,0.861-0.735,1.199c-0.308,0.339-0.665,0.603-1.071,0.792
			C82.533,153.173,82.105,153.268,81.658,153.268z M81.826,151.888c0.208,0,0.394-0.062,0.558-0.188s0.303-0.298,0.417-0.517
			c0.114-0.218,0.202-0.472,0.264-0.762s0.093-0.599,0.093-0.927c0-0.452-0.061-0.775-0.183-0.97
			c-0.122-0.193-0.321-0.291-0.597-0.291c-0.208,0-0.394,0.063-0.558,0.189s-0.303,0.297-0.417,0.513
			c-0.114,0.217-0.202,0.471-0.264,0.763s-0.093,0.602-0.093,0.93c0,0.444,0.061,0.765,0.183,0.963S81.549,151.888,81.826,151.888z"
			/>
		<path fill="#FFFFFF" d="M85.642,153.172l1.092-8.982h1.824l-0.462,3.738c0.276-0.336,0.577-0.599,0.903-0.789
			c0.326-0.189,0.671-0.285,1.035-0.285c0.256,0,0.49,0.045,0.702,0.136c0.212,0.09,0.395,0.23,0.549,0.423
			c0.154,0.191,0.274,0.437,0.36,0.734c0.086,0.299,0.129,0.653,0.129,1.065c0,0.544-0.083,1.061-0.249,1.551
			s-0.389,0.921-0.669,1.293c-0.28,0.372-0.603,0.667-0.969,0.885c-0.366,0.219-0.749,0.327-1.149,0.327
			c-0.308,0-0.579-0.059-0.813-0.177s-0.433-0.272-0.597-0.465l-0.018,0.06c-0.056,0.168-0.128,0.291-0.216,0.369
			s-0.232,0.117-0.432,0.117H85.642z M89.29,148.264c-0.132,0-0.269,0.05-0.411,0.15c-0.142,0.1-0.279,0.236-0.411,0.411
			c-0.132,0.174-0.255,0.378-0.369,0.611c-0.114,0.234-0.209,0.483-0.285,0.747l-0.18,1.452c0.116,0.096,0.246,0.164,0.39,0.204
			s0.282,0.06,0.414,0.06c0.216,0,0.415-0.071,0.597-0.216c0.182-0.144,0.339-0.333,0.471-0.566
			c0.132-0.234,0.235-0.501,0.309-0.802c0.074-0.3,0.111-0.605,0.111-0.918c0-0.396-0.058-0.684-0.174-0.863
			C89.636,148.354,89.482,148.264,89.29,148.264z"/>
		<path fill="#FFFFFF" d="M97.546,153.172H96.55c-0.116,0-0.213-0.015-0.291-0.045c-0.078-0.03-0.14-0.071-0.186-0.123
			c-0.046-0.052-0.078-0.114-0.096-0.186c-0.018-0.072-0.027-0.15-0.027-0.234v-0.444c-0.256,0.353-0.54,0.628-0.852,0.828
			s-0.656,0.3-1.032,0.3c-0.224,0-0.44-0.045-0.648-0.135s-0.392-0.226-0.552-0.408c-0.16-0.182-0.288-0.414-0.384-0.695
			c-0.096-0.282-0.144-0.615-0.144-0.999c0-0.564,0.103-1.1,0.309-1.605s0.494-0.949,0.864-1.329c0.37-0.38,0.809-0.682,1.317-0.906
			c0.508-0.224,1.066-0.336,1.674-0.336c0.296,0,0.596,0.021,0.9,0.061c0.304,0.04,0.604,0.112,0.9,0.216L97.546,153.172z
			 M94.81,151.798c0.136,0,0.268-0.051,0.396-0.153c0.128-0.102,0.249-0.24,0.363-0.417c0.114-0.176,0.219-0.382,0.315-0.617
			c0.096-0.236,0.178-0.488,0.246-0.757l0.216-1.722h-0.108c-0.304,0-0.581,0.068-0.831,0.204s-0.465,0.321-0.645,0.555
			c-0.18,0.234-0.319,0.506-0.417,0.816c-0.098,0.31-0.147,0.641-0.147,0.993c0,0.2,0.016,0.37,0.048,0.51
			c0.032,0.14,0.075,0.253,0.129,0.339c0.054,0.086,0.118,0.149,0.192,0.189C94.641,151.778,94.722,151.798,94.81,151.798z"/>
		<path fill="#FFFFFF" d="M98.949,153.172l1.092-8.982h1.836l-1.092,8.982H98.949z"/>
	</g>
	<g display="inline">
		<path fill="#70C29F" d="M42.998,77.286c0,21.488,17.481,38.969,38.971,38.969c21.488,0,38.971-17.48,38.971-38.969
			c0-21.487-17.482-38.97-38.971-38.97C60.479,38.316,42.998,55.799,42.998,77.286z M118.26,77.286
			c0,20.013-16.279,36.292-36.291,36.292S45.676,97.297,45.676,77.286c0-20.013,16.281-36.294,36.293-36.294
			S118.26,57.273,118.26,77.286z"/>
	</g>
	<path display="inline" fill="#D2C0AA" d="M87.449,44.592c-0.312,0.67-0.025,1.467,0.645,1.777c2.738,1.277,6.061,4.836,8.777,9.924
		c-4.137-1.518-8.715-2.479-13.566-2.631v-8.281c0-0.74-0.598-1.34-1.338-1.34c-0.739,0-1.338,0.6-1.338,1.34v8.26
		c-4.375,0.125-8.621,0.869-12.525,2.039c2.68-4.227,5.936-7.484,9.179-9.365c0.429-0.246,0.668-0.695,0.668-1.158
		c0-0.229-0.058-0.457-0.18-0.67c-0.37-0.639-1.188-0.857-1.83-0.486c-4.242,2.455-8.504,7.047-11.668,13.004
		c-7.701,3.027-13.572,7.664-15.647,12.111c-0.312,0.672-0.023,1.467,0.647,1.779c0.669,0.312,1.465,0.023,1.778-0.646
		c1.404-3.012,5.566-6.732,11.494-9.574c-1.896,4.566-3.117,9.746-3.291,15.273h-9.191c-0.74,0-1.34,0.6-1.34,1.339
		s0.6,1.339,1.34,1.339h9.168c0.154,5.324,1.223,10.454,2.859,15.012c-5.683-2.811-9.67-6.416-11.039-9.35
		c-0.313-0.67-1.109-0.96-1.778-0.646c-0.67,0.312-0.96,1.109-0.647,1.779c2.01,4.309,7.584,8.789,14.928,11.818
		c2.998,6.58,7.152,11.519,11.154,13.388c0.67,0.312,1.467,0.023,1.78-0.646c0.312-0.67,0.022-1.467-0.647-1.779
		c-2.684-1.252-5.931-4.693-8.617-9.622c4.145,1.326,8.697,2.18,13.406,2.317v8.295c0,0.738,0.6,1.338,1.34,1.338
		c0.738,0,1.338-0.6,1.338-1.338v-8.318c4.688-0.148,9.121-1.049,13.148-2.48c-2.379,4.015-5.395,7.271-8.844,9.267
		c-0.641,0.371-0.857,1.188-0.488,1.828c0.371,0.641,1.189,0.859,1.828,0.488c4.742-2.744,8.697-7.428,11.463-13.194
		c6.855-3.226,12.137-7.928,14.84-12.599c0.123-0.211,0.184-0.44,0.184-0.668c0-0.463-0.24-0.912-0.67-1.159
		c-0.641-0.372-1.457-0.152-1.828,0.487c-2.104,3.635-5.945,7.278-10.936,10.117c1.602-4.424,2.541-9.303,2.686-14.336h9.186
		c0.738,0,1.338-0.6,1.338-1.339s-0.6-1.339-1.338-1.339h-9.17c-0.146-5.061-1.121-9.941-2.623-14.328
		c4.951,2.83,8.764,6.455,10.857,10.072c0.371,0.639,1.188,0.857,1.828,0.488c0.43-0.25,0.67-0.699,0.67-1.16
		c0-0.229-0.061-0.459-0.184-0.67c-2.676-4.625-7.887-9.275-14.643-12.5c-3.016-6.836-7.277-11.988-11.385-13.904
		C88.557,43.631,87.762,43.922,87.449,44.592z M66.162,59.141c4.252-1.58,9.162-2.666,14.467-2.824v19.631H61.932
		C62.139,69.711,63.758,63.969,66.162,59.141z M65.567,95.166c-2.024-4.695-3.474-10.35-3.658-16.542h18.72v19.595
		C75.074,98.053,69.953,96.87,65.567,95.166z M98.32,94.805c-4.436,1.938-9.533,3.209-15.016,3.391V78.624h18.705
		C101.83,84.369,100.504,89.967,98.32,94.805z M102.027,75.947H83.307V56.34c5.576,0.184,10.758,1.494,15.24,3.488
		C100.48,64.439,101.848,69.941,102.027,75.947z"/>
</g>
<g id="regional">
	<g>
		<path fill="#DD6344" d="M3.448,197.311c-0.276,0-0.5-0.224-0.5-0.5v-42.096c0-0.276,0.224-0.5,0.5-0.5h163.058
			c0.276,0,0.5,0.224,0.5,0.5v42.096c0,0.276-0.224,0.5-0.5,0.5H3.448z"/>
		<g>
			<path fill="#DD6344" d="M166.506,154.714v42.096H3.448v-42.096H166.506 M166.506,153.714H3.448c-0.552,0-1,0.448-1,1v42.096
				c0,0.552,0.448,1,1,1h163.058c0.552,0,1-0.448,1-1v-42.096C167.506,154.162,167.059,153.714,166.506,153.714L166.506,153.714z"/>
		</g>
	</g>
	<g>
		<path fill="#FFFFFF" d="M52.856,178.256l-0.633,5.143H49.16l1.683-13.773h4.178c0.844,0,1.564,0.09,2.16,0.27
			s1.083,0.427,1.46,0.742s0.654,0.688,0.827,1.12s0.26,0.9,0.26,1.404c0,0.51-0.067,0.993-0.203,1.446s-0.333,0.872-0.591,1.252
			c-0.258,0.381-0.575,0.719-0.95,1.012s-0.802,0.534-1.281,0.723c0.189,0.107,0.367,0.236,0.534,0.388
			c0.167,0.151,0.298,0.34,0.392,0.567l2.004,4.85h-2.779c-0.258,0-0.476-0.05-0.652-0.151c-0.176-0.101-0.299-0.246-0.369-0.435
			l-1.494-4.075c-0.069-0.176-0.162-0.301-0.279-0.373s-0.288-0.109-0.515-0.109H52.856z M53.641,171.923l-0.52,4.207h1.125
			c0.441,0,0.816-0.067,1.125-0.203c0.309-0.136,0.56-0.317,0.752-0.543c0.192-0.227,0.331-0.492,0.416-0.794
			c0.085-0.302,0.128-0.621,0.128-0.955c0-0.258-0.038-0.493-0.114-0.704c-0.075-0.211-0.193-0.391-0.354-0.539
			c-0.161-0.148-0.362-0.263-0.605-0.345c-0.243-0.082-0.528-0.123-0.855-0.123H53.641z"/>
		<path fill="#FFFFFF" d="M69.626,176.006c0,0.448-0.088,0.857-0.265,1.229c-0.176,0.372-0.483,0.701-0.921,0.988
			c-0.438,0.287-1.027,0.531-1.768,0.733c-0.74,0.202-1.671,0.359-2.793,0.473c0.012,0.668,0.159,1.156,0.439,1.465
			c0.28,0.309,0.695,0.463,1.243,0.463c0.258,0,0.482-0.022,0.671-0.066s0.354-0.101,0.497-0.17
			c0.142-0.069,0.269-0.142,0.383-0.217c0.113-0.076,0.222-0.148,0.326-0.217s0.212-0.126,0.326-0.17
			c0.114-0.044,0.243-0.066,0.388-0.066c0.095,0,0.186,0.023,0.274,0.071c0.088,0.047,0.167,0.108,0.236,0.184l0.756,0.879
			c-0.347,0.34-0.686,0.635-1.017,0.884c-0.331,0.249-0.671,0.454-1.021,0.614c-0.35,0.161-0.722,0.279-1.115,0.354
			c-0.394,0.076-0.824,0.114-1.291,0.114c-0.58,0-1.112-0.1-1.598-0.298c-0.485-0.199-0.902-0.479-1.252-0.841
			c-0.35-0.362-0.621-0.799-0.813-1.309c-0.192-0.511-0.288-1.078-0.288-1.702c0-0.523,0.058-1.034,0.175-1.532
			c0.117-0.498,0.284-0.965,0.501-1.404c0.217-0.438,0.483-0.841,0.799-1.21c0.315-0.369,0.669-0.685,1.063-0.95
			c0.394-0.265,0.826-0.471,1.295-0.619c0.47-0.148,0.969-0.222,1.499-0.222c0.523,0,0.988,0.075,1.394,0.227
			c0.407,0.151,0.749,0.348,1.026,0.591s0.488,0.515,0.633,0.818C69.554,175.401,69.626,175.704,69.626,176.006z M66.185,175.439
			c-0.485,0-0.911,0.194-1.276,0.581c-0.366,0.388-0.64,0.919-0.823,1.593c0.611-0.095,1.106-0.194,1.484-0.298
			s0.671-0.217,0.879-0.34c0.208-0.123,0.348-0.255,0.421-0.397c0.072-0.142,0.109-0.294,0.109-0.458s-0.063-0.318-0.189-0.463
			S66.462,175.439,66.185,175.439z"/>
		<path fill="#FFFFFF" d="M78.587,176.526c0,0.403-0.055,0.747-0.165,1.03c-0.11,0.284-0.232,0.552-0.364,0.804
			s-0.253,0.511-0.364,0.775s-0.166,0.577-0.166,0.936c0,0.259,0.042,0.497,0.127,0.714c0.085,0.217,0.178,0.439,0.279,0.667
			c0.101,0.227,0.193,0.466,0.279,0.718c0.085,0.252,0.127,0.542,0.127,0.87c0,0.504-0.11,0.981-0.331,1.432
			c-0.22,0.451-0.539,0.845-0.955,1.182c-0.416,0.337-0.928,0.605-1.536,0.804c-0.608,0.199-1.3,0.298-2.075,0.298
			c-0.637,0-1.207-0.066-1.711-0.199c-0.504-0.132-0.931-0.312-1.281-0.539c-0.35-0.227-0.619-0.497-0.808-0.809
			c-0.189-0.312-0.284-0.647-0.284-1.006c0-0.555,0.14-1.017,0.421-1.385c0.28-0.369,0.641-0.665,1.082-0.888
			c0.441-0.224,0.93-0.381,1.465-0.473s1.059-0.137,1.569-0.137c0.29,0,0.565,0.013,0.827,0.038c0.261,0.025,0.502,0.06,0.723,0.104
			c-0.013-0.076-0.019-0.153-0.019-0.231s0-0.162,0-0.25c0-0.334,0.085-0.715,0.255-1.144c-0.246,0.164-0.528,0.293-0.846,0.388
			s-0.714,0.142-1.187,0.142c-0.372,0-0.728-0.061-1.068-0.184s-0.642-0.311-0.903-0.562c-0.262-0.252-0.471-0.569-0.629-0.95
			c-0.157-0.381-0.236-0.833-0.236-1.356c0-0.485,0.093-0.959,0.279-1.423c0.186-0.463,0.463-0.875,0.832-1.238
			c0.369-0.362,0.826-0.654,1.371-0.875c0.545-0.22,1.18-0.331,1.905-0.331c0.372,0,0.729,0.042,1.073,0.127
			c0.343,0.085,0.66,0.213,0.95,0.383h2.817l-0.132,0.917c-0.057,0.385-0.24,0.627-0.548,0.728l-0.832,0.284
			C78.569,176.092,78.587,176.306,78.587,176.526z M75.676,183.267c0-0.038,0-0.076,0-0.113c0-0.038-0.003-0.073-0.01-0.104
			c-0.321-0.05-0.616-0.088-0.884-0.114c-0.268-0.025-0.512-0.038-0.732-0.038c-0.34,0-0.632,0.025-0.875,0.076
			c-0.243,0.05-0.441,0.118-0.596,0.203s-0.266,0.186-0.335,0.303c-0.069,0.116-0.104,0.238-0.104,0.364
			c0,0.321,0.118,0.564,0.354,0.728c0.236,0.164,0.635,0.246,1.196,0.246c0.29,0,0.558-0.038,0.804-0.113
			c0.246-0.076,0.455-0.181,0.628-0.317s0.309-0.298,0.406-0.487S75.676,183.5,75.676,183.267z M74.504,178.663
			c0.233,0,0.436-0.06,0.61-0.18c0.173-0.12,0.318-0.276,0.435-0.468c0.117-0.192,0.205-0.408,0.265-0.647
			c0.06-0.239,0.09-0.482,0.09-0.728c0-0.41-0.085-0.728-0.255-0.955c-0.17-0.227-0.432-0.34-0.784-0.34
			c-0.233,0-0.437,0.055-0.61,0.166s-0.317,0.257-0.43,0.439c-0.113,0.183-0.199,0.394-0.255,0.633
			c-0.057,0.24-0.085,0.489-0.085,0.747c0,0.416,0.085,0.742,0.255,0.979C73.908,178.545,74.164,178.663,74.504,178.663z"/>
		<path fill="#FFFFFF" d="M84.467,173.596l-1.172,9.803h-2.893l1.172-9.803H84.467z M85.016,170.911
			c0,0.233-0.051,0.453-0.151,0.657c-0.101,0.205-0.233,0.384-0.397,0.539c-0.164,0.155-0.352,0.277-0.562,0.369
			c-0.211,0.092-0.427,0.137-0.647,0.137c-0.221,0-0.432-0.045-0.634-0.137c-0.202-0.091-0.379-0.214-0.534-0.369
			c-0.155-0.154-0.279-0.334-0.374-0.539c-0.095-0.205-0.142-0.424-0.142-0.657c0-0.233,0.047-0.454,0.142-0.662
			c0.094-0.208,0.222-0.391,0.383-0.548c0.161-0.157,0.342-0.282,0.543-0.373s0.413-0.137,0.633-0.137
			c0.227,0,0.444,0.044,0.652,0.132s0.393,0.211,0.553,0.369s0.29,0.34,0.387,0.548S85.016,170.672,85.016,170.911z"/>
		<path fill="#FFFFFF" d="M89.458,183.55c-0.548,0-1.061-0.091-1.536-0.274c-0.476-0.183-0.889-0.449-1.239-0.799
			c-0.35-0.35-0.624-0.781-0.822-1.295s-0.298-1.104-0.298-1.772c0-0.87,0.144-1.668,0.43-2.396
			c0.287-0.728,0.673-1.356,1.158-1.886c0.485-0.529,1.047-0.942,1.687-1.238s1.312-0.444,2.019-0.444
			c0.548,0,1.059,0.091,1.531,0.274c0.473,0.183,0.884,0.449,1.234,0.799c0.35,0.35,0.625,0.782,0.827,1.295
			c0.202,0.514,0.302,1.104,0.302,1.772c0,0.857-0.144,1.649-0.43,2.377c-0.287,0.728-0.673,1.358-1.158,1.891
			c-0.485,0.532-1.048,0.948-1.688,1.248S90.164,183.55,89.458,183.55z M89.723,181.376c0.328,0,0.621-0.099,0.879-0.298
			c0.258-0.198,0.478-0.469,0.657-0.813c0.179-0.343,0.318-0.744,0.416-1.201c0.098-0.457,0.147-0.943,0.147-1.46
			c0-0.712-0.096-1.221-0.289-1.526s-0.506-0.458-0.94-0.458c-0.328,0-0.621,0.099-0.879,0.298
			c-0.258,0.198-0.477,0.468-0.657,0.808s-0.318,0.741-0.416,1.201s-0.146,0.948-0.146,1.465c0,0.7,0.096,1.206,0.288,1.518
			S89.288,181.376,89.723,181.376z"/>
		<path fill="#FFFFFF" d="M101.388,183.399l0.737-6.229c0.013-0.101,0.022-0.194,0.028-0.279c0.006-0.085,0.009-0.166,0.009-0.241
			c0-0.334-0.058-0.565-0.175-0.695c-0.117-0.129-0.292-0.194-0.524-0.194c-0.214,0-0.438,0.066-0.671,0.199
			c-0.233,0.132-0.455,0.318-0.667,0.558c-0.211,0.24-0.405,0.531-0.581,0.875c-0.177,0.343-0.315,0.723-0.416,1.139l-0.539,4.868
			h-2.93l1.172-9.803h1.513c0.302,0,0.539,0.071,0.709,0.212c0.17,0.142,0.255,0.374,0.255,0.695v0.785
			c0.473-0.63,0.989-1.095,1.55-1.395c0.561-0.299,1.141-0.449,1.739-0.449c0.365,0,0.701,0.066,1.007,0.198
			s0.568,0.326,0.789,0.582s0.394,0.569,0.52,0.94c0.126,0.372,0.189,0.801,0.189,1.286c0,0.114-0.004,0.23-0.014,0.35
			c-0.009,0.12-0.021,0.243-0.033,0.369l-0.738,6.229H101.388z"/>
		<path fill="#FFFFFF" d="M114.49,183.399h-1.569c-0.183,0-0.335-0.023-0.458-0.071c-0.123-0.047-0.221-0.112-0.293-0.194
			s-0.123-0.18-0.151-0.293c-0.028-0.114-0.042-0.236-0.042-0.369v-0.7c-0.403,0.555-0.851,0.99-1.342,1.305
			s-1.034,0.473-1.626,0.473c-0.353,0-0.693-0.071-1.021-0.213c-0.328-0.142-0.618-0.356-0.87-0.643s-0.454-0.652-0.605-1.097
			s-0.227-0.969-0.227-1.574c0-0.888,0.163-1.731,0.487-2.528c0.325-0.797,0.778-1.495,1.361-2.094
			c0.583-0.599,1.275-1.074,2.075-1.427s1.679-0.529,2.637-0.529c0.466,0,0.939,0.032,1.418,0.094
			c0.479,0.063,0.952,0.177,1.418,0.34L114.49,183.399z M110.18,181.234c0.214,0,0.422-0.081,0.624-0.241
			c0.201-0.161,0.392-0.38,0.572-0.657c0.18-0.277,0.345-0.602,0.496-0.974c0.151-0.372,0.28-0.769,0.388-1.191l0.34-2.713h-0.17
			c-0.479,0-0.915,0.107-1.309,0.321s-0.732,0.506-1.016,0.875s-0.502,0.797-0.657,1.286c-0.154,0.488-0.231,1.01-0.231,1.564
			c0,0.315,0.025,0.583,0.076,0.803c0.05,0.221,0.118,0.399,0.203,0.534c0.085,0.136,0.186,0.235,0.303,0.298
			C109.913,181.203,110.041,181.234,110.18,181.234z"/>
		<path fill="#FFFFFF" d="M116.702,183.399l1.721-14.151h2.893l-1.72,14.151H116.702z"/>
	</g>
	<g>
		<g>
			<path fill="#70C29F" d="M23.578,63.842c0,33.855,27.542,61.399,61.399,61.399c33.854,0,61.399-27.544,61.399-61.399
				c0-33.855-27.544-61.396-61.399-61.396C51.121,2.445,23.578,29.986,23.578,63.842z M142.154,63.842
				c0,31.529-25.648,57.177-57.177,57.177c-31.529,0-57.18-25.648-57.18-57.177c0-31.529,25.651-57.181,57.18-57.181
				C116.506,6.661,142.154,32.312,142.154,63.842z"/>
		</g>
		<path fill="#D2C0AA" d="M93.611,12.329c-0.492,1.059-0.04,2.311,1.016,2.804c4.314,2.012,9.549,7.619,13.829,15.632
			c-6.518-2.388-13.73-3.902-21.375-4.142V13.572c0-1.163-0.941-2.108-2.107-2.108c-1.165,0-2.108,0.945-2.108,2.108v13.014
			c-6.893,0.2-13.583,1.373-19.734,3.216c4.222-6.659,9.352-11.792,14.461-14.755c0.676-0.388,1.053-1.095,1.053-1.825
			c0-0.36-0.091-0.72-0.283-1.056c-0.583-1.009-1.873-1.351-2.883-0.766c-6.684,3.868-13.398,11.1-18.383,20.485
			C44.963,36.658,35.713,43.96,32.444,50.97c-0.491,1.059-0.037,2.311,1.02,2.803c1.054,0.492,2.308,0.034,2.802-1.019
			c2.212-4.745,8.77-10.607,18.109-15.084c-2.986,7.195-4.911,15.355-5.185,24.064H34.708c-1.166,0-2.111,0.944-2.111,2.108
			c0,1.163,0.945,2.108,2.111,2.108h14.444c0.243,8.388,1.926,16.472,4.505,23.654c-8.953-4.431-15.235-10.109-17.392-14.734
			c-0.494-1.055-1.748-1.511-2.802-1.019c-1.056,0.493-1.513,1.748-1.02,2.804c3.167,6.788,11.949,13.85,23.519,18.62
			c4.723,10.367,11.269,18.152,17.574,21.097c1.056,0.489,2.311,0.034,2.805-1.021c0.491-1.053,0.036-2.311-1.02-2.804
			c-4.228-1.972-9.344-7.395-13.577-15.158c6.53,2.089,13.703,3.434,21.122,3.65v13.069c0,1.163,0.945,2.108,2.111,2.108
			c1.163,0,2.107-0.945,2.107-2.108v-13.106c7.385-0.234,14.37-1.652,20.715-3.905c-3.748,6.323-8.499,11.453-13.933,14.598
			c-1.01,0.584-1.351,1.871-0.77,2.88c0.584,1.013,1.874,1.354,2.88,0.77c7.471-4.323,13.703-11.7,18.06-20.787
			c10.801-5.083,19.122-12.49,23.38-19.848c0.194-0.333,0.29-0.696,0.29-1.056c0-0.726-0.379-1.437-1.056-1.825
			c-1.009-0.588-2.295-0.24-2.88,0.766c-3.314,5.727-9.367,11.469-17.229,15.94c2.523-6.97,4.003-14.657,4.231-22.586h14.472
			c1.163,0,2.108-0.945,2.108-2.108c0-1.167-0.945-2.108-2.108-2.108h-14.447c-0.231-7.973-1.767-15.666-4.133-22.575
			c7.801,4.459,13.807,10.17,17.106,15.869c0.585,1.006,1.871,1.351,2.88,0.767c0.677-0.391,1.056-1.099,1.056-1.828
			c0-0.357-0.096-0.72-0.29-1.055c-4.216-7.287-12.426-14.611-23.07-19.691c-4.751-10.77-11.465-18.888-17.937-21.906
			C95.356,10.815,94.104,11.277,93.611,12.329z M60.074,35.254c6.699-2.493,14.436-4.2,22.793-4.45v30.929H53.409
			C53.735,51.905,56.286,42.858,60.074,35.254z M59.137,92.01c-3.189-7.397-5.473-16.306-5.764-26.061h29.494v30.87
			C74.115,96.562,66.047,94.697,59.137,92.01z M110.739,91.441c-6.988,3.056-15.02,5.059-23.658,5.342V65.95h29.471
			C116.269,75,114.18,83.822,110.739,91.441z M116.58,61.734H87.085V30.839c8.785,0.292,16.949,2.357,24.011,5.499
			C114.143,43.603,116.297,52.271,116.58,61.734z"/>
		<path fill="#FFFFFF" d="M87.084,61.734c2.883,0,24.919-21.067,27.402-8.296c1.84,9.453,7.09,8.143,6.567,0.788
			c-0.674-9.414,17.854,2.102,18.38,18.383c0.501,15.552-15.174,24.292-22.058,30.984c-6.551,6.373-12.573,15.765-31.793,15.765
			c-12.917,0-54.544-13.7-55.912-47.715c-0.765-19.023,19.842-25.608,18.908-16.891c-0.788,7.352,4.201,10.241,6.039,3.413
			C57.395,47.855,83.475,61.734,87.084,61.734z"/>
		<g>
			<path fill="#DD6344" d="M59.113,43.783c-4.62,0-8.378-3.758-8.378-8.377c0-4.62,3.758-8.378,8.378-8.378
				c4.619,0,8.377,3.758,8.377,8.378C67.491,40.024,63.732,43.783,59.113,43.783z"/>
			<path fill="#FFFFFF" d="M59.113,27.527c4.351,0,7.877,3.53,7.877,7.878c0,4.351-3.526,7.877-7.877,7.877
				c-4.352,0-7.878-3.526-7.878-7.877C51.235,31.057,54.762,27.527,59.113,27.527 M59.113,26.527c-4.896,0-8.878,3.982-8.878,8.878
				c0,4.895,3.982,8.877,8.878,8.877c4.895,0,8.877-3.982,8.877-8.877C67.991,30.51,64.008,26.527,59.113,26.527L59.113,26.527z"/>
		</g>
		<g>
			<path fill="#DD6344" d="M112.68,43.783c-4.619,0-8.377-3.758-8.377-8.377c0-4.62,3.758-8.378,8.377-8.378
				s8.377,3.758,8.377,8.378C121.058,40.024,117.299,43.783,112.68,43.783z"/>
			<path fill="#FFFFFF" d="M112.68,27.527c4.351,0,7.877,3.53,7.877,7.878c0,4.351-3.526,7.877-7.877,7.877
				s-7.877-3.526-7.877-7.877C104.803,31.057,108.329,27.527,112.68,27.527 M112.68,26.527c-4.895,0-8.877,3.982-8.877,8.878
				c0,4.895,3.982,8.877,8.877,8.877s8.877-3.982,8.877-8.877C121.558,30.51,117.575,26.527,112.68,26.527L112.68,26.527z"/>
		</g>
		<g>
			<path fill="#DD6344" d="M85.896,35.905c-4.619,0-8.376-3.758-8.376-8.378c0-4.619,3.758-8.377,8.376-8.377
				c4.62,0,8.378,3.758,8.378,8.377C94.274,32.147,90.516,35.905,85.896,35.905z"/>
			<path fill="#FFFFFF" d="M85.896,19.65c4.352,0,7.878,3.53,7.878,7.877c0,4.352-3.526,7.878-7.878,7.878
				c-4.35,0-7.876-3.526-7.876-7.878C78.02,23.18,81.546,19.65,85.896,19.65 M85.896,18.65c-4.895,0-8.876,3.982-8.876,8.877
				c0,4.896,3.982,8.878,8.876,8.878c4.896,0,8.878-3.982,8.878-8.878C94.774,22.632,90.792,18.65,85.896,18.65L85.896,18.65z"/>
		</g>
		<g>
			<path fill="#DD6344" d="M85.896,72.142c-4.619,0-8.376-3.758-8.376-8.377s3.758-8.377,8.376-8.377
				c4.62,0,8.378,3.758,8.378,8.377S90.516,72.142,85.896,72.142z"/>
			<path fill="#FFFFFF" d="M85.896,55.887c4.352,0,7.878,3.529,7.878,7.877c0,4.351-3.526,7.877-7.878,7.877
				c-4.35,0-7.876-3.526-7.876-7.877C78.02,59.417,81.546,55.887,85.896,55.887 M85.896,54.887c-4.895,0-8.876,3.982-8.876,8.877
				s3.982,8.877,8.876,8.877c4.896,0,8.878-3.982,8.878-8.877S90.792,54.887,85.896,54.887L85.896,54.887z"/>
		</g>
	</g>
</g>
</svg>
