<?xml version="1.0" encoding="utf-8"?>
<!-- Generator: Adobe Illustrator 16.0.0, SVG Export Plug-In . SVG Version: 6.00 Build 0)  -->
<!DOCTYPE svg PUBLIC "-//W3C//DTD SVG 1.1//EN" "http://www.w3.org/Graphics/SVG/1.1/DTD/svg11.dtd">
<svg version="1.1" xmlns="http://www.w3.org/2000/svg" xmlns:xlink="http://www.w3.org/1999/xlink" x="0px" y="0px" width="200px"
	 height="200px" viewBox="0 0 200 200" enable-background="new 0 0 200 200" xml:space="preserve">
<g id="global" display="none">
	<g display="inline">
		<path fill="#70C29F" d="M8.576,99.844c0,50.399,41,91.396,91.4,91.396c50.397,0,91.4-40.997,91.4-91.396
			c0-50.396-41.003-91.398-91.4-91.398C49.576,8.446,8.576,49.448,8.576,99.844z M185.093,99.844
			c0,46.935-38.182,85.116-85.116,85.116s-85.12-38.186-85.12-85.116c0-46.938,38.186-85.123,85.12-85.123
			S185.093,52.907,185.093,99.844z"/>
	</g>
	<path display="inline" fill="#DD6344" d="M112.83,23.164c-0.733,1.571-0.06,3.44,1.513,4.168
		c6.421,2.996,14.213,11.342,20.585,23.275c-9.702-3.56-20.438-5.813-31.818-6.17V25.015c0-1.736-1.401-3.143-3.138-3.143
		c-1.733,0-3.138,1.406-3.138,3.143v19.372c-10.261,0.293-20.22,2.039-29.377,4.782c6.286-9.913,13.922-17.553,21.528-21.965
		c1.005-0.577,1.566-1.63,1.566-2.716c0-0.536-0.135-1.072-0.422-1.571c-0.868-1.498-2.787-2.011-4.292-1.141
		c-9.948,5.758-19.944,16.528-27.366,30.499C40.41,59.375,26.641,70.25,21.773,80.68c-0.73,1.575-0.055,3.439,1.519,4.172
		c1.569,0.733,3.436,0.055,4.171-1.517c3.294-7.062,13.056-15.788,26.958-22.454c-4.445,10.71-7.311,22.857-7.719,35.821H25.145
		c-1.736,0-3.142,1.407-3.142,3.142c0,1.732,1.405,3.138,3.142,3.138h21.503c0.361,12.488,2.867,24.521,6.706,35.208
		c-13.328-6.592-22.68-15.048-25.891-21.928c-0.735-1.572-2.602-2.25-4.171-1.517c-1.571,0.733-2.252,2.603-1.519,4.174
		c4.714,10.104,17.788,20.613,35.011,27.718c7.032,15.433,16.774,27.018,26.161,31.4c1.571,0.733,3.44,0.056,4.176-1.516
		c0.73-1.57,0.052-3.44-1.519-4.173c-6.294-2.936-13.91-11.008-20.211-22.565c9.721,3.11,20.398,5.112,31.442,5.434v19.454
		c0,1.731,1.406,3.139,3.143,3.139c1.731,0,3.139-1.407,3.139-3.139v-19.51c10.993-0.348,21.392-2.46,30.837-5.817
		c-5.579,9.418-12.651,17.054-20.742,21.735c-1.502,0.871-2.011,2.786-1.146,4.288c0.871,1.503,2.79,2.016,4.289,1.146
		c11.121-6.437,20.397-17.421,26.884-30.943c16.079-7.567,28.465-18.594,34.805-29.551c0.288-0.494,0.431-1.031,0.431-1.566
		c0-1.086-0.563-2.139-1.571-2.717c-1.502-0.875-3.417-0.357-4.288,1.142c-4.933,8.524-13.943,17.071-25.646,23.728
		c3.755-10.375,5.959-21.817,6.299-33.623h21.543c1.731,0,3.137-1.406,3.137-3.138c0-1.735-1.405-3.142-3.137-3.142h-21.507
		c-0.344-11.869-2.629-23.315-6.152-33.604c11.612,6.637,20.555,15.139,25.464,23.622c0.871,1.499,2.786,2.011,4.288,1.146
		c1.008-0.586,1.571-1.64,1.571-2.721c0-0.536-0.143-1.076-0.431-1.571c-6.275-10.847-18.497-21.753-34.342-29.316
		c-7.072-16.033-17.067-28.117-26.701-32.611C115.427,20.91,113.563,21.593,112.83,23.164z M62.904,57.286
		c9.972-3.706,21.488-6.253,33.93-6.624v46.04H52.982C53.468,82.076,57.265,68.61,62.904,57.286z M61.511,141.777
		c-4.75-11.012-8.148-24.273-8.582-38.795h43.905v45.955C83.806,148.547,71.796,145.776,61.511,141.777z M138.326,140.93
		c-10.401,4.549-22.357,7.526-35.217,7.953v-45.9h43.87C146.559,116.455,143.447,129.584,138.326,140.93z M147.021,96.703h-43.906
		V50.717c13.077,0.431,25.23,3.504,35.743,8.182C143.393,69.714,146.6,82.617,147.021,96.703z"/>
</g>
<g id="regional" display="none">
	<g display="inline">
		<path fill="#D2C0AA" d="M178.041,83.57c-4.318-7.466-11.455-14.958-20.651-21.369c-0.579,2.074-1.549,3.982-2.827,5.647
			c8.013,5.72,14.245,12.3,18.05,18.873c0.872,1.498,2.786,2.011,4.289,1.141c1.007-0.582,1.571-1.635,1.571-2.721
			C178.473,84.61,178.33,84.069,178.041,83.57z"/>
		<path fill="#D2C0AA" d="M101.345,86.45c-1.586,0-3.1,0.292-4.509,0.803v7.579c2.996,1.114,5.25,1.872,6.278,1.872
			c0.001,0,0.001,0,0.001,0V86.581C102.534,86.504,101.946,86.45,101.345,86.45z"/>
		<path fill="#D2C0AA" d="M101.345,62.399c-1.564,0-3.073-0.232-4.509-0.637V83.69c1.437-0.405,2.945-0.637,4.509-0.637
			c0.598,0,1.188,0.035,1.77,0.097l0.001-20.848C102.533,62.364,101.943,62.399,101.345,62.399z"/>
		<path fill="#D2C0AA" d="M84.674,45.726c0-0.104,0.014-0.206,0.016-0.309c-3.513,0.489-6.965,1.129-10.33,1.916
			c1.346,1.681,2.369,3.626,2.986,5.746c2.734-0.596,5.542-1.091,8.417-1.48C85.07,49.768,84.674,47.795,84.674,45.726z"/>
		<path fill="#D2C0AA" d="M127.648,48.246c-3.128-0.886-6.353-1.621-9.646-2.216c-0.039,2.163-0.482,4.228-1.273,6.116
			c2.858,0.507,5.652,1.137,8.375,1.875C125.583,51.917,126.455,49.964,127.648,48.246z"/>
		<path fill="#D2C0AA" d="M143.699,54.258c-1.491-3.38-3.118-6.572-4.839-9.567c-2.154,0.408-4.121,1.337-5.771,2.651
			c0.622,1.058,1.238,2.138,1.838,3.261c-1.259-0.461-2.537-0.898-3.83-1.314c-1.331,1.615-2.284,3.552-2.734,5.673
			c3.648,1.129,7.154,2.451,10.494,3.937c1.574,3.754,2.98,7.767,4.173,11.986c2.153-0.273,4.147-1.056,5.851-2.233
			c-0.539-1.882-1.11-3.739-1.731-5.552c1.593,0.91,3.13,1.859,4.618,2.834c1.296-1.644,2.212-3.596,2.614-5.734
			C151.046,58.061,147.479,56.062,143.699,54.258z"/>
		<path fill="#D2C0AA" d="M70.652,48.266c-1.074,0.289-2.14,0.587-3.193,0.903c0.496-0.782,1.002-1.544,1.514-2.297
			c-1.724-1.214-3.748-2.024-5.941-2.303c-1.602,2.44-3.129,5.009-4.558,7.701c-3.647,1.435-7.108,3.029-10.367,4.736
			c-0.013,0.24-0.037,0.478-0.037,0.721c0,2.063,0.484,4.009,1.324,5.751c1.608-0.893,3.285-1.761,5.027-2.596
			c-0.852,2.054-1.63,4.173-2.359,6.328c1.521,1.49,3.398,2.615,5.494,3.238c1.491-4.64,3.297-9.043,5.349-13.161
			c3.525-1.312,7.251-2.467,11.135-3.442C73.387,51.704,72.207,49.796,70.652,48.266z"/>
		<path fill="#D2C0AA" d="M101.345,32.45c-1.586,0-3.1,0.292-4.509,0.803v11.129c-2.939,0.085-5.85,0.302-8.728,0.614
			c-0.013,0.243-0.037,0.483-0.037,0.73c0,1.947,0.429,3.791,1.182,5.457c2.488-0.253,5.01-0.444,7.583-0.521V58.2
			c1.41,0.51,2.923,0.803,4.509,0.803c0.602,0,1.189-0.054,1.771-0.131v-8.159c3.444,0.114,6.823,0.417,10.127,0.878
			c0.874-1.771,1.379-3.757,1.379-5.865c0-0.086-0.012-0.17-0.013-0.256c-3.748-0.548-7.582-0.91-11.498-1.033V32.581
			C102.531,32.503,101.945,32.45,101.345,32.45z"/>
		<path fill="#D2C0AA" d="M44.731,58.863c-11.168,6.43-19.419,14.235-22.956,21.817c-0.73,1.576-0.055,3.44,1.518,4.173
			c1.569,0.733,3.436,0.05,4.171-1.516c2.622-5.622,9.351-12.294,18.994-18.146C45.489,63.263,44.885,61.126,44.731,58.863z"/>
		<path fill="#D2C0AA" d="M50.942,70.734c-2.216,7.419-3.687,15.348-4.137,23.644c1.503,3.127,4.199,3.805,6.243,0.965
			c0.36-7.587,1.611-14.846,3.534-21.646C54.503,73.076,52.596,72.059,50.942,70.734z"/>
		<path fill="#D2C0AA" d="M114.342,27.333c5.25,2.449,11.415,8.476,16.971,17.109c1.687-1.277,3.618-2.237,5.717-2.801
			c-6.062-9.658-13.136-16.777-20.03-19.993c-1.571-0.742-3.437-0.055-4.169,1.511C112.098,24.735,112.771,26.599,114.342,27.333z"
			/>
		<path fill="#D2C0AA" d="M143.907,74.182c1.405,5.662,2.411,11.668,2.872,17.942c2.284,3.252,4.98,2.743,6.239-0.571
			c-0.512-6.716-1.633-13.253-3.214-19.485C148.022,73.124,146.032,73.852,143.907,74.182z"/>
		<path fill="#D2C0AA" d="M70.932,44.108c5.527-7.462,11.8-13.277,18.054-16.904c1.006-0.577,1.567-1.63,1.567-2.716
			c0-0.536-0.135-1.072-0.421-1.572c-0.868-1.502-2.788-2.01-4.292-1.14c-7.209,4.173-14.438,10.985-20.699,19.73
			C67.253,42.001,69.211,42.894,70.932,44.108z"/>
		<path fill="#D2C0AA" d="M101.345,29.054c0.597,0,1.185,0.035,1.766,0.096v-4.14c0-1.731-1.401-3.138-3.137-3.138
			c-1.733,0-3.138,1.407-3.138,3.138v4.681C98.272,29.286,99.78,29.054,101.345,29.054z"/>
	</g>
	<g display="inline">
		<g>
			<path fill="#70C29F" d="M8.578,99.841c0,50.397,41,91.399,91.399,91.399c50.396,0,91.399-41.002,91.399-91.399
				c0-50.397-41.003-91.396-91.399-91.396C49.578,8.446,8.578,49.444,8.578,99.841z M185.092,99.841
				c0,46.934-38.181,85.115-85.114,85.115s-85.119-38.181-85.119-85.115c0-46.935,38.185-85.12,85.119-85.12
				S185.092,52.906,185.092,99.841z"/>
		</g>
	</g>
	<g display="inline">
		<path fill="#DD6344" d="M101.345,112.953c-7.292,0-13.225-5.934-13.225-13.227c0-7.293,5.933-13.226,13.225-13.226
			c7.293,0,13.227,5.933,13.227,13.226C114.571,107.02,108.638,112.953,101.345,112.953z"/>
	</g>
	<g display="inline">
		<path fill="#DD6344" d="M61.345,70.953c-7.292,0-13.225-5.934-13.225-13.227c0-7.293,5.933-13.226,13.225-13.226
			c7.293,0,13.227,5.933,13.227,13.226C74.571,65.02,68.638,70.953,61.345,70.953z"/>
	</g>
	<g display="inline">
		<path fill="#DD6344" d="M101.345,58.953c-7.292,0-13.225-5.934-13.225-13.227c0-7.293,5.933-13.226,13.225-13.226
			c7.293,0,13.227,5.933,13.227,13.226C114.571,53.02,108.638,58.953,101.345,58.953z"/>
	</g>
	<g display="inline">
		<path fill="#DD6344" d="M141.345,70.953c-7.292,0-13.225-5.934-13.225-13.227c0-7.293,5.933-13.226,13.225-13.226
			c7.293,0,13.227,5.933,13.227,13.226C154.571,65.02,148.638,70.953,141.345,70.953z"/>
	</g>
</g>
<g id="local" display="none">
	<g display="inline">
		<g>
			<path fill="#D2C0AA" d="M100.344,122.992c-12.244,0-22.205-9.964-22.205-22.209c0-12.246,9.961-22.208,22.205-22.208
				c12.246,0,22.209,9.963,22.209,22.208C122.553,113.028,112.59,122.992,100.344,122.992z"/>
		</g>
		<path fill="#FFFFFF" d="M91,108.313c0,0.626,0.606,0.687,1.233,0.687h16.578c0.628,0,1.188-0.061,1.188-0.687v-10.46
			c0.018-0.422-0.217-0.828-0.512-0.982l-8.326-5.438c-0.585-0.31-1.266,0-1.266,0l-8.331,5.443
			c-0.292,0.161-0.585,0.566-0.565,0.984V108.313z"/>
		<path fill="#DD6344" d="M78,50.037c0.03-0.75-0.111-1.471-0.636-1.745l-14.743-9.659c-1.04-0.55-2.225,0-2.225,0l-14.746,9.67
			C45.132,48.588,45,49.309,45,50.051c0,0.018,0,18.566,0,18.566C45,69.729,45.692,70,46.807,70h29.448
			C77.369,70,78,69.729,78,68.617C78,68.617,78.001,50.06,78,50.037z"/>
		
			<line fill="none" stroke="#D2C0AA" stroke-width="7" stroke-linecap="round" stroke-linejoin="round" stroke-miterlimit="10" x1="126.75" y1="86.5" x2="137.25" y2="77"/>
		
			<line fill="none" stroke="#D2C0AA" stroke-width="7" stroke-linecap="round" stroke-linejoin="round" stroke-miterlimit="10" x1="74.25" y1="86.5" x2="63.513" y2="78"/>
		
			<line fill="none" stroke="#D2C0AA" stroke-width="7" stroke-linecap="round" stroke-linejoin="round" stroke-miterlimit="10" x1="77.75" y1="122.75" x2="75" y2="124.389"/>
		
			<line fill="none" stroke="#D2C0AA" stroke-width="7" stroke-linecap="round" stroke-linejoin="round" stroke-miterlimit="10" x1="119.773" y1="122.75" x2="121.25" y2="124.389"/>
	</g>
	<g display="inline">
		<g>
			<path fill="#70C29F" d="M8.578,99.841c0,50.397,41,91.399,91.399,91.399c50.396,0,91.399-41.002,91.399-91.399
				c0-50.397-41.003-91.396-91.399-91.396C49.578,8.446,8.578,49.444,8.578,99.841z M185.092,99.841
				c0,46.934-38.181,85.115-85.114,85.115s-85.119-38.181-85.119-85.115c0-46.935,38.185-85.12,85.119-85.12
				S185.092,52.906,185.092,99.841z"/>
		</g>
	</g>
	<path display="inline" fill="#DD6344" d="M158,50.037c0.03-0.75-0.111-1.471-0.636-1.745l-14.743-9.659c-1.04-0.55-2.225,0-2.225,0
		l-14.746,9.67c-0.519,0.285-0.65,1.006-0.65,1.748c0,0.018,0,18.566,0,18.566c0,1.111,0.692,1.383,1.807,1.383h29.448
		c1.114,0,1.745-0.271,1.745-1.383C158,68.617,158.001,50.06,158,50.037z"/>
	<path display="inline" fill="#DD6344" d="M153,136.037c0.03-0.75-0.111-1.471-0.636-1.745l-14.743-9.659
		c-1.04-0.55-2.225,0-2.225,0l-14.746,9.67c-0.519,0.285-0.65,1.006-0.65,1.748c0,0.018,0,18.566,0,18.566
		c0,1.111,0.692,1.383,1.807,1.383h29.448c1.114,0,1.745-0.271,1.745-1.383C153,154.617,153.001,136.06,153,136.037z"/>
	<path display="inline" fill="#DD6344" d="M77,135.655c0-0.661-0.098-1.296-0.561-1.538l-12.994-8.514c-0.917-0.484-1.96,0-1.96,0
		l-12.955,8.523c-0.457,0.251-0.531,0.887-0.531,1.54c0,0.016,0,16.364,0,16.364c0,0.979,0.525,0.969,1.507,0.969h25.955
		c0.982,0,1.538,0.011,1.538-0.969C77,152.031,77,135.675,77,135.655z"/>
</g>
<g id="Diagnose_Problems" display="none">
	<g display="inline">
		<g>
			<path fill="#70C29F" d="M8.578,99.841c0,50.397,41,91.399,91.399,91.399c50.396,0,91.399-41.002,91.399-91.399
				c0-50.397-41.003-91.396-91.399-91.396C49.578,8.446,8.578,49.444,8.578,99.841z M185.092,99.841
				c0,46.934-38.181,85.115-85.114,85.115s-85.119-38.181-85.119-85.115c0-46.935,38.185-85.12,85.119-85.12
				S185.092,52.906,185.092,99.841z"/>
		</g>
	</g>
	<g display="inline">
		<path fill="#D2C0AA" d="M39.175,133.128c-2.993,0-5.418-2.425-5.418-5.419v-22.754c0-2.991,2.426-5.419,5.418-5.419
			s5.418,2.428,5.418,5.419v22.754C44.594,130.703,42.168,133.128,39.175,133.128z"/>
		<path fill="#D2C0AA" d="M53.625,133.128c-2.993,0-5.418-2.425-5.418-5.419V95.202c0-2.994,2.426-5.418,5.418-5.418
			s5.418,2.424,5.418,5.418v32.507C59.043,130.703,56.617,133.128,53.625,133.128z"/>
		<path fill="#D2C0AA" d="M111.6,133.128c-2.993,0-5.419-2.425-5.419-5.419v-10.836c0-2.991,2.426-5.419,5.419-5.419
			c2.992,0,5.418,2.428,5.418,5.419v10.836C117.018,130.703,114.592,133.128,111.6,133.128z"/>
		<path fill="#D2C0AA" d="M68.071,133.128c-2.991,0-5.418-2.425-5.418-5.419v-54.18c0-2.994,2.427-5.418,5.418-5.418
			c2.994,0,5.418,2.424,5.418,5.418v54.18C73.489,130.703,71.065,133.128,68.071,133.128z"/>
		<path fill="#D2C0AA" d="M82.522,133.128c-2.994,0-5.418-2.425-5.418-5.419V95.202c0-2.994,2.424-5.418,5.418-5.418
			c2.991,0,5.418,2.424,5.418,5.418v32.507C87.94,130.703,85.513,133.128,82.522,133.128z"/>
		<path fill="#D2C0AA" d="M96.97,133.128c-2.991,0-5.418-2.425-5.418-5.419V84.366c0-2.994,2.427-5.418,5.418-5.418
			c2.994,0,5.418,2.424,5.418,5.418v43.343C102.388,130.703,99.964,133.128,96.97,133.128z"/>
		<g id="Your_Icon_5_">
			<g>
				<path fill="#DD6344" d="M114.441,71.709c-4.669,3.838-7.563,9.26-8.149,15.276c-0.589,6.014,1.199,11.896,5.036,16.564
					c3.836,4.671,9.262,7.562,15.277,8.147c3.557,0.349,7.062-0.152,10.305-1.405l16.625,20.23
					c2.509,3.045,7.008,3.483,10.058,0.981c1.521-1.252,2.394-3.007,2.571-4.826s-0.34-3.704-1.586-5.231l-16.629-20.224
					c1.854-2.942,3.025-6.282,3.374-9.84c0.586-6.013-1.203-11.896-5.041-16.566c-3.836-4.67-9.261-7.562-15.277-8.148
					C124.992,66.079,119.106,67.871,114.441,71.709z M141.845,90.457c-0.342,3.48-2.021,6.621-4.724,8.846
					c-2.702,2.222-6.107,3.256-9.589,2.913c-3.482-0.333-6.621-2.013-8.843-4.714c-2.222-2.705-3.256-6.11-2.916-9.59
					c0.339-3.484,2.013-6.625,4.715-8.846c2.705-2.222,6.11-3.256,9.593-2.917c3.483,0.339,6.621,2.016,8.846,4.714
					C141.145,83.568,142.182,86.974,141.845,90.457z"/>
			</g>
		</g>
	</g>
</g>
<g id="Motivate_Collaboration" display="none">
	<g display="inline">
		<g>
			<path fill="#70C29F" d="M8.578,99.841c0,50.397,41,91.399,91.399,91.399c50.396,0,91.399-41.002,91.399-91.399
				c0-50.397-41.003-91.396-91.399-91.396C49.578,8.446,8.578,49.444,8.578,99.841z M185.092,99.841
				c0,46.934-38.181,85.115-85.114,85.115s-85.119-38.181-85.119-85.115c0-46.935,38.185-85.12,85.119-85.12
				S185.092,52.906,185.092,99.841z"/>
		</g>
	</g>
	<g display="inline">
		<g>
			<g>
				<path fill="#D2C0AA" d="M69.637,118.021c4.188,0,7.585,3.396,7.585,7.584c0,4.195-3.397,7.588-7.585,7.588
					c-4.189,0-7.587-3.393-7.587-7.588C62.05,121.418,65.447,118.021,69.637,118.021z"/>
				<path fill="#D2C0AA" d="M69.637,135.723c-6.984,0-12.643,5.658-12.643,12.643v5.059h25.283v-5.059
					C82.277,141.381,76.619,135.723,69.637,135.723z"/>
			</g>
			<g>
				<path fill="#D2C0AA" d="M130.318,118.021c4.189,0,7.588,3.396,7.588,7.584c0,4.195-3.398,7.588-7.588,7.588
					c-4.188,0-7.584-3.393-7.584-7.588C122.734,121.418,126.131,118.021,130.318,118.021z"/>
				<path fill="#D2C0AA" d="M130.318,135.723c-6.982,0-12.641,5.658-12.641,12.643v5.059h25.283v-5.059
					C142.961,141.381,137.303,135.723,130.318,135.723z"/>
			</g>
			<g>
				<path fill="#D2C0AA" d="M99.978,118.021c4.188,0,7.585,3.396,7.585,7.584c0,4.195-3.396,7.588-7.585,7.588
					c-4.189,0-7.586-3.393-7.586-7.588C92.392,121.418,95.788,118.021,99.978,118.021z"/>
				<path fill="#D2C0AA" d="M99.978,135.723c-6.983,0-12.642,5.658-12.642,12.643v5.059h25.283v-5.059
					C112.619,141.381,106.961,135.723,99.978,135.723z"/>
			</g>
		</g>
		<g>
			<g>
				<path fill="#D2C0AA" d="M127.789,112.967c0.775,0,1.523-0.355,2.01-0.992c0.658-0.859,0.693-2.041,0.094-2.938
					c-0.039-0.064-3.553-5.395-4.432-11.242h4.857c4.182,0,7.586-3.402,7.586-7.584V53.85c0-4.185-3.404-7.587-7.586-7.587H69.637
					c-4.182,0-7.587,3.402-7.587,7.587V90.21c0,4.182,3.405,7.584,7.587,7.584h4.855c-0.883,5.828-4.395,11.184-4.434,11.244
					c-0.597,0.896-0.558,2.078,0.101,2.936c0.488,0.637,1.236,0.992,2.006,0.992c0.268,0,0.536-0.043,0.8-0.131
					c0.638-0.215,14.561-4.979,16.633-15.041h3.5l4.481,13.441c0.344,1.033,1.309,1.73,2.397,1.73c1.09,0,2.055-0.697,2.398-1.73
					l4.48-13.441h3.49c2.066,10.068,16.004,14.83,16.645,15.041C127.254,112.924,127.523,112.967,127.789,112.967z M115.146,95.267
					c0-1.398-1.133-2.528-2.527-2.528h-7.588c-1.088,0-2.051,0.696-2.396,1.729l-2.657,7.973l-2.656-7.973
					c-0.354-1.06-1.341-1.721-2.399-1.718v-0.011h-7.586c-1.396,0-2.529,1.129-2.529,2.528c0,4.046-3.467,7.37-7.056,9.657
					c1.085-2.811,2-6.21,2-9.657c0-1.398-1.133-2.528-2.528-2.528h-7.586c-1.394,0-2.527-1.132-2.527-2.528V53.85
					c0-1.396,1.135-2.531,2.527-2.531h60.684c1.393,0,2.529,1.135,2.529,2.531V90.21c0,1.396-1.137,2.528-2.529,2.528h-7.586
					c-1.395,0-2.529,1.129-2.529,2.528c0,3.436,0.914,6.823,1.992,9.636C118.729,102.721,115.146,99.452,115.146,95.267z"/>
			</g>
			<rect x="80.29" y="61.502" fill="none" width="39.375" height="21.343"/>
			
				<text transform="matrix(1 0 0 1 89.6484 82.5869)" fill="#DD6344" stroke="#DD6344" stroke-width="2" stroke-linecap="round" stroke-linejoin="round" stroke-miterlimit="10" font-family="'Montserrat-Bold'" font-size="28.4163">R</text>
		</g>
	</g>
</g>
<g id="Develop_Solutions" display="none">
	<g display="inline">
		<g>
			<path fill="#70C29F" d="M8.578,100.051c0,50.397,41,91.399,91.399,91.399c50.396,0,91.399-41.002,91.399-91.399
				c0-50.397-41.003-91.396-91.399-91.396C49.578,8.656,8.578,49.654,8.578,100.051z M185.092,100.051
				c0,46.934-38.181,85.115-85.114,85.115s-85.119-38.181-85.119-85.115c0-46.935,38.185-85.12,85.119-85.12
				S185.092,53.116,185.092,100.051z"/>
		</g>
	</g>
	<g display="inline">
		<path fill="#DD6344" d="M107.188,118.975H92.607c-2.663,0-4.823,2.16-4.823,4.828V138.4c0,2.668,2.16,4.83,4.823,4.83h14.581
			c2.666,0,4.824-2.162,4.824-4.83v-14.598C112.012,121.135,109.854,118.975,107.188,118.975z"/>
		
			<line fill="none" stroke="#DD6344" stroke-width="0" stroke-linecap="round" stroke-linejoin="round" x1="92.607" y1="92.303" x2="92.662" y2="92.303"/>
		<path fill="#DD6344" d="M105.312,98.041c-0.595-2.146,0.172-4.355,1.78-5.738H92.662c-2.628,0-4.825,2.145-4.825,4.829v14.544
			c0,2.629,2.146,4.83,4.825,4.83h14.526c2.625,0,4.824-2.148,4.824-4.83v-9.622c-0.417,0.099-0.842,0.159-1.269,0.159
			C108.229,102.213,105.995,100.498,105.312,98.041z"/>
		<path fill="#DD6344" d="M88.052,92.303l12.543-7.406c2.305-1.342,3.055-4.348,1.713-6.655l-7.395-12.558
			c-1.341-2.307-4.343-3.059-6.647-1.718l-12.543,7.406h0.053c-2.304,1.342-3.054,4.348-1.715,6.655l2.482,4.268l6.645-3.852
			c0.015-0.009,0.03-0.017,0.045-0.025c0.849-0.463,1.805-0.708,2.764-0.708c2.004,0,3.882,1.068,4.9,2.787
			c0.012,0.02,0.023,0.041,0.035,0.061c1.488,2.725,0.576,6.093-2.093,7.678l-6.282,3.64C84.081,93.108,86.245,93.369,88.052,92.303
			z"/>
		<path fill="#D2C0AA" d="M75.241,93.805l12.596-7.299c1.716-1.019,2.307-3.22,1.341-4.989c-0.688-1.161-1.912-1.806-3.18-1.806
			c-0.611,0-1.231,0.149-1.807,0.463l-10.183,5.902l-9.06-8.907c-1.609-1.557-3.484-3.006-5.896-3.006
			c-4.021,0-7.291,3.273-7.291,7.297v3.875l6.067,4.022c0.936,0.542,1.171,1.53,1.171,2.94v13.087c0,1.572-0.811,2.629-2.372,2.629
			c-0.102,0,0.025-0.004-0.096-0.008c-0.086-0.004-0.18-0.006-0.281-0.006h-4.489v6.197h2.52v-0.055v0.055v25.438
			c0,1.986,1.662,3.65,3.645,3.65h2.198c1.984,0,3.646-1.664,3.646-3.65v-25.492h2.519V88.654l4.502,4.507
			c0.717,0.716,1.694,1.059,2.652,1.059c0.19,0,0.379-0.013,0.565-0.04h0.053h0.053h0.055h0.054h0.053
			C74.598,94.128,74.92,93.966,75.241,93.805z"/>
		
			<line fill="none" stroke="#FFFFFF" stroke-width="0" stroke-linecap="round" stroke-linejoin="round" x1="54.282" y1="114.197" x2="54.282" y2="114.143"/>
		<path fill="#D2C0AA" d="M147.214,106h-3.696c-0.077,0-0.27,0.003-0.337,0.006c-0.104,0.004-0.323,0.007-0.413,0.007
			c-1.512,0-2.768-1.01-2.768-2.514v-10.69c0-1.563,0.938-2.333,1.561-2.708l3.084-1.967l-1.061-7.372
			c-0.537-3.613-3.649-6.249-7.194-6.249c-0.35,0-0.704,0.026-1.06,0.079c-3.967,0.589-6.754,4.293-6.166,8.265l0.053,0.376
			l-6.322,6.332l-13.082,3.487c-1.928,0.538-3.107,2.523-2.572,4.454c0.449,1.617,1.909,2.706,3.503,2.706
			c0.312,0,0.63-0.042,0.946-0.13l14.098-3.755c0.752-0.216,1.395-0.646,1.877-1.234l2.84-2.846l3.324,23.078l2.467-0.375v24.684
			c0,1.986,1.66,3.65,3.645,3.65h2.197c1.984,0,3.646-1.664,3.646-3.65v-26.082l2.463-0.375L147.214,106z"/>
		<path fill="#D2C0AA" d="M61.148,72.455c2.973-1.04,5.141-4.174,5.141-7.844c0-4.562-3.271-8.211-7.289-8.211
			c-4.021,0-7.292,3.701-7.292,8.211c0,3.698,2.15,6.795,5.107,7.835c0.69,0.243,1.424,0.375,2.185,0.375
			C59.748,72.821,60.469,72.692,61.148,72.455z"/>
		<path fill="#D2C0AA" d="M137.955,65.576c0-4.509-3.27-8.21-7.289-8.21c-4.021,0-7.291,3.65-7.291,8.21
			c0,4.509,3.27,8.21,7.291,8.21c0.441,0,0.872-0.051,1.292-0.136c0.782-0.157,1.522-0.448,2.197-0.861
			C136.417,71.401,137.955,68.704,137.955,65.576z"/>
		<path fill="#D2C0AA" d="M161,103.499c0,0,0-10.686,0-10.698c0-0.432,0.176-0.847-0.127-1.005l-8.249-5.562
			c-0.2-0.105-0.409-0.141-0.599-0.141c-0.38,0-0.802,0.141-0.802,0.141l-8.61,5.568c-0.299,0.165-0.613,0.579-0.613,1.007
			c0,0.01,0,10.69,0,10.69c0,0.446,0.434,0.514,0.768,0.514c0.145,0,0.556-0.013,0.75-0.013h16.957c0.194,0,0.123,0.013,0.264,0.013
			C161.062,104.013,161,103.945,161,103.499z"/>
		<path fill="#D2C0AA" d="M35.509,106h20.742c0.238,0,0.205,0.014,0.377,0.014c0.396,0,0.372-0.084,0.372-0.629
			c0,0,0-13.071,0-13.087c0-0.528,0.161-1.036-0.208-1.229l-10.144-6.804c-0.245-0.129-0.5-0.172-0.732-0.172
			c-0.464,0-0.894,0.172-0.894,0.172l-10.444,6.811C34.211,91.277,34,91.784,34,92.308c0,0.012,0,13.077,0,13.077
			c0,0.545,0.355,0.629,0.765,0.629C34.942,106.014,35.271,106,35.509,106z"/>
	</g>
</g>
<g id="Learn__x26__Share">
	<g>
		<g>
			<g>
				<path fill="#70C29F" d="M8.578,99.841c0,50.397,41,91.399,91.399,91.399c50.396,0,91.399-41.002,91.399-91.399
					c0-50.397-41.003-91.396-91.399-91.396C49.578,8.446,8.578,49.444,8.578,99.841z M185.092,99.841
					c0,46.934-38.181,85.115-85.114,85.115s-85.119-38.181-85.119-85.115c0-46.935,38.185-85.12,85.119-85.12
					S185.092,52.906,185.092,99.841z"/>
			</g>
		</g>
		<g>
			<g>
				<path fill="#D2C0AA" d="M94.153,100.902h-14.58c-2.664,0-4.824,2.16-4.824,4.828v14.598c0,2.668,2.16,4.83,4.824,4.83h14.58
					c2.666,0,4.824-2.162,4.824-4.83V105.73C98.978,103.062,96.819,100.902,94.153,100.902z"/>
				<path fill="#D2C0AA" d="M94.153,74.646h-14.58c-2.664,0-4.824,2.16-4.824,4.828v14.598c0,2.668,2.16,4.83,4.824,4.83h14.58
					c2.666,0,4.824-2.162,4.824-4.83V79.475C98.978,76.807,96.819,74.646,94.153,74.646z"/>
				<path fill="#D2C0AA" d="M120.382,100.902h-14.58c-2.664,0-4.824,2.16-4.824,4.828v14.598c0,2.668,2.16,4.83,4.824,4.83h14.58
					c2.666,0,4.824-2.162,4.824-4.83V105.73C125.206,103.062,123.048,100.902,120.382,100.902z"/>
				<path fill="#D2C0AA" d="M120.382,74.646h-14.58c-2.664,0-4.824,2.16-4.824,4.828v14.598c0,2.668,2.16,4.83,4.824,4.83h14.58
					c2.666,0,4.824-2.162,4.824-4.83V79.475C125.206,76.807,123.048,74.646,120.382,74.646z"/>
			</g>
			<g>
				<path fill="#DD6344" d="M130.206,69.725c0,0,0.011-0.19,0.032-0.547c0.037-0.339,0.06-0.871,0.157-1.473
					c0.084-0.617,0.186-1.367,0.347-2.178c0.086-0.4,0.177-0.826,0.272-1.276c0.036-0.237,0.194-0.348,0.387-0.43
					c0.188-0.086,0.315-0.244,0.472-0.378c2.42-2.222,5.647-5.185,8.874-8.147c3.228-2.962,6.454-5.925,8.875-8.147
					c0.146-0.145,0.313-0.259,0.423-0.431c0.089-0.193,0.235-0.317,0.486-0.321c0.46-0.052,0.896-0.102,1.308-0.148
					c0.808-0.107,1.563-0.144,2.179-0.182c0.605-0.049,1.129-0.036,1.466-0.048c0.352,0.003,0.539,0.005,0.539,0.005
					s-0.015,0.187-0.041,0.537c-0.041,0.334-0.072,0.857-0.173,1.457c-0.09,0.61-0.191,1.36-0.367,2.156
					c-0.081,0.405-0.168,0.836-0.259,1.291c-0.025,0.249-0.161,0.385-0.361,0.457c-0.181,0.094-0.309,0.252-0.466,0.385
					c-2.42,2.222-5.647,5.185-8.874,8.147c-3.228,2.962-6.454,5.925-8.875,8.147c-0.146,0.144-0.314,0.258-0.416,0.438
					c-0.098,0.185-0.223,0.333-0.462,0.349c-0.455,0.057-0.888,0.111-1.294,0.162c-0.821,0.092-1.578,0.129-2.199,0.16
					c-0.608,0.046-1.141,0.023-1.481,0.031C130.396,69.729,130.206,69.725,130.206,69.725z"/>
				<path fill="#DD6344" d="M44.206,153.61c0,0,0.011-0.19,0.032-0.547c0.037-0.34,0.06-0.871,0.157-1.474
					c0.084-0.616,0.185-1.367,0.347-2.178c0.085-0.4,0.176-0.826,0.271-1.275c0.037-0.237,0.195-0.349,0.387-0.43
					c0.187-0.087,0.315-0.245,0.472-0.378c2.42-2.223,5.647-5.186,8.874-8.148c3.227-2.962,6.454-5.925,8.875-8.147
					c0.146-0.145,0.314-0.259,0.423-0.431c0.089-0.193,0.236-0.317,0.486-0.321c0.46-0.052,0.897-0.102,1.308-0.147
					c0.808-0.107,1.563-0.145,2.18-0.183c0.605-0.049,1.129-0.035,1.466-0.048c0.351,0.003,0.539,0.005,0.539,0.005
					s-0.014,0.187-0.041,0.537c-0.042,0.335-0.072,0.857-0.173,1.457c-0.09,0.61-0.191,1.36-0.367,2.155
					c-0.081,0.405-0.167,0.836-0.259,1.29c-0.025,0.249-0.161,0.385-0.362,0.457c-0.18,0.095-0.308,0.252-0.465,0.385
					c-2.42,2.223-5.647,5.186-8.874,8.148c-3.227,2.962-6.454,5.925-8.875,8.147c-0.146,0.144-0.314,0.258-0.417,0.438
					c-0.097,0.185-0.222,0.332-0.461,0.349c-0.456,0.058-0.888,0.111-1.294,0.162c-0.821,0.092-1.578,0.129-2.2,0.16
					c-0.608,0.046-1.14,0.023-1.481,0.031C44.396,153.615,44.206,153.61,44.206,153.61z"/>
				<path fill="#DD6344" d="M70.022,69.725c0,0-0.19-0.011-0.547-0.032c-0.339-0.037-0.871-0.06-1.473-0.157
					c-0.617-0.084-1.367-0.185-2.178-0.347c-0.4-0.085-0.826-0.176-1.276-0.271c-0.237-0.037-0.348-0.195-0.43-0.387
					c-0.086-0.187-0.244-0.315-0.378-0.472c-2.222-2.42-5.185-5.647-8.147-8.874c-2.962-3.227-5.925-6.454-8.147-8.875
					c-0.145-0.146-0.259-0.314-0.431-0.423c-0.193-0.089-0.317-0.236-0.321-0.486c-0.052-0.46-0.102-0.897-0.148-1.308
					c-0.107-0.808-0.144-1.563-0.182-2.18c-0.049-0.605-0.036-1.129-0.048-1.466c0.003-0.351,0.005-0.539,0.005-0.539
					s0.187,0.014,0.537,0.041c0.334,0.042,0.857,0.072,1.457,0.173c0.61,0.09,1.36,0.191,2.156,0.367
					c0.405,0.081,0.836,0.167,1.291,0.259c0.249,0.025,0.385,0.161,0.457,0.362c0.094,0.18,0.252,0.308,0.385,0.465
					c2.222,2.42,5.185,5.647,8.147,8.874c2.962,3.227,5.925,6.454,8.147,8.875c0.144,0.146,0.258,0.314,0.438,0.417
					c0.185,0.097,0.333,0.222,0.349,0.461c0.057,0.456,0.111,0.888,0.162,1.294c0.092,0.821,0.129,1.578,0.16,2.2
					c0.046,0.608,0.023,1.14,0.031,1.481C70.027,69.534,70.022,69.725,70.022,69.725z"/>
				<path fill="#DD6344" d="M153.908,155.725c0,0-0.19-0.012-0.547-0.032c-0.34-0.037-0.871-0.06-1.474-0.157
					c-0.616-0.084-1.367-0.186-2.178-0.347c-0.4-0.086-0.826-0.177-1.275-0.272c-0.237-0.036-0.349-0.194-0.43-0.387
					c-0.087-0.188-0.245-0.315-0.378-0.472c-2.223-2.42-5.186-5.647-8.148-8.874c-2.962-3.228-5.925-6.454-8.147-8.875
					c-0.145-0.146-0.259-0.313-0.431-0.423c-0.193-0.089-0.317-0.235-0.321-0.486c-0.052-0.46-0.102-0.896-0.147-1.308
					c-0.107-0.807-0.145-1.563-0.183-2.179c-0.049-0.605-0.035-1.129-0.048-1.466c0.003-0.352,0.005-0.539,0.005-0.539
					s0.187,0.015,0.537,0.041c0.335,0.041,0.857,0.072,1.456,0.173c0.611,0.09,1.361,0.191,2.156,0.367
					c0.405,0.081,0.836,0.168,1.29,0.259c0.249,0.025,0.385,0.161,0.457,0.361c0.095,0.181,0.252,0.309,0.385,0.466
					c2.223,2.42,5.186,5.647,8.148,8.874c2.962,3.228,5.925,6.454,8.147,8.875c0.144,0.146,0.258,0.314,0.438,0.416
					c0.185,0.098,0.332,0.223,0.349,0.462c0.058,0.455,0.111,0.888,0.162,1.294c0.092,0.821,0.129,1.578,0.16,2.199
					c0.046,0.608,0.023,1.141,0.031,1.481C153.913,155.534,153.908,155.725,153.908,155.725z"/>
				<path fill="#DD6344" d="M130.069,100.1c0,0,0.159-0.145,0.457-0.381c0.298-0.226,0.734-0.602,1.29-0.979
					c0.557-0.397,1.231-0.882,2.006-1.37c0.388-0.237,0.799-0.49,1.233-0.756c0.218-0.149,0.44-0.125,0.668-0.055
					c0.229,0.063,0.462,0.033,0.7,0.041c3.812,0,8.896,0,13.979,0c5.084,0,10.167,0,13.979,0c0.238-0.008,0.472,0.021,0.7-0.031
					c0.228-0.082,0.45-0.074,0.668,0.092c0.435,0.273,0.846,0.532,1.233,0.775c0.774,0.467,1.449,0.951,2.006,1.34
					c0.556,0.373,0.992,0.737,1.29,0.956c0.298,0.24,0.457,0.368,0.457,0.368s-0.159,0.128-0.457,0.368
					c-0.298,0.219-0.734,0.583-1.29,0.957c-0.557,0.389-1.231,0.872-2.006,1.34c-0.388,0.243-0.799,0.502-1.233,0.775
					c-0.218,0.166-0.44,0.174-0.668,0.092c-0.229-0.053-0.462-0.023-0.7-0.031c-3.812,0-8.896,0-13.979,0
					c-5.083,0-10.166,0-13.979,0c-0.238,0.007-0.472-0.022-0.7,0.04c-0.228,0.07-0.45,0.096-0.668-0.055
					c-0.435-0.266-0.846-0.519-1.233-0.756c-0.774-0.487-1.449-0.973-2.006-1.37c-0.556-0.377-0.992-0.753-1.29-0.979
					C130.229,100.244,130.069,100.1,130.069,100.1z"/>
				<path fill="#DD6344" d="M29.219,100.1c0,0,0.159-0.145,0.457-0.381c0.298-0.226,0.735-0.602,1.291-0.979
					c0.556-0.397,1.231-0.882,2.005-1.37c0.387-0.237,0.799-0.49,1.233-0.756c0.217-0.149,0.44-0.125,0.668-0.055
					c0.228,0.063,0.461,0.033,0.699,0.041c3.813,0,8.896,0,13.979,0s10.167,0,13.979,0c0.238-0.008,0.471,0.021,0.699-0.031
					c0.228-0.082,0.451-0.074,0.668,0.092c0.434,0.273,0.846,0.532,1.233,0.775c0.774,0.467,1.45,0.951,2.005,1.34
					c0.556,0.373,0.993,0.737,1.291,0.956c0.298,0.24,0.457,0.368,0.457,0.368s-0.159,0.128-0.457,0.368
					c-0.298,0.219-0.735,0.583-1.291,0.957c-0.556,0.389-1.231,0.872-2.005,1.34c-0.387,0.243-0.799,0.502-1.233,0.775
					c-0.217,0.166-0.44,0.174-0.668,0.092c-0.228-0.053-0.461-0.023-0.699-0.031c-3.813,0-8.896,0-13.979,0s-10.167,0-13.979,0
					c-0.238,0.007-0.471-0.022-0.699,0.04c-0.228,0.07-0.451,0.096-0.668-0.055c-0.434-0.266-0.846-0.519-1.233-0.756
					c-0.774-0.487-1.45-0.973-2.005-1.37c-0.556-0.377-0.993-0.753-1.291-0.979C29.377,100.244,29.219,100.1,29.219,100.1z"/>
			</g>
		</g>
	</g>
</g>
<g id="guides">
</g>
</svg>
